<svg width="215" height="93" viewBox="0 0 215 93" fill="none" xmlns="http://www.w3.org/2000/svg">
<g filter="url(#filter0_d)">
<path d="M154.388 18.7981C170.613 21.9524 182.665 26.6855 188.492 32.1908C194.318 37.6962 193.558 43.6332 186.341 48.9902C179.123 54.3473 165.896 58.793 148.911 61.5698C131.927 64.3466 112.237 65.2827 93.1964 64.2186C74.1554 63.1546 56.9417 60.1561 44.4882 55.7343C32.0348 51.3124 25.1122 45.7407 24.8998 39.9684C24.6875 34.1962 31.1987 28.5806 43.3239 24.0785C55.4492 19.5763 72.4382 16.4662 91.3964 15.2781L108.632 39.695L154.388 18.7981Z" fill="#F9FFB4"/>
</g>
<path d="M149.065 28.0349L146.814 24.9512C143.852 24.9512 140.834 26.6509 139.379 30.4958C138.891 31.7819 137.894 32.7465 136.915 33.9188C134.722 36.536 134.152 40.5709 135.095 43.6804C136.475 48.2405 141.841 51.078 146.814 51.078L149.065 49.4107V28.0349Z" fill="#C7E62E"/>
<path d="M158.534 43.6804C157.165 48.2015 151.828 51.078 146.814 51.078V24.9512C150.156 24.9512 152.935 27.0238 154.25 30.4951C154.734 31.7747 155.697 32.7035 156.713 33.9188C158.897 36.5267 159.48 40.5596 158.534 43.6804Z" fill="#95CC29"/>
<path d="M141.489 32.2216C142.364 29.9134 144.131 28.0286 146.813 28.0286L148.314 27.0363L146.813 26.0439C143.85 26.0439 140.832 27.7447 139.377 31.5886C138.377 34.2342 135.636 34.997 134.825 39.7292C134.531 41.4413 134.627 43.2329 135.094 44.773C135.719 46.8404 137.173 48.6426 139.296 49.985C141.471 51.3604 144.1 52.1708 146.813 52.1708L147.928 51.1347L146.813 50.1583C144.732 50.1616 142.568 49.6198 140.587 48.3667C138.866 47.2791 137.743 45.8964 137.246 44.2564C136.432 41.5677 137.043 38.1778 138.702 36.1977C139.713 34.9904 140.873 33.8552 141.489 32.2216Z" fill="#C7E62E"/>
<path d="M158.533 44.773C157.164 49.2955 151.826 52.1708 146.813 52.1708V50.1583C151.28 50.1517 155.358 47.635 156.38 44.257V44.2564C157.194 41.5671 156.582 38.1778 154.924 36.197C153.92 34.9956 152.755 33.8571 152.136 32.2216C151.659 30.9607 150.184 28.0286 146.813 28.0286V26.0439C150.155 26.0439 152.934 28.1166 154.249 31.5879C155.251 34.2349 157.991 34.9977 158.801 39.7292C159.095 41.4413 158.999 43.2323 158.533 44.773Z" fill="#95CC29"/>
<path d="M53.311 30.6763C53.5282 30.9303 53.6821 31.1209 53.7727 31.2479C54.4426 32.0463 54.9223 32.7359 55.212 33.3166C55.5198 33.8791 55.6737 34.605 55.6737 35.4942C55.6737 36.3652 55.4927 37.2453 55.1306 38.1344C54.7866 39.0055 54.2796 39.7585 53.6097 40.3937C52.9579 41.0106 52.1794 41.4099 51.2741 41.5913C50.1697 41.8272 49.2282 41.9452 48.4497 41.9452C47.9247 41.9452 47.4087 41.918 46.9017 41.8635L46.087 41.8363V42.0541C46.087 42.1266 46.0689 42.1902 46.0327 42.2446C45.9965 42.2809 45.9602 42.3444 45.924 42.4351V48.124C45.924 48.124 45.8697 48.1784 45.7611 48.2873C45.3809 48.2873 44.9554 48.2238 44.4847 48.0968C44.032 47.9879 43.679 47.8337 43.4255 47.6341C43.4255 46.5816 43.3621 45.3113 43.2354 43.8233C43.1268 42.1539 43.0725 40.9018 43.0725 40.067C43.0725 39.7041 43.1087 39.2142 43.1811 38.5972C43.2354 38.2343 43.2626 37.9258 43.2626 37.6717C43.2626 37.3814 43.2264 37.1455 43.1539 36.964C43.0996 36.7644 43.0725 36.6283 43.0725 36.5557C43.0725 36.4831 43.0996 36.3833 43.1539 36.2563C43.2264 36.1293 43.2626 35.9115 43.2626 35.603C43.2626 35.4397 43.2264 35.2673 43.1539 35.0859C43.0815 34.9044 43.0453 34.7864 43.0453 34.732C43.0453 34.5505 43.0815 34.2965 43.1539 33.9699C43.2264 33.6432 43.2626 33.3982 43.2626 33.2349C43.2626 32.999 43.2173 32.8448 43.1268 32.7722C43.0362 32.6815 42.9095 32.627 42.7466 32.6089C42.6017 32.5726 42.5293 32.5182 42.5293 32.4456C42.5293 32.3004 42.5836 32.1734 42.6922 32.0645C42.8009 31.9375 42.9276 31.8649 43.0725 31.8467V30.1863C43.0725 30.1138 43.163 30.014 43.344 29.8869C43.5432 29.7418 43.6699 29.6692 43.7242 29.6692H47.4449L47.7708 29.5059H50.7581C50.9754 29.5784 51.2651 29.7236 51.6272 29.9414C52.1885 30.2862 52.7497 30.5311 53.311 30.6763ZM48.7485 30.1863C48.332 30.1863 47.979 30.2771 47.6893 30.4585C47.4177 30.64 47.1099 30.9394 46.7659 31.3568C46.8746 31.3568 47.0918 31.2933 47.4177 31.1662C47.7436 31.0392 47.9156 30.9848 47.9337 31.0029C47.8613 31.0937 47.7527 31.1935 47.6078 31.3023C47.4811 31.3931 47.3634 31.4566 47.2548 31.4929C47.3815 31.5292 47.5082 31.6018 47.635 31.7106C47.7617 31.8195 47.9156 31.874 48.0967 31.874L48.4226 31.8467L48.0967 31.6562C48.3501 31.5292 48.7122 31.4657 49.183 31.4657L49.8076 31.4929L50.0792 31.1935C50.0611 31.2116 50.052 31.2388 50.052 31.2751C50.052 31.3477 50.1245 31.4022 50.2693 31.4384C50.4141 31.4747 50.5409 31.511 50.6495 31.5473C50.7581 31.5655 50.8396 31.5745 50.8939 31.5745C51.419 31.6471 51.7177 31.7379 51.7901 31.8467L51.6272 32.0101C52.0798 32.373 52.3514 32.5998 52.4419 32.6905C52.5143 32.745 52.5777 32.8357 52.632 32.9627C52.7045 33.0716 52.7678 33.1623 52.8221 33.2349C52.8946 33.2894 53.0032 33.3257 53.148 33.3438L52.7678 33.6704C52.8221 33.7067 52.9398 33.7702 53.1209 33.861C53.32 33.9517 53.4558 34.0697 53.5282 34.2148C53.6007 34.36 53.6369 34.5505 53.6369 34.7864C53.6369 34.9316 53.6278 35.0133 53.6097 35.0314C53.9175 34.8318 54.1619 34.6594 54.343 34.5142C54.5421 34.3509 54.6417 34.1604 54.6417 33.9426C54.6417 33.5434 54.5602 33.3438 54.3973 33.3438C54.343 33.3438 54.2525 33.3801 54.1257 33.4527C53.999 33.5253 53.8994 33.5979 53.827 33.6704L53.7998 33.5616C53.7998 33.5253 53.8541 33.4164 53.9628 33.2349C54.0895 33.0353 54.1529 32.9083 54.1529 32.8539C54.1529 32.8176 54.0714 32.6815 53.9084 32.4456C53.7455 32.2097 53.5554 31.9919 53.3381 31.7923C53.1209 31.5927 52.8946 31.4929 52.6592 31.4929L52.9579 31.1662C52.2518 30.7852 51.591 30.5311 50.9754 30.4041C50.3779 30.2589 49.6356 30.1863 48.7485 30.1863ZM44.2131 32.3367C44.5209 32.3367 44.9554 32.1552 45.5167 31.7923C46.096 31.4112 46.5125 31.0937 46.7659 30.8396C46.44 30.8396 46.096 30.9303 45.7339 31.1118C45.3718 31.2933 44.9282 31.5382 44.4032 31.8467H44.2131C44.3941 31.629 44.6114 31.4384 44.8649 31.2751C45.1183 31.0937 45.3628 30.9303 45.5981 30.7852C45.8335 30.64 45.9965 30.5402 46.087 30.4858V30.268C45.4171 30.268 44.8739 30.2952 44.4575 30.3497C44.0411 30.4041 43.8329 30.5674 43.8329 30.8396H44.3489C44.3489 30.8759 44.3579 30.9031 44.376 30.9213C44.3941 30.9394 44.4032 30.9666 44.4032 31.0029C44.4032 31.0211 44.3127 31.1209 44.1316 31.3023C43.9687 31.4657 43.8329 31.5836 43.7242 31.6562C43.7605 31.9284 43.8057 32.1099 43.86 32.2006C43.9325 32.2913 44.0501 32.3367 44.2131 32.3367ZM50.0792 31.1935L50.1063 31.1662L50.0792 31.1935ZM48.7485 39.0599V39.2504C48.9838 39.0871 49.3278 38.9873 49.7805 38.951C50.2512 38.9147 50.5318 38.8875 50.6223 38.8694C51.2198 38.8331 51.6725 38.579 51.9802 38.1072C52.3061 37.6354 52.5687 37.0003 52.7678 36.2019L52.9579 35.3853C52.9579 35.0586 52.7769 34.5687 52.4148 33.9154C52.0527 33.244 51.7358 32.8357 51.4642 32.6905C51.2108 32.5635 50.6586 32.5 49.8076 32.5L48.4226 32.5272C47.9699 32.5454 47.4901 32.5726 46.9832 32.6089C46.4762 32.627 46.1232 32.6542 45.924 32.6905L45.7611 32.8539V33.3982V34.2148L45.8426 35.7391C45.8969 36.9368 45.9512 37.826 46.0055 38.4066C46.0598 38.9692 46.1413 39.2504 46.2499 39.2504H48.6398L48.7485 39.0599ZM43.9143 32.8539C43.9143 32.9083 43.9325 32.9718 43.9687 33.0444C44.0049 33.0988 44.0501 33.1442 44.1045 33.1805C44.4304 33.0716 44.5933 32.8902 44.5933 32.6361C44.4304 32.6361 44.2765 32.6542 44.1316 32.6905C43.9868 32.7268 43.9143 32.7813 43.9143 32.8539ZM45.0821 32.99C44.8468 32.99 44.5752 33.1351 44.2674 33.4255C43.9596 33.6977 43.8057 33.9608 43.8057 34.2148H44.9192C44.9192 34.1604 44.9373 34.0062 44.9735 33.7521C45.0278 33.4981 45.064 33.244 45.0821 32.99ZM43.9143 35.1947C44.1678 34.9951 44.3308 34.7683 44.4032 34.5142C44.3489 34.4961 44.2855 34.487 44.2131 34.487C44.0863 34.487 43.9958 34.5415 43.9415 34.6503C43.8872 34.7411 43.86 34.8409 43.86 34.9498L43.9143 35.1947ZM45.1093 35.3308C45.1093 34.9679 45.0459 34.6957 44.9192 34.5142C44.7019 34.6776 44.5028 34.9316 44.3217 35.2764C44.1588 35.603 44.0773 35.9024 44.0773 36.1746C44.0773 36.4468 44.1678 36.5829 44.3489 36.5829C44.1497 36.6374 44.0139 36.7553 43.9415 36.9368C43.8872 37.1001 43.86 37.3179 43.86 37.5901C44.0411 37.5901 44.1859 37.5356 44.2946 37.4267C44.4032 37.2997 44.5209 37.1092 44.6476 36.8551C44.7744 36.5285 44.9192 36.3107 45.0821 36.2019L45.1093 35.3308ZM53.7183 35.8208C54.171 35.8208 54.524 35.7845 54.7775 35.7119C55.031 35.6393 55.1577 35.4579 55.1577 35.1675C55.1577 34.9861 55.1215 34.859 55.0491 34.7864C54.9948 34.7139 54.8952 34.6776 54.7503 34.6776C54.4607 34.6776 54.2162 34.8046 54.0171 35.0586C53.8179 35.2945 53.7183 35.5486 53.7183 35.8208ZM54.0171 36.0113C53.8722 36.0113 53.7274 36.0476 53.5826 36.1202C53.4558 36.1746 53.3924 36.2654 53.3924 36.3924C53.8451 36.3924 54.1529 36.2744 54.3158 36.0385L54.0171 36.0113ZM54.4788 37.3723C54.6055 37.3723 54.7232 37.2181 54.8318 36.9096C54.9405 36.5829 54.9948 36.347 54.9948 36.2019H54.7775C54.5602 36.2926 54.2615 36.4378 53.8813 36.6374C53.5011 36.837 53.311 36.9731 53.311 37.0457V37.3723H54.4788ZM44.5933 36.5557C44.539 36.5739 44.4666 36.5829 44.376 36.5829H44.3489C44.4032 36.5648 44.4847 36.5557 44.5933 36.5557ZM45.2994 37.8078C45.2994 37.5901 45.2813 37.4177 45.2451 37.2906C45.227 37.1636 45.1727 37.0184 45.0821 36.8551C44.7925 37.091 44.5209 37.3995 44.2674 37.7806C44.032 38.1435 43.9143 38.4792 43.9143 38.7877C44.3851 38.7877 44.7291 38.7333 44.9464 38.6244C45.1817 38.4974 45.2994 38.2252 45.2994 37.8078ZM52.4691 40.0943C52.632 40.0943 52.8764 39.9582 53.2023 39.686C53.5463 39.3956 53.8451 39.0599 54.0986 38.6788C54.3701 38.2978 54.5059 37.953 54.5059 37.6445C54.0895 37.6445 53.7093 37.7534 53.3653 37.9711C53.0213 38.1889 52.8493 38.4883 52.8493 38.8694H53.0394C53.0394 39.0327 52.6592 39.2141 51.8988 39.4138C51.1564 39.5952 50.3236 39.7585 49.4002 39.9037C48.4769 40.0489 47.8522 40.1215 47.5263 40.1215C47.5263 40.1941 47.5445 40.2939 47.5807 40.4209C47.6169 40.5298 47.6802 40.5842 47.7708 40.5842H48.9386L48.6398 40.2303H48.7485C48.839 40.2485 49.0019 40.2757 49.2373 40.312C49.4727 40.3301 49.708 40.3664 49.9434 40.4209C49.8891 40.439 49.8619 40.4663 49.8619 40.5025C49.8619 40.6114 50.052 40.684 50.4322 40.7203C50.8125 40.7566 50.9935 40.7747 50.9754 40.7747C51.5729 40.7747 51.8716 40.6568 51.8716 40.4209H50.9482C51.0026 40.3664 51.1021 40.3029 51.247 40.2303C51.3918 40.1578 51.5186 40.1033 51.6272 40.067L52.4691 40.0943ZM44.7562 39.0327C44.3941 39.0327 44.1316 39.0962 43.9687 39.2232C43.8057 39.3321 43.7242 39.5771 43.7242 39.9581C43.9777 39.9581 44.204 39.8856 44.4032 39.7404C44.6205 39.5771 44.8468 39.3502 45.0821 39.0599L44.7562 39.0327ZM44.2131 40.4209C44.4666 40.4209 44.9192 40.2576 45.571 39.9309C45.5348 39.8583 45.4895 39.7676 45.4352 39.6587C45.399 39.5499 45.3809 39.4682 45.3809 39.4138H45.2722L44.2131 40.4209ZM45.7611 40.8836C46.0146 40.9925 46.3223 41.056 46.6845 41.0742C47.0647 41.0742 47.3181 41.0742 47.4449 41.0742L46.9289 40.5842L47.2548 40.4209C47.2548 40.2939 47.1461 40.2303 46.9289 40.2303C46.6211 40.2666 46.3495 40.3302 46.1141 40.4209C45.8788 40.4935 45.7611 40.6477 45.7611 40.8836ZM45.408 40.4209C45.2632 40.4572 45.0459 40.5116 44.7562 40.5842C44.4666 40.6386 44.2493 40.7294 44.1045 40.8564C43.9777 40.9834 43.9143 41.174 43.9143 41.428L43.8872 41.6185C43.8872 41.8182 43.9596 41.918 44.1045 41.918L45.408 40.5842V40.4209ZM48.7485 41.0742C48.7122 41.0016 48.5946 40.9562 48.3954 40.9381C48.1962 40.9018 48.0423 40.8836 47.9337 40.8836C48.0242 40.9743 48.1057 41.0379 48.1781 41.0742C48.2506 41.0923 48.3682 41.1014 48.5312 41.1014L48.7485 41.0742ZM45.0821 41.428C44.9554 41.428 44.7834 41.6185 44.5661 41.9996C44.3489 42.3625 44.2312 42.5531 44.2131 42.5712C44.376 42.5712 44.5571 42.5259 44.7562 42.4351C44.9735 42.3444 45.0821 42.2809 45.0821 42.2446V41.428ZM44.6748 42.9251C44.4756 42.9251 44.3217 42.9432 44.2131 42.9795C44.1045 43.0158 44.0501 43.1156 44.0501 43.2789C44.0501 43.3334 44.0682 43.3787 44.1045 43.415C44.4122 43.2699 44.6295 43.1065 44.7562 42.9251H44.6748ZM44.1045 44.1227C44.5209 44.1227 44.8015 44.0592 44.9464 43.9322C45.0912 43.787 45.1636 43.5058 45.1636 43.0884H44.9192L44.1045 43.9594V44.1227ZM45.0821 44.0955C44.9916 44.1318 44.8377 44.1862 44.6205 44.2588C44.4213 44.3133 44.2765 44.3949 44.1859 44.5038C44.1135 44.5945 44.0773 44.7397 44.0773 44.9393L44.1045 45.2932C44.1407 45.2387 44.2946 45.0845 44.5661 44.8304C44.8558 44.5764 45.0278 44.3314 45.0821 44.0955ZM44.5933 45.9464C44.883 45.8376 45.0731 45.6924 45.1636 45.5109C45.2541 45.3113 45.2994 45.0301 45.2994 44.6671C45.064 44.6671 44.8649 44.776 44.7019 44.9938C44.5571 45.1934 44.3941 45.5019 44.2131 45.9192C44.1226 46.137 44.023 46.3457 43.9143 46.5453C43.8057 46.7449 43.688 46.8901 43.5613 46.9808C43.7605 47.1804 43.8781 47.2893 43.9143 47.3074C44.1135 47.3074 44.367 47.1441 44.6748 46.8175C44.9826 46.4908 45.1365 46.2005 45.1365 45.9464H44.5933ZM44.7562 47.3074C44.9192 47.3074 45.0097 47.2621 45.0278 47.1713C45.064 47.0806 45.0821 46.9808 45.0821 46.8719C45.0821 46.7449 45.0821 46.6632 45.0821 46.6269C44.9554 46.6814 44.8739 46.7993 44.8377 46.9808C44.8015 47.1622 44.7743 47.2711 44.7562 47.3074Z" fill="#FF9900"/>
<path d="M74.7471 35.1132C76.0688 36.0024 77.0102 37.0095 77.5715 38.1346C78.1509 39.2596 78.4406 40.6388 78.4406 42.2719L78.4134 43.1702C78.3772 43.2609 78.3048 43.3335 78.1961 43.3879C78.1056 43.4424 78.0332 43.4968 77.9789 43.5513C77.9246 43.6057 77.8974 43.7055 77.8974 43.8507C77.8974 43.9233 77.9065 43.9958 77.9246 44.0684C77.9427 44.1229 77.9879 44.1682 78.0603 44.2045C77.9517 44.2045 77.8612 44.2771 77.7888 44.4223C77.7345 44.5493 77.6439 44.7852 77.5172 45.13C77.3724 45.6381 77.2275 45.9466 77.0827 46.0554C76.0869 46.7994 75.0277 47.3348 73.9052 47.6614C72.7827 47.988 71.5425 48.1513 70.1846 48.1513L68.0662 46.8176C67.7585 46.8176 67.505 46.7178 67.3058 46.5182C67.1067 46.3186 66.9075 46.0192 66.7083 45.6199C66.5816 45.4203 66.4458 45.2207 66.301 45.0211C66.1561 44.8033 66.0022 44.64 65.8393 44.5312C65.5858 43.9142 65.4138 43.2791 65.3233 42.6258C65.2328 41.9544 65.1875 41.2013 65.1875 40.3666L66.2195 37.4813C66.2376 37.445 66.4549 37.2091 66.8713 36.7736C67.3058 36.3381 67.686 35.9661 68.0119 35.6576C68.5008 35.2221 69.1073 34.8592 69.8315 34.5688C70.5557 34.2785 71.2437 34.1333 71.8955 34.1333C72.3662 34.1333 72.846 34.224 73.3349 34.4055C73.8418 34.587 74.3126 34.8229 74.7471 35.1132ZM68.5822 36.4742C68.5822 36.5468 68.5008 36.6375 68.3378 36.7464C68.193 36.8371 68.1206 36.9369 68.1206 37.0458H68.5008C69.0801 37.0458 69.3698 36.9641 69.3698 36.8008L68.881 36.4742C68.881 36.4379 68.8991 36.4016 68.9353 36.3653C68.9715 36.329 69.0077 36.3109 69.0439 36.3109C69.1707 36.3109 69.3246 36.3472 69.5056 36.4197C69.7048 36.4742 69.8406 36.5014 69.913 36.5014C70.0578 36.5014 70.1936 36.456 70.3203 36.3653C70.4471 36.2746 70.5829 36.1475 70.7277 35.9842C70.945 35.7302 71.1622 35.5669 71.3795 35.4943H71.1351H70.945C70.8363 35.4943 70.7549 35.4852 70.7006 35.4671C70.6462 35.4308 70.5919 35.3763 70.5376 35.3037C70.3747 35.3037 70.2027 35.3491 70.0216 35.4398C69.8587 35.5124 69.6595 35.6394 69.4241 35.8209C69.062 36.075 68.7633 36.2383 68.5279 36.3109C68.5641 36.3653 68.5822 36.4197 68.5822 36.4742ZM72.9547 35.3037C72.9003 35.3037 72.7736 35.3945 72.5745 35.5759C72.3934 35.7574 72.2757 35.8935 72.2214 35.9842L72.9003 36.1203C73.6246 36.2473 74.0681 36.3109 74.2311 36.3109C74.3216 36.3109 74.4031 36.3018 74.4755 36.2836C74.5479 36.2655 74.6385 36.2201 74.7471 36.1475C74.566 35.9116 74.2854 35.712 73.9052 35.5487C73.5431 35.3854 73.2262 35.3037 72.9547 35.3037ZM74.5027 36.4742C74.5027 36.6012 74.5841 36.701 74.7471 36.7736C74.91 36.828 75.073 36.8552 75.2359 36.8552V36.4742H74.5027ZM72.3029 36.7736C71.6873 36.7736 71.1713 36.8825 70.7549 37.1002C70.3385 37.318 69.8768 37.6718 69.3698 38.1618C69.2612 38.2525 69.1888 38.4431 69.1526 38.7334C69.1345 38.8967 69.1073 39.0237 69.0711 39.1145C69.0349 39.2052 68.9715 39.2778 68.881 39.3322C68.8086 39.4955 68.709 39.8585 68.5822 40.421C68.4555 40.9654 68.3831 41.3283 68.365 41.5098C68.3469 41.6187 68.3378 41.7638 68.3378 41.9453C68.3378 43.4696 69.1254 44.6128 70.7006 45.375L71.977 45.4294C73.0633 45.4294 73.8961 45.257 74.4755 44.9122C75.073 44.5674 75.4804 44.0593 75.6976 43.3879C75.933 42.7165 76.0507 41.8364 76.0507 40.7476C76.0507 40.4573 75.9692 40.0309 75.8062 39.4683C75.6614 38.8876 75.5166 38.4521 75.3717 38.1618C74.8829 38.0529 74.4393 37.6628 74.041 36.9913C73.8418 36.9913 73.5612 36.9551 73.1991 36.8825C72.8008 36.8099 72.502 36.7736 72.3029 36.7736ZM75.6433 36.7736C75.5528 36.7736 75.4804 36.819 75.426 36.9097C75.3898 36.9823 75.3717 37.0639 75.3717 37.1547C75.3717 37.4269 75.4894 37.5993 75.7248 37.6718C75.761 37.6537 75.8425 37.6083 75.9692 37.5357C76.114 37.4632 76.2046 37.3906 76.2408 37.318C76.1684 37.2454 76.0507 37.1365 75.8877 36.9913C75.7429 36.8462 75.6614 36.7736 75.6433 36.7736ZM67.7675 37.1547C67.7132 37.1547 67.6046 37.2273 67.4416 37.3724C67.2968 37.5176 67.2153 37.6355 67.1972 37.7263C67.1972 37.944 67.3511 38.0529 67.6589 38.0529C67.7675 38.0529 67.8942 38.0529 68.0391 38.0529C68.202 38.0348 68.3107 38.0166 68.365 37.9985L68.5279 37.318L67.7675 37.1547ZM75.8877 37.8079V38.0529C76.1955 38.0529 76.3675 37.9712 76.4037 37.8079H75.8877ZM66.9528 38.1618C66.7717 38.1618 66.645 38.2797 66.5726 38.5156C66.5001 38.7515 66.4639 38.9784 66.4639 39.1961C66.7717 39.1961 67.0795 39.1326 67.3873 39.0056C67.6951 38.8786 67.9033 38.7062 68.0119 38.4884C67.7222 38.2707 67.3692 38.1618 66.9528 38.1618ZM76.9469 38.7606C76.9469 38.5973 76.9197 38.4612 76.8654 38.3523C76.8111 38.2253 76.7206 38.1618 76.5938 38.1618C76.3404 38.1618 76.2136 38.2434 76.2136 38.4068C76.2136 38.6427 76.458 38.7606 76.9469 38.7606ZM67.4416 39.5228C67.6589 39.5228 67.8128 39.4865 67.9033 39.4139C68.0119 39.3413 68.1025 39.2052 68.1749 39.0056L68.0934 38.9784C67.9848 38.9784 67.849 39.0419 67.686 39.1689C67.5231 39.2959 67.4416 39.4139 67.4416 39.5228ZM76.5667 39.3867C76.6572 39.3867 76.7387 39.3504 76.8111 39.2778C76.9016 39.1871 76.9469 39.0963 76.9469 39.0056H76.5667V39.3867ZM77.5715 40.176C77.5715 40.0672 77.5263 39.9311 77.4357 39.7677C77.3633 39.5863 77.2728 39.4955 77.1641 39.4955C76.8745 39.4955 76.7296 39.6044 76.7296 39.8222C76.7296 39.9129 76.7568 40.0218 76.8111 40.1488C76.8835 40.2577 76.9197 40.3393 76.9197 40.3938V40.421C76.9197 40.4754 76.8926 40.5299 76.8382 40.5843C76.802 40.6388 76.7658 40.666 76.7296 40.666L76.8382 40.6932C76.8745 40.6932 76.9469 40.6478 77.0555 40.5571C77.1641 40.4482 77.2366 40.3847 77.2728 40.3666C77.3452 40.3666 77.4086 40.3484 77.4629 40.3121C77.5353 40.2577 77.5715 40.2123 77.5715 40.176ZM66.7627 39.8222C66.473 39.8222 66.2557 39.8948 66.1109 40.0399C65.9841 40.1851 65.9208 40.4119 65.9208 40.7204C66.1561 40.7204 66.3824 40.6569 66.5997 40.5299C66.817 40.4029 67.0614 40.2305 67.333 40.0127C67.333 39.8857 67.1972 39.8222 66.9256 39.8222C66.8894 39.8222 66.8622 39.8313 66.8441 39.8494C66.826 39.8494 66.8079 39.8494 66.7898 39.8494C66.7717 39.8494 66.7627 39.8494 66.7627 39.8494C66.7627 39.8313 66.7627 39.8222 66.7627 39.8222ZM67.5231 41.1559C67.6317 41.1559 67.686 41.0017 67.686 40.6932C67.686 40.3847 67.686 40.2123 67.686 40.176C67.6136 40.2486 67.505 40.3212 67.3601 40.3938C67.2153 40.4664 67.1157 40.5208 67.0614 40.5571C66.5726 40.7749 66.2919 40.9745 66.2195 41.1559H67.5231ZM77.653 41.7275C77.653 41.0198 77.5715 40.666 77.4086 40.666L76.7296 41.3737C76.802 41.5007 76.9288 41.5914 77.1098 41.6459C77.2909 41.7003 77.4719 41.7275 77.653 41.7275ZM65.9479 42.5441C66.1471 42.5441 66.4458 42.4534 66.8441 42.2719C67.2424 42.0723 67.4416 41.8818 67.4416 41.7003H66.2195C66.0385 41.7003 65.9479 41.9816 65.9479 42.5441ZM76.7025 43.2246C77.3905 43.2246 77.7345 42.9887 77.7345 42.5169C77.7345 42.3354 77.662 42.2266 77.5172 42.1903C77.3905 42.1358 77.2003 42.1086 76.9469 42.1086C76.9469 42.2901 76.9016 42.4715 76.8111 42.653C76.7387 42.8345 76.7025 43.025 76.7025 43.2246ZM67.7675 42.1358C67.6951 42.1358 67.5231 42.1993 67.2515 42.3264C66.998 42.4534 66.817 42.5713 66.7083 42.6802L67.5231 42.8708C67.5955 42.8708 67.6498 42.7982 67.686 42.653C67.7403 42.4897 67.7675 42.3173 67.7675 42.1358ZM66.5182 44.0412C66.5545 44.0231 66.645 43.9686 66.7898 43.8779C66.9528 43.769 67.0795 43.6601 67.17 43.5513C67.2787 43.4242 67.333 43.2972 67.333 43.1702L67.0342 43.143C66.9437 43.143 66.7989 43.1611 66.5997 43.1974C66.4187 43.2155 66.3281 43.27 66.3281 43.3607L66.5182 44.0412ZM66.8441 44.5312C67.17 44.4767 67.5593 44.3134 68.0119 44.0412C68.0119 43.896 67.9848 43.769 67.9305 43.6601C67.8942 43.5512 67.8399 43.4968 67.7675 43.4968L67.686 43.524L66.8441 44.3678V44.5312ZM76.6753 44.2317C76.8926 44.2317 77.0736 44.1773 77.2185 44.0684C77.3633 43.9414 77.4357 43.7599 77.4357 43.524H76.6753C76.6753 43.6511 76.63 43.7781 76.5395 43.9051C76.4671 44.0321 76.3675 44.1319 76.2408 44.2045L76.6753 44.2317ZM67.1972 45.0483C67.4326 45.5201 67.6227 45.756 67.7675 45.756C67.9667 45.756 68.1749 45.6834 68.3921 45.5383C68.6094 45.375 68.718 45.1935 68.718 44.9939C68.4283 44.9939 68.2473 45.0665 68.1749 45.2116V44.3678L67.1972 44.8578V44.9394V45.0483ZM75.4803 45.4294C75.8062 45.4294 76.1231 45.384 76.4309 45.2933C76.7568 45.1844 76.9197 44.9848 76.9197 44.6945C76.9197 44.5856 76.7658 44.5312 76.458 44.5312C76.2227 44.5312 75.9963 44.6219 75.7791 44.8033C75.5799 44.9848 75.4803 45.1935 75.4803 45.4294ZM68.5279 46.3821C68.6547 46.3821 68.7633 46.3639 68.8538 46.3276C68.9443 46.2732 69.0349 46.1825 69.1254 46.0554V46.5998C69.3427 46.5998 69.5509 46.5545 69.75 46.4637C69.9492 46.373 70.0488 46.2369 70.0488 46.0554C70.0488 45.9284 69.922 45.8105 69.6686 45.7016C69.4332 45.5927 69.2521 45.5383 69.1254 45.5383H69.0439L68.0119 45.8649C68.0119 46.0101 68.0572 46.1371 68.1477 46.246C68.2563 46.3367 68.3831 46.3821 68.5279 46.3821ZM75.8877 45.6744C75.8153 45.6744 75.6524 45.6744 75.3989 45.6744C75.1635 45.6744 74.9462 45.7107 74.7471 45.7832C74.566 45.8377 74.394 45.9284 74.2311 46.0554C74.0138 46.2188 73.8961 46.3004 73.878 46.3004H71.7054L71.2166 46.8448C71.4519 46.9537 71.6692 47.0263 71.8683 47.0626C72.0675 47.0807 72.3119 47.0898 72.6016 47.0898C72.9456 47.0898 73.362 46.9991 73.8509 46.8176C74.3578 46.6361 74.8195 46.4456 75.2359 46.246C75.6705 46.0282 75.8877 45.9012 75.8877 45.8649V45.6744ZM76.4037 46.2188H76.3494C76.2046 46.2188 76.105 46.2732 76.0507 46.3821L76.4037 46.2188ZM69.6414 47.0081C70.1483 47.0081 70.4018 46.7813 70.4018 46.3276C70.2027 46.3276 70.0216 46.4002 69.8587 46.5454C69.7138 46.6724 69.6414 46.8267 69.6414 47.0081ZM70.8907 46.5726C71.0717 46.5726 71.2347 46.5091 71.3795 46.3821L71.1351 46.3549H71.0265C70.8454 46.3549 70.7368 46.4184 70.7006 46.5454L70.8907 46.5726ZM74.557 47.0898C74.6656 47.0898 74.738 47.0807 74.7742 47.0626C74.8286 47.0263 74.8648 46.9537 74.8829 46.8448L74.3669 47.0626L74.557 47.0898ZM73.2262 47.5525L73.0633 47.5253C72.9547 47.5253 72.8732 47.5434 72.8189 47.5797C72.7646 47.5979 72.7283 47.6523 72.7102 47.7431L73.2262 47.5525Z" fill="#FD5757"/>
<path d="M122.08 41.6732C122.08 40.7658 122.243 39.7678 122.569 38.679C122.895 37.5902 123.293 36.6557 123.764 35.8754L123.818 35.9026C123.927 35.9026 124.153 35.7847 124.497 35.5488C124.823 35.331 125.031 35.2221 125.122 35.2221C125.249 35.1858 125.575 35.1042 126.1 34.9772C126.643 34.8501 127.15 34.7866 127.621 34.7866V35.0316C127.874 34.9409 128.1 34.8864 128.299 34.8683C128.517 34.8501 128.734 34.8411 128.951 34.8411C129.513 34.8411 130.056 34.8955 130.581 35.0044C131.124 35.1133 131.395 35.3038 131.395 35.576C131.848 35.576 132.201 35.7393 132.455 36.0659C132.726 36.3744 132.989 36.8009 133.242 37.3453C133.333 37.5449 133.423 37.7263 133.514 37.8896C133.622 38.053 133.722 38.1618 133.813 38.2163V40.5572L133.324 40.911L133.459 41.0743C132.971 41.4554 131.902 41.6459 130.255 41.6459H128.843C127.937 41.6459 127.34 41.6369 127.05 41.6187C126.779 41.6006 126.235 41.528 125.421 41.401C125.403 41.2921 125.348 41.2376 125.258 41.2376C125.222 41.2376 125.176 41.2467 125.122 41.2649C125.068 41.283 125.013 41.2921 124.959 41.2921C124.959 41.8183 125.022 42.399 125.149 43.0341C125.294 43.6693 125.502 44.132 125.774 44.4223C125.919 44.5856 126.317 44.7853 126.969 45.0212C127.295 45.13 127.512 45.2117 127.621 45.2661C127.946 45.502 128.227 45.62 128.462 45.62C128.879 45.62 129.331 45.5656 129.82 45.4567C130.309 45.3478 130.59 45.2843 130.662 45.2661C131.531 45.0302 132.228 44.9123 132.753 44.9123C132.989 44.9123 133.143 45.0212 133.215 45.2389C133.306 45.4385 133.351 45.7016 133.351 46.0283C133.351 46.3731 133.324 46.5908 133.269 46.6816C133.215 46.7723 133.115 46.8358 132.971 46.8721C132.826 46.8902 132.708 46.9628 132.618 47.0898C132.509 47.1261 131.45 47.3076 129.44 47.6342C128.68 47.6342 128.001 47.6161 127.403 47.5798C126.824 47.5435 126.281 47.4437 125.774 47.2804C125.213 47.0989 124.642 46.6725 124.063 46.0011C123.502 45.3297 123.031 44.5856 122.651 43.7691C122.27 42.9525 122.08 42.2538 122.08 41.6732ZM130.662 36.4742C130.662 36.6194 130.825 36.8372 131.151 37.1275C131.477 37.4178 131.694 37.563 131.803 37.563C131.911 37.563 132.056 37.5267 132.237 37.4541C132.418 37.3815 132.509 37.2999 132.509 37.2092C132.509 37.1003 132.473 36.946 132.4 36.7464C132.328 36.5287 132.292 36.4016 132.292 36.3654C132.292 36.4198 132.246 36.4652 132.156 36.5014C132.083 36.5196 132.02 36.5287 131.966 36.5287C131.821 36.5105 131.649 36.4379 131.45 36.3109C131.269 36.1839 131.178 36.0387 131.178 35.8754C130.653 35.8754 130.391 35.7484 130.391 35.4943C130.354 35.4943 130.282 35.5578 130.173 35.6849C130.065 35.8119 129.866 35.8754 129.576 35.8754C129.485 35.8754 129.395 35.8391 129.304 35.7665C129.214 35.6939 129.096 35.6576 128.951 35.6576L128.598 35.6849C128.634 35.703 128.716 35.821 128.843 36.0387C128.987 36.2565 129.105 36.3744 129.196 36.3926C129.232 36.3926 129.295 36.3654 129.386 36.3109C129.494 36.2383 129.585 36.202 129.657 36.202C129.73 36.2202 129.866 36.2746 130.065 36.3654C130.264 36.4379 130.463 36.4742 130.662 36.4742ZM123.357 42.1087C123.52 42.1087 123.683 42.0724 123.846 41.9998C124.027 41.9091 124.117 41.7911 124.117 41.6459C124.117 41.6096 124.09 41.5552 124.036 41.4826C123.981 41.3919 123.954 41.3102 123.954 41.2376C123.99 41.1106 124.054 40.9564 124.144 40.7749C124.235 40.5753 124.28 40.3757 124.28 40.1761C124.28 40.0309 124.244 39.9311 124.171 39.8767C124.117 39.8041 124.027 39.7406 123.9 39.6861C123.791 39.6317 123.737 39.5682 123.737 39.4956C123.737 39.423 123.791 39.2597 123.9 39.0056C124.027 38.7334 124.09 38.552 124.09 38.4613C124.09 38.2798 124.262 37.9804 124.606 37.563C124.805 37.2908 124.959 37.0731 125.068 36.9097C125.176 36.7464 125.231 36.5831 125.231 36.4198C125.303 36.4198 125.403 36.4379 125.529 36.4742C125.656 36.5105 125.783 36.5287 125.91 36.5287C125.964 36.5287 126 36.4833 126.018 36.3926C126.036 36.2837 126.063 36.2202 126.1 36.202C126.245 36.1476 126.534 36.1204 126.969 36.1204C127.385 36.1022 127.702 36.0841 127.919 36.0659C128.137 36.0296 128.254 35.9661 128.272 35.8754C128.073 35.7847 127.883 35.7302 127.702 35.7121C127.521 35.6758 127.286 35.6576 126.996 35.6576C125.765 35.6576 124.823 36.075 124.171 36.9097C123.538 37.7445 123.221 38.797 123.221 40.0672H124.09V40.2305L123.085 41.2376V41.7548L123.411 41.5643L123.085 42.0815L123.357 42.1087ZM124.932 38.924C125.022 39.1055 125.547 39.2325 126.507 39.3051C127.485 39.3595 128.299 39.3867 128.951 39.3867C129.277 39.3867 129.712 39.3504 130.255 39.2778C130.762 39.2053 131.178 39.169 131.504 39.169C131.504 39.0782 131.441 38.8968 131.314 38.6246C131.187 38.3342 131.088 38.1891 131.015 38.1891L130.961 38.2163C130.834 37.8352 130.427 37.5176 129.739 37.2636C129.069 37.0095 128.499 36.8825 128.028 36.8825C127.304 36.8825 126.67 37.0549 126.127 37.3997C125.584 37.7445 125.185 38.2526 124.932 38.924ZM132.509 39.4956C132.509 39.7678 132.418 39.9493 132.237 40.04C132.056 40.1126 131.794 40.1489 131.45 40.1489C131.16 40.167 130.943 40.2033 130.798 40.2577C130.653 40.3122 130.581 40.4301 130.581 40.6116C131.178 40.6116 131.649 40.5934 131.993 40.5572C132.337 40.5209 132.545 40.412 132.618 40.2305C132.708 40.3757 132.835 40.4483 132.998 40.4483C132.998 40.3031 132.962 40.1489 132.889 39.9855C132.835 39.8041 132.808 39.668 132.808 39.5773C132.808 39.5047 132.844 39.4412 132.916 39.3867C133.007 39.3323 133.07 39.2688 133.106 39.1962C133.161 39.1236 133.188 38.9784 133.188 38.7607C133.188 38.053 132.98 37.6991 132.563 37.6991C132.382 37.6991 132.265 37.7535 132.21 37.8624C132.174 37.9532 132.156 38.1346 132.156 38.4068C132.355 39.0056 132.473 39.3323 132.509 39.3867V39.4956ZM125.149 39.8222C124.986 39.8222 124.841 39.8857 124.715 40.0128C124.606 40.1398 124.552 40.285 124.552 40.4483C124.787 40.4483 124.941 40.4029 125.013 40.3122C125.104 40.2215 125.149 40.0581 125.149 39.8222ZM125.665 40.0672C125.629 40.0672 125.52 40.1489 125.339 40.3122C125.176 40.4755 125.041 40.6207 124.932 40.7477L125.502 40.6388C125.538 40.6388 125.656 40.6207 125.855 40.5844C126.073 40.5299 126.326 40.412 126.616 40.2305C126.561 40.2124 126.281 40.1579 125.774 40.0672H125.665ZM126.616 40.5572C126.978 40.6842 127.295 40.7477 127.566 40.7477C127.729 40.7477 127.865 40.6933 127.974 40.5844C128.1 40.4755 128.164 40.3394 128.164 40.1761C127.258 40.1761 126.742 40.3031 126.616 40.5572ZM129.196 40.3938C128.942 40.3938 128.689 40.4301 128.435 40.5027C128.2 40.5572 128.082 40.666 128.082 40.8294L128.109 40.911C128.146 40.911 128.462 40.8929 129.06 40.8566C129.675 40.8021 130.029 40.6479 130.119 40.3938H129.359H129.196ZM123.981 42.3536C123.637 42.3536 123.42 42.4081 123.33 42.517C123.239 42.6077 123.194 42.8345 123.194 43.1975C123.411 43.1975 123.592 43.1158 123.737 42.9525C123.9 42.771 123.981 42.5714 123.981 42.3536ZM124.09 42.7347C124.054 42.7892 123.954 42.9343 123.791 43.1702C123.646 43.388 123.574 43.6057 123.574 43.8235C124.099 43.8235 124.443 43.7509 124.606 43.6057C124.552 43.4787 124.461 43.3335 124.334 43.1702C124.208 42.9888 124.126 42.8436 124.09 42.7347ZM123.764 44.259C123.855 44.3135 123.927 44.4223 123.981 44.5856C124.036 44.7308 124.072 44.8488 124.09 44.9395C124.506 44.7217 124.715 44.377 124.715 43.9052C124.208 43.9052 123.891 44.0231 123.764 44.259ZM125.122 45.7833C125.339 45.4567 125.448 45.248 125.448 45.1573L125.421 45.0756L124.443 44.9395L124.253 45.0756L125.122 45.7833ZM125.421 45.9466C125.439 45.9829 125.466 46.0192 125.502 46.0555C125.538 46.0737 125.575 46.0918 125.611 46.1099C125.774 46.0736 125.955 45.992 126.154 45.865C126.353 45.7379 126.453 45.6472 126.453 45.5928C126.453 45.502 126.417 45.4295 126.344 45.375C126.29 45.3024 126.245 45.2661 126.208 45.2661C126.045 45.2661 125.873 45.3478 125.692 45.5111C125.511 45.6563 125.421 45.8015 125.421 45.9466ZM126.1 46.4366C126.498 46.5273 126.724 46.5908 126.779 46.6271C126.869 46.7178 126.923 46.7632 126.942 46.7632C127.213 46.7632 127.449 46.6816 127.648 46.5182C127.865 46.3368 127.974 46.119 127.974 45.865C127.286 45.865 126.942 45.9466 126.942 46.1099C126.942 46.0555 126.905 45.9829 126.833 45.8922C126.779 45.8015 126.733 45.7561 126.697 45.7561C126.661 45.7561 126.543 45.8468 126.344 46.0283C126.163 46.1916 126.073 46.3005 126.073 46.3549L126.1 46.4366ZM127.946 46.6271C128.037 46.7178 128.091 46.7632 128.109 46.7632C128.417 46.7632 128.779 46.7269 129.196 46.6543C129.612 46.5817 129.875 46.5364 129.983 46.5182C130.744 46.3731 131.242 46.3005 131.477 46.3005L131.803 46.4366C132.02 46.4366 132.219 46.3912 132.4 46.3005C132.581 46.2097 132.672 46.0646 132.672 45.865C132.31 45.865 131.821 45.9376 131.205 46.0827C131.115 46.1009 130.961 46.1372 130.744 46.1916C130.526 46.246 130.318 46.2823 130.119 46.3005C129.757 46.3005 129.368 46.3186 128.951 46.3549C128.553 46.3731 128.272 46.4003 128.109 46.4366L127.946 46.6271Z" fill="#8000FF"/>
<path d="M149.133 46.001C149.495 46.128 149.676 46.246 149.676 46.3548C149.676 46.4637 149.531 46.872 149.242 47.5797C149.079 47.9064 148.997 48.0969 148.997 48.1513L148.644 48.2874V48.0697C148.427 48.0697 148.228 48.0788 148.047 48.0969C147.866 48.115 147.694 48.1241 147.531 48.1241C147.277 48.1241 147.078 48.0697 146.933 47.9608C146.806 47.8701 146.743 47.6705 146.743 47.362C146.272 47.362 145.919 47.1896 145.684 46.8448C145.449 46.5 145.204 45.9828 144.951 45.2933C144.824 43.6601 144.733 41.9907 144.679 40.2849C144.643 38.561 144.625 36.5377 144.625 34.2149V32.4729C144.625 30.8942 144.688 29.5695 144.815 28.4988C145.123 28.3355 145.512 28.2267 145.983 28.1722C146.055 28.1541 146.218 28.1268 146.471 28.0906C146.725 28.0361 146.951 27.9545 147.15 27.8456L147.232 27.8184C147.395 27.8184 147.476 27.9182 147.476 28.1178C147.476 29.5695 147.422 31.7652 147.313 34.7049C147.241 36.1385 147.187 37.5992 147.15 39.0872C147.15 39.4865 147.114 40.0308 147.042 40.7204C147.024 40.8656 147.006 41.0561 146.987 41.292C146.969 41.5279 146.96 41.8092 146.96 42.1358C146.96 43.3153 147.105 44.2589 147.395 44.9667C147.685 45.6562 148.264 46.001 149.133 46.001ZM146.499 29.0432C146.028 29.0432 145.72 29.1612 145.575 29.3971C145.43 29.6148 145.358 29.9868 145.358 30.5131H145.738C145.738 30.5494 145.747 30.5766 145.765 30.5947C145.783 30.6129 145.793 30.631 145.793 30.6492C145.793 30.6855 145.747 30.7308 145.657 30.7853C145.584 30.8216 145.521 30.8397 145.467 30.8397V31.8468C145.521 31.7743 145.63 31.6291 145.793 31.4113C145.974 31.1754 146.091 31.0484 146.146 31.0303C146.127 31.0847 146.091 31.2027 146.037 31.3841C145.983 31.5474 145.901 31.7017 145.793 31.8468C145.811 31.8468 145.847 31.8559 145.901 31.8741C145.956 31.8741 146.019 31.8741 146.091 31.8741C146.363 31.8741 146.499 31.8196 146.499 31.7107V29.0432ZM145.467 37.4268C145.521 37.5176 145.693 37.5629 145.983 37.5629C145.928 37.6355 145.856 37.699 145.765 37.7535C145.675 37.7898 145.602 37.8351 145.548 37.8896C145.494 37.944 145.467 38.0257 145.467 38.1346C145.467 38.2797 145.503 38.4249 145.575 38.5701C145.648 38.7152 145.684 38.8876 145.684 39.0872H146.309V38.2162H145.983C146.2 37.9259 146.309 37.5176 146.309 36.9913C146.309 36.8825 146.281 36.7373 146.227 36.5558C146.173 36.3744 146.146 36.2292 146.146 36.1203L146.309 35.4398C146.435 35.0225 146.499 34.6051 146.499 34.1877C146.481 34.1333 146.453 34.0788 146.417 34.0244C146.381 33.9518 146.345 33.8974 146.309 33.8611C146.309 34.1151 146.2 34.2422 145.983 34.2422L145.793 34.1877C145.919 34.1333 146.001 34.0516 146.037 33.9427C146.073 33.8339 146.091 33.6978 146.091 33.5345H146.499V32.5273C146.39 32.6544 146.236 32.8086 146.037 32.9901C145.856 33.1534 145.747 33.235 145.711 33.235L145.63 33.2078C145.974 32.8268 146.2 32.491 146.309 32.2007C146.109 32.2007 145.892 32.2279 145.657 32.2824C145.421 32.3187 145.304 32.4185 145.304 32.5818C145.304 32.9991 145.358 33.2895 145.467 33.4528C145.575 33.6161 145.63 33.7068 145.63 33.725C145.63 33.7613 145.575 33.9065 145.467 34.1605C145.358 34.3964 145.304 34.5779 145.304 34.7049C145.34 34.6868 145.385 34.6595 145.439 34.6232C145.512 34.5688 145.575 34.5416 145.63 34.5416C145.666 34.5416 145.702 34.5688 145.738 34.6232C145.774 34.6595 145.793 34.6868 145.793 34.7049C145.738 34.7593 145.675 34.8501 145.602 34.9771C145.53 35.1041 145.485 35.2039 145.467 35.2765C145.467 35.3854 145.512 35.458 145.602 35.4943C145.711 35.5124 145.774 35.5306 145.793 35.5487C145.593 35.6031 145.467 35.7483 145.412 35.9842C145.376 36.2201 145.358 36.4832 145.358 36.7736C145.503 36.7736 145.621 36.7373 145.711 36.6647C145.802 36.574 145.865 36.5286 145.901 36.5286L145.983 36.5558C145.928 36.701 145.838 36.8643 145.711 37.0458C145.602 37.2272 145.521 37.3543 145.467 37.4268ZM146.336 39.3867C146.082 39.3867 145.901 39.4592 145.793 39.6044C145.684 39.7496 145.63 39.9673 145.63 40.2577C145.666 40.2214 145.756 40.1579 145.901 40.0671C146.064 39.9764 146.173 39.8766 146.227 39.7677C146.299 39.6588 146.336 39.5318 146.336 39.3867ZM146.146 45.9738C146.236 45.9738 146.345 45.7832 146.471 45.4022C146.598 45.0211 146.662 44.758 146.662 44.6128C146.662 44.4313 146.634 44.3134 146.58 44.2589C146.544 44.2045 146.453 44.1773 146.309 44.1773V41.4281L146.146 41.2648C146.29 41.2648 146.363 40.9109 146.363 40.2032C146.182 40.2032 146.01 40.303 145.847 40.5027C145.684 40.6841 145.602 40.8747 145.602 41.0743C145.602 41.0924 145.63 41.1287 145.684 41.1831C145.756 41.2194 145.793 41.2467 145.793 41.2648L145.63 41.4281V42.5986C145.756 42.6348 145.82 42.7528 145.82 42.9524C145.82 43.0794 145.793 43.279 145.738 43.5512C145.666 43.7327 145.63 43.9323 145.63 44.1501C145.63 44.3497 145.72 44.5402 145.901 44.7217C146.082 44.9031 146.173 45.0574 146.173 45.1844C146.173 45.2388 146.118 45.3387 146.01 45.4838C145.901 45.6108 145.829 45.7197 145.793 45.8105C145.811 45.8105 145.865 45.8377 145.955 45.8921C146.046 45.9466 146.109 45.9738 146.146 45.9738ZM148.318 47.1442C148.336 47.1261 148.373 47.0898 148.427 47.0353C148.499 46.9809 148.536 46.9174 148.536 46.8448C148.536 46.8085 148.391 46.7178 148.101 46.5726C147.811 46.4274 147.603 46.3276 147.476 46.2732C147.422 46.2732 147.331 46.3095 147.205 46.3821C147.078 46.4365 146.942 46.4637 146.797 46.4637C146.852 46.4456 146.915 46.3911 146.987 46.3004C147.078 46.2097 147.132 46.1552 147.15 46.1371C147.15 46.0101 147.114 45.883 147.042 45.756C146.987 45.629 146.906 45.5383 146.797 45.4838C146.743 45.4838 146.653 45.5927 146.526 45.8105C146.417 46.0101 146.345 46.1643 146.309 46.2732C146.309 46.6543 146.535 46.9537 146.987 47.1714C147.44 47.3892 147.857 47.4981 148.237 47.4981C148.345 47.4981 148.436 47.4255 148.508 47.2803L148.318 47.1442Z" fill="white"/>
<path d="M169.856 45.1027C169.856 45.2116 169.91 45.2932 170.019 45.3477C170.127 45.4021 170.317 45.4656 170.589 45.5382C170.969 45.6471 171.25 45.765 171.431 45.8921C171.612 46.0009 171.702 46.1733 171.702 46.4092C171.702 47.1895 171.476 47.7067 171.024 47.9607C170.462 47.7793 170.073 47.6704 169.856 47.6341C169.638 47.5978 169.231 47.3619 168.634 46.9264C168.326 46.7086 168.154 46.5998 168.118 46.5998C167.973 46.5998 167.765 46.6905 167.493 46.872C167.24 47.0534 167.077 47.1441 167.004 47.1441C166.57 47.3438 166.18 47.498 165.836 47.6069C165.492 47.7158 165.13 47.7702 164.75 47.7702C164.044 47.7702 163.329 47.625 162.605 47.3347C161.88 47.0443 161.274 46.6088 160.785 46.0281C160.296 45.4293 160.052 44.6944 160.052 43.8234C160.052 43.5875 160.115 43.2155 160.242 42.7074C160.387 42.1811 160.513 41.8 160.622 41.5641C160.966 41.0742 161.464 40.7113 162.116 40.4754C162.768 40.2395 163.618 40.0308 164.669 39.8493C165.501 39.686 166.099 39.5408 166.461 39.4138C166.823 39.2686 167.004 39.06 167.004 38.7878C167.004 38.2434 166.823 37.7897 166.461 37.4268C166.117 37.0457 165.628 36.8552 164.995 36.8552C164.741 36.8552 164.497 36.8915 164.261 36.964C164.026 37.0366 163.718 37.1546 163.338 37.3179C162.795 37.572 162.396 37.699 162.143 37.699C161.672 37.699 161.437 37.2181 161.437 36.2563C161.437 35.6031 161.699 35.1766 162.224 34.977C162.749 34.7593 163.428 34.6504 164.261 34.6504C164.424 34.6504 164.632 34.6685 164.886 34.7048C165.157 34.7411 165.357 34.7683 165.483 34.7865C165.972 34.8772 166.37 34.9226 166.678 34.9226L167.303 34.8954C167.756 34.8954 167.982 35.0678 167.982 35.4125C168.199 35.4125 168.362 35.4488 168.471 35.5214C168.579 35.5759 168.634 35.7029 168.634 35.9025C169.141 35.9025 169.503 36.3199 169.72 37.1546C169.937 37.9893 170.046 38.7696 170.046 39.4955C170.046 39.9854 169.973 40.6841 169.829 41.5914C169.684 42.4987 169.611 43.1701 169.611 43.6056C169.611 43.7145 169.629 43.8778 169.666 44.0956C169.702 44.2952 169.72 44.4494 169.72 44.5583L169.693 44.8033L169.856 45.1027ZM164.832 35.848C165.049 35.848 165.284 35.8843 165.538 35.9569C165.773 36.0477 166.036 36.093 166.325 36.093C166.325 35.6757 166.226 35.467 166.026 35.467C165.954 35.467 165.873 35.4851 165.782 35.5214C165.71 35.5396 165.628 35.5486 165.538 35.5486L164.832 35.5214C164.234 35.5214 163.772 35.5486 163.446 35.6031C163.121 35.6394 162.686 35.7482 162.143 35.9297C162.143 36.0023 162.161 36.1112 162.197 36.2563C162.252 36.4015 162.297 36.4922 162.333 36.5285C162.532 36.5285 162.849 36.465 163.284 36.338C163.736 36.1928 164.026 36.0295 164.153 35.848L164.424 36.0658C164.442 36.0658 164.497 36.0295 164.587 35.9569C164.678 35.8843 164.759 35.848 164.832 35.848ZM166.76 36.5558C166.941 36.5558 167.167 36.5195 167.439 36.4469C167.71 36.3561 167.846 36.2473 167.846 36.1202C167.846 35.9388 167.602 35.848 167.113 35.848C166.95 35.848 166.805 35.9206 166.678 36.0658C166.552 36.1928 166.488 36.3471 166.488 36.5285L166.76 36.5558ZM167.52 37.2635C167.52 37.3179 167.556 37.3814 167.629 37.454C167.701 37.5266 167.783 37.5629 167.873 37.5629C168.127 37.5629 168.299 37.5266 168.389 37.454C168.498 37.3814 168.552 37.2544 168.552 37.0729C168.552 36.9459 168.498 36.8007 168.389 36.6374C168.299 36.4741 168.19 36.3924 168.063 36.3924L167.52 37.2635ZM168.851 37.699C168.797 37.7171 168.67 37.7534 168.471 37.8079C168.272 37.8623 168.109 37.953 167.982 38.08C167.873 38.1889 167.819 38.325 167.819 38.4883C168.163 38.4883 168.507 38.2252 168.851 37.699ZM169.177 38.6789C169.177 38.6063 169.141 38.5246 169.068 38.4339C169.014 38.3432 168.969 38.2978 168.932 38.2978C168.824 38.2978 168.661 38.3704 168.444 38.5156C168.244 38.6426 168.1 38.7696 168.009 38.8966L169.014 39.06C169.014 39.0237 169.041 38.9601 169.095 38.8694C169.15 38.7787 169.177 38.7152 169.177 38.6789ZM168.308 39.3866L167.602 39.2233L167.357 39.5227L168.308 39.3866ZM167.52 40.0671C167.556 40.176 167.62 40.2485 167.71 40.2848C167.819 40.3211 167.982 40.3665 168.199 40.4209C168.416 40.4572 168.57 40.5026 168.661 40.557C168.552 40.7385 168.416 40.8655 168.253 40.9381C168.163 40.9925 168.09 41.056 168.036 41.1286C168 41.2012 167.982 41.3464 167.982 41.5641C167.982 41.8182 168.027 42.0813 168.118 42.3535C168.19 42.6801 168.226 42.9433 168.226 43.1429C168.226 43.3243 168.199 43.5421 168.145 43.7961C168.543 43.7054 168.833 43.3062 169.014 42.5985C169.195 41.8908 169.285 41.1377 169.285 40.3393C169.285 39.8675 169.258 39.5408 169.204 39.3594C169.023 39.3594 168.751 39.441 168.389 39.6043C168.045 39.7677 167.756 39.9219 167.52 40.0671ZM166.787 40.2576C166.678 40.2576 166.561 40.2848 166.434 40.3393C166.307 40.3937 166.226 40.4663 166.189 40.557C166.28 40.5933 166.407 40.6296 166.57 40.6659C166.751 40.7022 166.896 40.7294 167.004 40.7476C167.059 40.7294 167.14 40.7022 167.249 40.6659C167.357 40.6296 167.448 40.5933 167.52 40.557C167.43 40.5026 167.303 40.4481 167.14 40.3937C166.977 40.3211 166.859 40.2758 166.787 40.2576ZM165.429 40.312L164.669 40.6931L165.673 40.557L165.429 40.312ZM162.143 42.5713C162.179 42.5713 162.252 42.5078 162.36 42.3807C162.469 42.2356 162.523 42.1358 162.523 42.0813H161.79C161.862 41.9724 161.998 41.8726 162.197 41.7819C162.415 41.6912 162.641 41.6095 162.876 41.5369C163.256 41.4099 163.564 41.292 163.8 41.1831C164.035 41.0561 164.207 40.9109 164.316 40.7476H164.207C163.863 40.7476 163.573 40.7748 163.338 40.8292C163.121 40.8837 163.003 41.0198 162.985 41.2375C162.84 41.292 162.641 41.3645 162.387 41.4553C162.152 41.5279 161.953 41.6277 161.79 41.7547C161.645 41.8636 161.536 42.0178 161.464 42.2174C161.5 42.2719 161.609 42.3444 161.79 42.4352C161.971 42.5259 162.089 42.5713 162.143 42.5713ZM164.153 45.6199C164.442 45.6199 164.85 45.5473 165.375 45.4021C165.9 45.2569 166.361 45.0664 166.76 44.8305C167.158 44.5764 167.357 44.2952 167.357 43.9867V43.8778C167.357 43.0431 167.267 42.3898 167.086 41.918C166.923 41.4462 166.515 41.2103 165.864 41.2103C165.773 41.2103 165.637 41.2557 165.456 41.3464C165.275 41.419 165.148 41.4553 165.076 41.4553C164.877 41.4553 164.614 41.5641 164.288 41.7819C163.981 41.9997 163.772 42.1448 163.664 42.2174C163.555 42.29 163.456 42.408 163.365 42.5713C163.293 42.7164 163.22 42.8616 163.148 43.0068C163.039 43.2608 162.931 43.4604 162.822 43.6056C162.731 43.7326 162.605 43.7961 162.442 43.7961C162.442 44.3587 162.586 44.8033 162.876 45.1299C163.166 45.4565 163.591 45.6199 164.153 45.6199ZM161.138 42.5713C161.084 42.5713 161.039 42.6439 161.002 42.789C160.966 42.9342 160.948 43.0431 160.948 43.1157C161.075 43.1157 161.201 43.0794 161.328 43.0068C161.455 42.9342 161.564 42.8525 161.654 42.7618C161.582 42.7255 161.491 42.6892 161.383 42.6529C161.292 42.6166 161.211 42.5894 161.138 42.5713ZM161.98 43.4151C162.034 43.3606 162.061 43.2699 162.061 43.1429C162.061 43.1247 162.016 43.1157 161.926 43.1157C161.763 43.1157 161.573 43.1429 161.355 43.1973C161.156 43.2518 161.029 43.3243 160.975 43.4151H161.98ZM168.905 43.6873C168.76 43.6873 168.616 43.7599 168.471 43.905C168.344 44.0321 168.281 44.1681 168.281 44.3133C168.516 44.3133 168.679 44.268 168.769 44.1772C168.86 44.0865 168.905 43.9232 168.905 43.6873ZM161.138 43.7417C161.084 43.7417 161.011 43.778 160.921 43.8506C160.83 43.9232 160.785 43.9776 160.785 44.0139L160.812 44.0956C160.867 44.0956 160.939 44.0683 161.029 44.0139C161.12 43.9595 161.165 43.9141 161.165 43.8778L161.138 43.7417ZM161.708 44.0411C161.473 44.0411 161.283 44.1772 161.138 44.4494C161.518 44.4494 161.708 44.3133 161.708 44.0411ZM168.009 44.9121C168.027 44.9484 168.063 44.9938 168.118 45.0482C168.172 45.0845 168.226 45.1027 168.281 45.1027C168.353 45.0664 168.462 44.9938 168.607 44.8849C168.751 44.7579 168.824 44.6672 168.824 44.6127C168.824 44.5583 168.788 44.5311 168.715 44.5311C168.607 44.5311 168.471 44.5764 168.308 44.6672C168.163 44.7398 168.063 44.8214 168.009 44.9121ZM161.22 45.4838C161.346 45.4838 161.455 45.3749 161.545 45.1571C161.636 44.9394 161.681 44.776 161.681 44.6672C161.5 44.6672 161.319 44.7035 161.138 44.776C160.975 44.8486 160.867 44.9575 160.812 45.1027C160.83 45.1753 160.885 45.2569 160.975 45.3477C161.084 45.4202 161.165 45.4656 161.22 45.4838ZM168.607 45.5926C168.607 45.6471 168.625 45.7015 168.661 45.756C168.715 45.8104 168.76 45.8376 168.797 45.8376C169.104 45.8376 169.258 45.6017 169.258 45.1299C169.15 45.1299 169.014 45.1753 168.851 45.266C168.688 45.3567 168.607 45.4656 168.607 45.5926ZM161.654 45.5926C161.926 45.5563 162.061 45.4293 162.061 45.2116C161.826 45.2116 161.69 45.3386 161.654 45.5926ZM166.841 46.3276C167.022 46.3276 167.185 46.2459 167.33 46.0826C167.475 45.9011 167.547 45.7106 167.547 45.511L167.52 45.266C167.466 45.2841 167.393 45.3386 167.303 45.4293C167.23 45.52 167.185 45.5836 167.167 45.6199C167.167 45.6561 167.176 45.6924 167.194 45.7287C167.212 45.7469 167.221 45.756 167.221 45.756H166.841V46.3276ZM166.325 46.627C166.361 46.627 166.398 46.5362 166.434 46.3548C166.47 46.1552 166.497 46.01 166.515 45.9193C166.226 45.9193 165.927 46.0191 165.619 46.2187C165.311 46.4001 165.157 46.636 165.157 46.9264L166.325 46.627ZM169.095 46.4909C169.24 46.4001 169.313 46.2822 169.313 46.137H168.905C168.905 46.3003 168.969 46.4183 169.095 46.4909ZM169.557 46.5725C169.865 46.5725 170.046 46.509 170.1 46.382C170.01 46.2368 169.928 46.1642 169.856 46.1642C169.765 46.1642 169.693 46.2096 169.638 46.3003C169.584 46.3911 169.557 46.4818 169.557 46.5725ZM162.632 46.4637C162.704 46.5 162.831 46.5725 163.012 46.6814C163.211 46.7721 163.356 46.8175 163.446 46.8175C163.446 46.7268 163.374 46.6088 163.229 46.4637C163.102 46.3185 163.003 46.2459 162.931 46.2459C162.804 46.2459 162.704 46.3185 162.632 46.4637ZM164.397 47.1441C164.469 47.1441 164.524 47.0897 164.56 46.9808C164.614 46.8538 164.641 46.7359 164.641 46.627L164.506 46.5998C164.288 46.5998 164.116 46.7086 163.99 46.9264C164.225 47.0716 164.361 47.1441 164.397 47.1441ZM169.856 46.9264C169.856 47.1079 170.2 47.1986 170.888 47.1986C170.888 47.0353 170.87 46.8992 170.833 46.7903C170.815 46.6814 170.743 46.627 170.616 46.627C170.471 46.627 170.317 46.6542 170.155 46.7086C170.01 46.7631 169.91 46.8357 169.856 46.9264Z" fill="#6FFF17"/>
<path d="M90.043 46.1371C90.043 45.629 90.0973 44.885 90.2059 43.9051C90.3326 43.016 90.396 42.2538 90.396 41.6187C90.396 41.2195 90.3508 40.7295 90.2602 40.1488C90.2059 39.8766 90.1788 39.6135 90.1788 39.3595C90.1788 38.6518 90.215 37.7535 90.2874 36.6647C90.3417 36.0296 90.3689 35.5306 90.3689 35.1677L90.559 34.9771C90.5952 34.9953 90.7853 35.0044 91.1293 35.0044C91.3647 35.0044 91.5638 34.9771 91.7268 34.9227C91.9078 34.8683 92.0617 34.841 92.1884 34.841C92.3152 34.841 92.4329 34.9499 92.5415 35.1677C92.6682 35.3854 92.7316 35.5487 92.7316 35.6576C92.967 35.5669 93.2566 35.4217 93.6006 35.2221C94.1619 34.9499 94.6145 34.7594 94.9585 34.6505C95.3207 34.5235 95.7552 34.46 96.2621 34.46C97.0588 34.46 97.8373 34.6686 98.5977 35.086C99.3581 35.4852 100.019 36.0115 100.58 36.6647L100.689 36.692C100.743 36.692 101.087 36.4651 101.721 36.0115C102.355 35.5578 102.708 35.2765 102.78 35.1677L104.953 34.6505C106.492 34.6505 107.714 35.1586 108.619 36.1748C109.542 37.191 110.104 38.4703 110.303 40.0127L110.276 41.1832C110.276 41.655 110.339 41.9907 110.466 42.1903L110.493 45.5655C110.493 46.3277 110.366 46.9084 110.113 47.3076C109.877 47.7068 109.379 47.9064 108.619 47.9064C108.003 47.9064 107.605 47.6523 107.424 47.1443C107.261 46.6362 107.171 45.9194 107.152 44.9939C107.152 44.5403 107.143 44.2227 107.125 44.0412C107.125 43.9505 107.071 43.4333 106.962 42.4897C106.836 41.655 106.772 41.1106 106.772 40.8565C106.772 40.7114 106.808 40.4936 106.881 40.2033C106.935 39.8222 106.962 39.6226 106.962 39.6044C106.962 38.5157 106.347 37.7626 105.116 37.3452V37.1819C104.935 37.3271 104.536 37.445 103.921 37.5358C103.269 37.6265 102.735 37.7717 102.318 37.9713C101.92 38.1709 101.676 38.5247 101.585 39.0328L101.558 40.2577C101.558 40.8565 101.585 41.5189 101.639 42.2447C101.694 42.9524 101.73 43.4242 101.748 43.6602C101.875 44.9667 101.938 46.0827 101.938 47.0082C101.938 47.4255 101.25 47.6342 99.8741 47.6342C99.5482 47.6342 99.2767 47.607 99.0594 47.5525C98.8421 47.48 98.7335 47.3166 98.7335 47.0626L98.4076 47.2531C98.4257 47.0717 98.4348 46.8267 98.4348 46.5182C98.5434 44.8487 98.5977 43.3607 98.5977 42.0542C98.5977 41.6187 98.5524 41.0562 98.4619 40.3666C98.3714 39.6589 98.2537 38.9875 98.1089 38.3524C97.7649 37.9713 97.439 37.6991 97.1312 37.5358C96.8415 37.3543 96.4341 37.1819 95.9091 37.0186C95.8004 36.9097 95.7461 36.8553 95.7461 36.8553C95.6918 36.946 95.4293 37.1365 94.9585 37.4269C94.4878 37.6991 94.0804 37.8896 93.7364 37.9985C93.7364 38.0711 93.655 38.3524 93.492 38.8423C93.2204 39.6589 93.0756 40.1579 93.0575 40.3394L93.0303 41.0199C93.0303 41.3283 93.0665 41.7729 93.139 42.3536C93.2114 42.9706 93.2476 43.4243 93.2476 43.7146C93.2476 44.513 93.1933 45.3931 93.0847 46.3549C92.9941 47.3166 92.8131 47.8882 92.5415 48.0697L91.9712 48.0969C91.8263 48.0969 91.4552 48.0243 90.8577 47.8792C90.2602 47.734 89.9977 47.6433 90.0701 47.607L90.043 46.1371ZM91.8897 38.3524C92.2337 38.3524 92.5324 38.2253 92.7859 37.9713C93.0394 37.7172 93.311 37.3724 93.6006 36.9369C93.7817 36.6647 93.9265 36.4651 94.0352 36.3381C94.1619 36.2111 94.2796 36.1476 94.3882 36.1476L94.2253 36.5014C94.4244 36.4833 94.6508 36.4288 94.9042 36.3381C95.2663 36.2292 95.547 36.1748 95.7461 36.1748V36.3925C95.891 36.3925 96.063 36.329 96.2621 36.202C96.4613 36.0568 96.6242 35.9843 96.751 35.9843L96.5609 36.1476C96.7238 36.2927 96.8686 36.3925 96.9954 36.447C97.1221 36.4833 97.2941 36.5014 97.5114 36.5014C97.6562 36.5014 97.792 36.4651 97.9188 36.3925C98.0455 36.32 98.1089 36.2111 98.1089 36.0659C98.1089 35.703 97.9188 35.4852 97.5385 35.4126C97.1583 35.3401 96.7148 35.3038 96.2078 35.3038C95.8819 35.3038 95.6194 35.3401 95.4202 35.4126C95.2392 35.4671 95.0129 35.6123 94.7413 35.8482L94.9042 35.4943C94.4154 35.6758 93.9265 35.9298 93.4377 36.2564C92.9489 36.5649 92.7044 36.9279 92.7044 37.3452C92.7044 37.436 92.7135 37.4995 92.7316 37.5358L91.8897 38.3524ZM108.347 41.2648C108.836 41.2285 109.207 41.1469 109.461 41.0199L109.488 39.9855C109.488 39.55 109.425 39.1417 109.298 38.7606H108.809C108.863 38.7425 108.927 38.679 108.999 38.5701C109.072 38.4431 109.117 38.3524 109.135 38.2979C109.135 38.062 108.999 37.7626 108.728 37.3997C108.456 37.0186 108.139 36.692 107.777 36.4198C107.433 36.1294 107.152 35.9843 106.935 35.9843C106.845 35.9843 106.745 36.0115 106.636 36.0659C106.528 36.1022 106.419 36.1203 106.311 36.1203C106.311 36.0841 106.329 36.0478 106.365 36.0115C106.419 35.957 106.446 35.9117 106.446 35.8754C106.446 35.7121 106.247 35.6123 105.849 35.576C105.469 35.5215 105.116 35.4943 104.79 35.4943C104.283 35.4943 103.776 35.6213 103.269 35.8754C102.78 36.1294 102.391 36.4561 102.101 36.8553L102.264 37.0186L103.948 36.1476L103.785 36.5014C104.147 36.2474 104.419 36.075 104.6 35.9843L104.274 36.5014C105.451 36.7373 106.084 36.8553 106.175 36.8553L106.636 36.8008C106.636 37.0004 106.645 37.1275 106.664 37.1819C106.7 37.2364 106.754 37.2636 106.827 37.2636L107.152 37.2364L107.125 37.5358C107.161 37.5721 107.216 37.69 107.288 37.8896C107.379 38.0711 107.46 38.1618 107.533 38.1618C107.623 38.1437 107.741 38.1074 107.886 38.0529C108.031 37.9985 108.166 37.935 108.293 37.8624C108.184 37.9713 108.067 38.1164 107.94 38.2979C107.813 38.4612 107.75 38.561 107.75 38.5973C107.75 38.6699 107.813 38.7243 107.94 38.7606C108.067 38.7969 108.13 38.8242 108.13 38.8423C108.13 38.9149 108.112 39.0056 108.076 39.1145C108.04 39.2052 108.003 39.2869 107.967 39.3595H108.293C108.184 39.5228 108.112 39.7496 108.076 40.04C108.04 40.2759 107.994 40.4573 107.94 40.5844C107.904 40.6932 107.804 40.784 107.641 40.8565C107.659 40.8565 107.687 40.8656 107.723 40.8838C107.759 40.8838 107.813 40.8838 107.886 40.8838C108.121 40.8838 108.311 40.8293 108.456 40.7204L107.777 41.3465L108.347 41.2648ZM92.0527 37.1819C91.9621 37.073 91.9078 36.9823 91.8897 36.9097C91.8716 36.8371 91.8625 36.7192 91.8625 36.5559C91.8625 36.4833 91.8897 36.3835 91.944 36.2564C92.0164 36.1294 92.0527 36.0387 92.0527 35.9843C92.0527 35.8754 91.8535 35.8209 91.4552 35.8209C91.1836 35.8209 91.0478 35.9026 91.0478 36.0659C91.0478 36.1566 91.075 36.2655 91.1293 36.3925C91.1836 36.5014 91.2379 36.5559 91.2922 36.5559C91.3103 36.5559 91.3375 36.5377 91.3737 36.5014L91.0478 37.0186C91.0659 37.0549 91.0931 37.0912 91.1293 37.1275C91.1836 37.1638 91.2289 37.1819 91.2651 37.1819C91.3737 37.1819 91.4642 37.1728 91.5367 37.1547C91.6272 37.1365 91.6905 37.1275 91.7268 37.1275V37.3452L92.0527 37.1819ZM97.8916 36.7464C97.8916 36.8371 97.9278 36.9097 98.0002 36.9642C98.0726 37.0004 98.1451 37.0186 98.2175 37.0186C98.3442 37.0004 98.5343 36.9642 98.7878 36.9097C99.0413 36.8371 99.2495 36.7555 99.4124 36.6647C99.2676 36.5014 99.1318 36.3744 99.0051 36.2837C98.8783 36.1929 98.7425 36.1476 98.5977 36.1476C98.4348 36.1476 98.308 36.1839 98.2175 36.2564C98.1451 36.329 98.0817 36.4198 98.0274 36.5286C97.9731 36.6194 97.9278 36.692 97.8916 36.7464ZM99.2223 37.0186C99.0051 37.0186 98.8059 37.064 98.6249 37.1547C98.4619 37.2273 98.3804 37.3634 98.3804 37.563C98.815 37.563 99.159 37.3815 99.4124 37.0186H99.2223ZM99.7655 37.1819C99.7112 37.1819 99.5211 37.2908 99.1952 37.5085C98.8874 37.7082 98.7335 37.8261 98.7335 37.8624C99.4215 37.8624 99.8741 37.69 100.091 37.3452L99.7655 37.1819ZM101.585 37.318C101.386 37.318 101.087 37.4632 100.689 37.7535C100.291 38.0257 99.9194 38.3342 99.5754 38.679C99.2495 39.0056 99.0865 39.2324 99.0865 39.3595C99.3943 39.2324 99.684 39.1508 99.9556 39.1145C100.173 39.0601 100.336 39.0056 100.444 38.9512C100.571 38.8786 100.743 38.7062 100.96 38.434C101.178 38.1618 101.449 37.7989 101.775 37.3452L101.585 37.318ZM91.0478 38.1618H91.2108V37.9985L91.0478 38.1618ZM99.7655 37.9985C99.4577 38.0166 99.2042 38.062 99.0051 38.1346C98.824 38.2072 98.7335 38.3705 98.7335 38.6245C98.7335 38.679 98.7969 38.7062 98.9236 38.7062C99.0141 38.6699 99.1771 38.5973 99.4124 38.4884C99.6478 38.3614 99.7655 38.2525 99.7655 38.1618V37.9985ZM100.254 39.1962C99.9647 39.1962 99.6931 39.2778 99.4396 39.4411C99.1861 39.5863 99.0594 39.795 99.0594 40.0672C99.168 40.0127 99.3762 39.9129 99.684 39.7678C100.01 39.6044 100.254 39.4683 100.417 39.3595C100.417 39.3232 100.399 39.2869 100.363 39.2506C100.327 39.2143 100.291 39.1962 100.254 39.1962ZM99.9284 40.5299C99.4396 40.6388 99.1952 40.8203 99.1952 41.0743C99.1952 41.1287 99.2042 41.1741 99.2223 41.2104C99.3672 41.1741 99.5935 41.0199 99.9013 40.7477C99.9375 40.7114 100.037 40.6297 100.2 40.5027C100.363 40.3757 100.49 40.3122 100.58 40.3122V39.55C100.363 39.6407 100.055 39.8222 99.6569 40.0944C99.2767 40.3484 99.0865 40.4936 99.0865 40.5299H99.9284ZM100.417 41.8637C100.272 42.0996 100.064 42.2538 99.7926 42.3264C99.6297 42.399 99.512 42.4806 99.4396 42.5714C99.3672 42.6621 99.331 42.8254 99.331 43.0613C99.7293 43.0613 100.091 42.8436 100.417 42.4081C100.761 41.9544 100.933 41.528 100.933 41.1287C100.933 40.9836 100.915 40.8747 100.879 40.8021C100.861 40.7295 100.797 40.6932 100.689 40.6932C100.453 40.6932 100.146 40.8565 99.7655 41.1832C99.4034 41.4917 99.2223 41.7185 99.2223 41.8637C99.2223 41.9 99.2404 41.9363 99.2767 41.9725C99.331 42.0088 99.3762 42.027 99.4124 42.027C99.4849 42.027 99.6207 41.9998 99.8198 41.9453C100.019 41.8909 100.218 41.8637 100.417 41.8637ZM92.4329 41.156C92.2518 41.1741 92.0798 41.2558 91.9169 41.4009C91.772 41.528 91.6996 41.6822 91.6996 41.8637L91.7268 42.027C92.0164 41.9907 92.2065 41.9181 92.2971 41.8092C92.3876 41.6822 92.4329 41.4644 92.4329 41.156ZM109.461 41.3465C109.044 41.6187 108.547 42.0723 107.967 42.7075C108.402 42.7075 108.782 42.644 109.108 42.5169C109.452 42.3718 109.624 42.154 109.624 41.8637C109.624 41.8455 109.569 41.6731 109.461 41.3465ZM107.614 41.9453C107.614 42.0179 107.641 42.0814 107.696 42.1359C107.75 42.1903 107.795 42.2175 107.831 42.2175C107.922 42.2175 108.184 41.9998 108.619 41.5643H108.456C108.257 41.5643 108.067 41.5915 107.886 41.6459C107.705 41.7004 107.614 41.8002 107.614 41.9453ZM100.933 42.4897C100.716 42.4897 100.526 42.5714 100.363 42.7347C100.2 42.8799 100.001 43.0976 99.7655 43.388H100.933V42.4897ZM108.972 43.0613C108.845 43.1339 108.682 43.2519 108.483 43.4152C108.302 43.5603 108.184 43.6602 108.13 43.7146H108.293C108.456 43.7146 108.728 43.6329 109.108 43.4696C109.506 43.3063 109.705 43.1883 109.705 43.1158C109.705 42.9887 109.66 42.8889 109.569 42.8163C109.479 42.7438 109.361 42.7075 109.216 42.7075C109.072 42.7075 108.818 42.7619 108.456 42.8708C108.112 42.9797 107.94 43.1521 107.94 43.388L107.967 43.5785C108.148 43.3607 108.293 43.2156 108.402 43.143C108.51 43.0523 108.646 43.0069 108.809 43.0069L108.972 43.0613ZM91.6453 42.898C91.4823 42.898 91.3465 42.9434 91.2379 43.0341C91.1293 43.1248 91.0659 43.2428 91.0478 43.388L91.1293 43.4152C91.1836 43.4152 91.3828 43.2428 91.7268 42.898H91.6453ZM108.076 45.2389C108.076 45.5474 108.13 45.8468 108.239 46.1371C108.329 46.4456 108.375 46.7178 108.375 46.9537C109.225 46.9537 109.651 46.6906 109.651 46.1643C109.651 46.0373 109.588 45.9557 109.461 45.9194C109.588 45.8831 109.651 45.7742 109.651 45.5927C109.651 45.4839 109.615 45.3387 109.542 45.1572C109.488 44.9576 109.461 44.8124 109.461 44.7217C109.479 44.7036 109.506 44.6763 109.542 44.6401C109.579 44.6038 109.606 44.5765 109.624 44.5584C109.642 44.4314 109.66 44.259 109.678 44.0412C109.696 43.8053 109.705 43.6148 109.705 43.4696C109.452 43.4696 109.18 43.5422 108.891 43.6874C108.619 43.8144 108.311 43.9868 107.967 44.2045C107.967 44.4042 108.012 44.6038 108.103 44.8034C108.193 44.9848 108.239 45.13 108.239 45.2389H108.076ZM99.2223 44.8306C99.2223 44.8669 99.2404 44.9123 99.2767 44.9667C99.3129 45.0211 99.3581 45.0484 99.4124 45.0484L100.77 43.7146C100.119 43.7146 99.6931 43.8053 99.4939 43.9868C99.3129 44.1683 99.2223 44.4495 99.2223 44.8306ZM99.2223 45.9194C99.675 45.9012 100.082 45.7198 100.444 45.375C100.807 45.0121 100.988 44.6128 100.988 44.1773C100.752 44.1773 100.553 44.2499 100.39 44.3951C100.245 44.5221 100.091 44.7126 99.9284 44.9667H100.417C100.417 45.0937 100.309 45.2026 100.091 45.2933C99.8922 45.3841 99.6025 45.4839 99.2223 45.5927V45.9194ZM90.6948 44.7217C90.6948 44.7762 90.7129 44.8397 90.7491 44.9122C90.8034 44.9848 90.8487 45.0302 90.8849 45.0484C91.1202 44.9032 91.2832 44.6854 91.3737 44.3951C91.3194 44.4132 91.1927 44.4586 90.9935 44.5312C90.7943 44.5856 90.6948 44.6491 90.6948 44.7217ZM92.2156 44.7217C92.1975 44.7399 92.1251 44.8034 91.9983 44.9122C91.8716 45.003 91.8082 45.1209 91.8082 45.2661C92.0979 45.2661 92.2428 45.1482 92.2428 44.9122L92.2156 44.7217ZM100.254 46.736V46.4093H100.607C100.607 46.4638 100.598 46.5091 100.58 46.5454C100.562 46.5636 100.553 46.5817 100.553 46.5999C100.553 46.6362 100.625 46.6815 100.77 46.736L100.933 46.5726V45.4022C100.68 45.5474 100.417 45.6835 100.146 45.8105C100.073 45.8468 99.9284 45.9194 99.7112 46.0283C99.512 46.1371 99.4124 46.2279 99.4124 46.3004C99.4124 46.4093 99.4396 46.4819 99.4939 46.5182C99.5482 46.5363 99.5844 46.5545 99.6025 46.5726L99.4124 46.736H100.254ZM90.8849 46.6543C91.0297 46.6543 91.1927 46.5091 91.3737 46.2188H90.8849V46.6543ZM91.3737 47.0626H92.0527V46.5726L91.3737 47.0626Z" fill="#368D00"/>
<defs>
<filter id="filter0_d" x="10.8948" y="6.27808" width="197.474" height="79.3682" filterUnits="userSpaceOnUse" color-interpolation-filters="sRGB">
<feFlood flood-opacity="0" result="BackgroundImageFix"/>
<feColorMatrix in="SourceAlpha" type="matrix" values="0 0 0 0 0 0 0 0 0 0 0 0 0 0 0 0 0 0 127 0" result="hardAlpha"/>
<feOffset dx="1" dy="6"/>
<feGaussianBlur stdDeviation="7.5"/>
<feColorMatrix type="matrix" values="0 0 0 0 0 0 0 0 0 0 0 0 0 0 0 0 0 0 0.17 0"/>
<feBlend mode="normal" in2="BackgroundImageFix" result="effect1_dropShadow"/>
<feBlend mode="normal" in="SourceGraphic" in2="effect1_dropShadow" result="shape"/>
</filter>
</defs>
</svg>
