<svg width="248" height="191" viewBox="0 0 248 191" fill="none" xmlns="http://www.w3.org/2000/svg">
<g clip-path="url(#clip0)">
<path d="M132.283 141.229L131.614 141.844L130.175 143.543L130.002 143.719L129.828 143.807L129.679 143.777L129.506 143.807L129.406 143.865L129.307 143.953L128.216 145.359L128.092 145.594L127.993 145.769L127.968 145.887V146.004L127.993 146.121L128.018 146.209L128.092 146.414L128.191 146.59L128.638 147.263L128.687 147.351L128.737 147.439V147.586L128.712 147.761L128.638 147.849L128.563 147.908L126.158 148.933L125.389 149.255L123.405 150.222L122.735 150.749L121.421 152.478L121.198 152.741L120.751 152.068L120.404 151.833L119.982 151.892L118.866 152.536L118.494 152.654L118.073 152.536L117.626 152.273L115.32 150.31L113.311 148.611L111.699 147.263L110.831 146.18L109.294 143.631L108.376 142.576L106.367 140.906L101.606 136.893L99.2743 134.901L97.3152 133.231L95.6288 131.825L94.7856 130.829L94.6368 130.712L93.5952 129.159L93.4464 128.574L93.1984 127.314L93.1488 126.816L93.1984 126.347L93.3224 125.937L93.3968 125.527L93.3472 125.058L92.9008 123.916L92.8512 123.447V122.861L92.7768 122.422L92.6776 122.012L92.3056 121.133L92.2064 120.723L92.1568 119.785L92.0328 119.58L90.8424 118.76L90.148 118.526L89.8256 118.233L89.776 118.086L92.7768 113.663L93.5208 111.758L93.3472 110.997L92.876 110.147L90.52 107.013L93.7688 105.167V104.845L89.6768 98.1072L94.7856 95.8223L96.0008 95.8516L96.4472 97.1112L96.8192 97.8436L99.2248 101.242L101.184 105.314L101.531 105.548L102.796 105.87L104.681 106.749L106.913 108.243L111.253 111.407L111.575 112.081L112.096 112.696L112.071 113.135L113.807 112.432L114.824 110.616L115.692 108.507L115.94 108.067L116.213 107.774L116.51 107.657L116.783 107.745L117.056 108.038L117.354 108.565L117.428 109.327L117.453 110.792L117.651 111.29L118.271 111.553L122.165 112.11L122.487 111.729L122.934 109.737L123.206 109.561L123.702 109.327L125.612 109.239L126.232 109.093L126.703 108.858L127.15 108.067L127.323 108.097L127.447 108.624L127.77 110.909L127.894 111.495L128.092 112.169L128.588 112.637L129.084 112.989L130.522 113.399L134.887 113.75L135.582 113.516L135.234 114.922L135.16 115.479L135.135 116.065V116.621L135.16 117.09L135.234 117.354L135.21 117.617L135.011 117.588L134.267 117.412L134.118 117.383L133.994 117.442L133.87 117.559L133.722 117.852L133.697 118.115L133.3 119.551L132.978 119.99L132.73 120.283L132.407 121.514L132.234 121.894L130.547 121.865L130.225 121.748L129.902 121.484L129.63 121.191L129.332 121.103H129.01L128.514 121.191L128.266 121.367L128.142 121.543L128.092 121.748L128.067 121.982V122.158L128.142 122.597L128.514 123.037L128.266 123.857L128.142 124.004L128.067 124.033V124.091L128.092 124.179L128.241 124.502L128.662 125L128.886 125.351L128.96 125.498L128.935 125.556L128.514 125.615L128.414 125.644L128.315 125.732L128.216 125.82L128.067 125.849L127.869 126.054L127.174 127.695L126.976 128.017L126.728 128.31L126.455 128.544L125.587 129.013L125.463 129.306L125.364 129.452L125.314 129.54L124.843 130.243L124.595 130.858L124.397 131.415L124.62 131.972L125.662 133.7L126.083 134.022L126.753 134.462L126.778 134.579L126.852 134.784L126.902 134.96L127.1 135.106H127.373L127.993 134.784L128.216 134.813L128.34 135.077L130.076 136.044L130.324 136.542L130.448 137.04V137.42L130.498 137.889L130.622 138.358L130.894 138.534L131.242 138.68L131.465 138.827L131.713 139.149L131.936 139.5L132.01 139.647L132.085 139.881L132.234 140.467L132.258 140.614L132.283 141.229Z" fill="#158126" stroke="white" stroke-width="2" stroke-linecap="round" stroke-linejoin="round"/>
<path d="M90.5201 107.013L92.8761 110.147L93.3473 110.997L93.5209 111.758L92.7769 113.663L89.7761 118.086L89.7513 118.057L89.6273 117.529L89.5529 117.324L89.0073 116.475L88.8089 116.006L88.5113 114.629L88.3377 114.307L87.8665 113.692L87.7177 113.399L87.5937 112.93L87.4449 111.905L86.9737 110.001L86.8249 109.561L86.9241 109.386L86.8497 109.063L86.8249 107.481L86.7753 107.013L86.6513 106.632L85.5849 104.523L85.3121 104.171L82.0881 101.359L80.8481 100.714L79.4345 100.275L78.9137 100.187L78.5913 100.392L78.3929 100.861L78.2441 101.652L77.8969 101.886L77.6241 102.619L77.2025 103.146L76.7065 103.439L76.1609 103.468L75.5905 103.175L74.1025 101.916H73.8297L72.9865 102.091L72.9121 101.886L72.8625 101.681L72.8129 101.623L72.5401 102.179L72.4409 102.296L72.3417 102.414L71.6473 101.564L70.6553 101.271L67.7537 101.476L65.9929 102.179H65.1249L64.6289 102.033L64.2321 101.681L63.4385 100.744L62.5705 99.9821L61.1817 99.1326L59.5945 98.1658L59.1977 97.6971L59.0985 97.1698L59.2721 95.3243L59.3961 94.9434L59.5697 94.6212L59.8177 94.3576L60.4129 94.006L60.6113 93.7424L60.4873 93.303L59.5201 91.6918L59.0985 90.6957L58.9497 89.8755L59.3217 89.2603L59.7185 88.9381L60.1649 88.8795L60.7105 89.0846L61.2065 89.4654L61.5041 89.6119L61.7273 89.5826L61.8761 89.2896L61.8513 88.9674L61.7273 88.6451L61.5537 88.3815L61.3553 88.1764L60.6609 87.6784L60.4377 87.4148L60.2889 87.1218L60.4625 86.9168L60.6113 86.3895L60.5865 86.1551L60.4377 85.745L60.3881 85.6571L60.3633 85.5399L60.4129 85.452L60.5121 85.3642L60.7353 85.3056L61.1321 85.2763L61.4297 85.1298L62.1737 84.5146L62.4465 84.2217L62.5209 84.1631L62.7689 84.1338L63.0665 84.3974L63.2153 84.5146L63.9345 84.7197L64.6537 84.8076L64.8521 85.0126L64.9017 85.4813V86.5066L65.0257 86.8875L65.3977 87.5905L65.5713 88.1764L65.9681 89.026L66.1665 89.3482L66.4145 89.5533L66.7369 89.6411H67.4065L67.6545 89.8169L67.8033 90.1977L68.0513 91.0766L68.4233 91.8675L68.8945 92.4827L72.2921 96.1445L72.6641 96.2324L72.8625 96.3203L73.0113 96.4668L73.5321 97.1405L73.9785 97.6385L74.3009 97.785L75.1441 97.9608L75.4169 98.1658L76.1857 99.1618L76.3593 99.4841L76.5329 100.158L76.7561 100.275L76.8553 100.363L77.1777 100.509L77.5497 100.48L77.7977 100.246L78.3681 98.9275L78.6161 98.6053L78.8393 98.4002L79.0873 98.2537L79.3849 98.1658H80.1537L82.9065 98.9568L83.6009 99.3083L84.2705 99.777L85.1137 100.539L87.5689 103.761L89.2801 107.013L89.3545 107.071L89.5529 107.218L89.7513 107.306L90.5201 107.013Z" fill="#158126" stroke="white" stroke-width="2" stroke-linecap="round" stroke-linejoin="round"/>
<path d="M87.4697 49.9178L89.0321 53.0523L89.7513 53.8433L93.6449 55.1029L93.868 55.2494V55.4838L93.7689 55.7767L89.8504 64.5358L86.1553 72.9433L85.3617 75.1404L85.0392 79.9154V80.179L85.0889 80.4134L86.7257 83.9873L87.0232 84.7197L86.9489 84.8368L86.7752 85.0419L83.6752 87.1218L83.3777 87.4441V87.737L83.5017 88.0592L89.6768 98.1072L93.7689 104.845V105.167L90.5201 107.013L89.7513 107.306L89.5528 107.218L89.3544 107.071L89.2801 107.013L87.5689 103.761L85.1137 100.539L84.2704 99.777L83.6009 99.3083L82.9064 98.9568L80.1537 98.1658H79.3848L79.0872 98.2537L78.8392 98.4002L78.6161 98.6053L78.368 98.9275L77.7977 100.246L77.5497 100.48L77.1777 100.509L76.8552 100.363L76.7561 100.275L76.5329 100.158L76.3592 99.4841L76.1857 99.1618L75.4169 98.1658L75.1441 97.9608L74.3008 97.785L73.9784 97.6385L73.5321 97.1405L73.0112 96.4668L72.8624 96.3203L72.664 96.2324L72.2921 96.1445L68.8944 92.4827L68.4232 91.8675L68.0512 91.0766L67.8032 90.1977L67.6544 89.8169L67.4064 89.6411H66.7369L66.4144 89.5533L66.1665 89.3482L65.968 89.026L65.5713 88.1764L65.3977 87.5905L65.0257 86.8875L64.9016 86.5066V85.4813L64.8521 85.0126L64.6537 84.8075L63.9344 84.7197L63.2152 84.5146L63.0665 84.3974L62.7689 84.1338L62.5209 84.1631L62.4464 84.2217L62.1736 84.5146L61.4296 85.1298L61.132 85.2763L60.7352 85.3056L60.5121 85.3641L60.4128 85.452L60.3632 85.5399L60.3881 85.6571L60.4376 85.745L60.5864 86.1551L60.6112 86.3895L60.4625 86.9168L60.2889 87.1218L59.9417 86.5359L59.5201 86.0965L58.0072 85.4227L57.2632 85.452L57.0648 85.3348L56.8912 85.0126L56.916 84.7197L57.0896 84.4853L57.3377 84.3974H57.3624L58.2057 84.0166L58.156 83.1085L57.8832 81.966L58.0072 80.9114L58.2552 80.7063L58.5529 80.5599L58.7761 80.3548L58.8256 79.974L58.6521 79.681L58.3296 79.4467L57.6849 79.1537L57.1641 78.5971L56.7672 77.8648L56.3209 77.2789L55.676 77.191L55.0312 77.2789L53.7664 77.1324L50.716 77.689L49.972 77.6597L49.6249 77.5132L49.0545 76.7809L48.7072 76.6344L47.9632 76.5465L47.5664 76.2536L47.368 75.8434L47.1945 74.0858L47.0704 73.6463L46.8472 73.2655L45.9296 72.123L45.5825 71.8594L45.2352 71.918L44.8136 72.1523L44.392 72.2988L43.9705 72.3281L43.3256 72.1816L42.3088 71.6543L41.3416 70.5704L38.2416 66.2641L37.8945 66.0005L37.6216 66.5278L37.4232 68.4905L37.1256 69.1643L36.5304 69.3987L35.7864 69.3401L35.0424 69.135L33.5048 68.3733H33.1329L32.8848 68.4612L32.116 69.0178L31.5704 69.3108L31.2976 69.5451L31.1736 69.8674L31.248 70.3361L31.5208 70.5997L33.3312 71.625L33.8272 72.0937L34.2736 72.8847L34.6704 73.9686L35.7369 76.0192L36.3072 76.8394L36.4809 77.0152L36.5552 77.2203L36.4809 77.4253L36.3072 77.5425L35.3896 77.7183L35.1416 77.6304L34.9929 77.3375V76.9859L35.0672 76.5758L35.1169 76.1657L34.968 75.3454L34.5961 74.7595L34.1 74.3201L32.6864 73.5292L32.364 73.4413L32.0912 73.4999L31.5704 73.7635L31.3472 73.7928L31.0992 73.6463L30.7768 73.0605L30.5784 72.8261L30.3056 72.7089L29.9832 72.6796L29.6608 72.7675L29.388 72.914L29.2392 73.119L29.1152 73.412L28.7432 73.91L28.3464 74.1151L28.0984 74.3494L28.1976 74.9646L28.4952 75.7556L28.52 76.1071L28.396 76.6637L27.8008 78.2456L27.6024 78.5092L27.0568 78.7436L26.9328 79.0365L27.032 79.3881L27.2304 79.6517L27.2552 79.8568L26.9576 80.1204L26.66 80.2083L25.6928 80.1497L25.42 80.2376L24.6016 80.7063L24.2792 80.7649L24.18 79.7982L24.056 79.2123L23.8576 78.7436L23.5848 78.3628L23.2376 78.0405L22.4688 77.5425L21.8488 77.4546L21.7 77.396L21.5512 77.2496L21.3528 77.0738L21.0552 76.5172L20.8816 76.3414L20.6336 76.2829L20.2616 76.3121L19.4432 76.6344L18.8232 77.0445L18.4512 77.4546L18.3024 77.6304L17.856 78.7436L16.0456 85.452L15.996 85.8036V85.9207L14.7064 86.6531L14.2848 87.3269V88.2057L14.6072 89.9927L14.5576 90.8715L14.4584 91.6039L14.4336 92.3069L14.7064 93.1272L15.0288 93.7424L15.1776 94.3576L15.2272 95.002V95.793L15.3016 96.4375L15.4752 97.0526L15.7728 97.6385L16.0704 98.0487L16.2936 98.2244L16.492 98.3416L17.236 98.5467L17.3352 98.6638L17.3104 98.8103L17.1368 99.0447L16.8392 99.3083L16.1696 99.6891L15.872 100.099L15.4256 101.037L15.1528 101.242L13.392 100.802L12.028 100.48L8.80405 100.246L5.30725 100.041L2.62885 99.8649L0.297647 99.7184L0.272847 89.2603V84.0166V78.7436V73.4706V68.1683V62.8367V57.4758V52.1149V46.7247L0.248047 41.3345V35.9151V30.437V24.9882V19.4809V13.9442L0.297647 13.9149L1.63685 13.3876L2.97605 12.8896L4.34005 12.3623L7.04325 11.337L8.38245 10.8097L9.74645 10.3117L11.0856 9.78438L13.7888 8.75907L15.1528 8.26107L16.492 7.73377L17.856 7.23576L19.1952 6.70846L21.8984 5.68315L23.7088 5.00938L25.4944 4.3649L27.3048 3.72042L29.1152 3.04665L29.9336 2.75371L30.7768 2.46076L32.4384 1.87487L33.3064 1.58193L35.0424 0.996036L35.9104 0.703092L37.076 0.292969L37.4232 0.322263L37.82 0.527325L37.944 0.644503L37.9192 0.673797L37.696 1.37686L37.6465 1.81628L37.572 2.07993L37.3736 2.57794L37.324 2.87088V3.54466L37.2744 3.72042L37.2248 3.77901L37.1008 3.8669L37.0512 3.92548L37.0016 4.01337L36.8776 4.45279L36.3568 5.30233L36.2824 5.4488L36.2576 5.50739L36.1088 5.68315L35.4392 6.79634L35.3648 6.97211L35.34 7.14788L35.2905 7.76306L35.1169 8.40754L34.9184 8.90555L34.844 9.28638L34.7696 10.048L34.6952 10.4289L34.5712 10.8097L34.4225 11.1612L34.3232 11.3077L34.1249 11.5421L34.0256 11.6885L33.976 11.8643L33.9512 12.0401L33.9016 12.3916L33.852 12.7431L32.8848 15.5261L32.7608 16.61L32.7112 17.3131L32.736 18.0161L33.0336 19.0414L33.3312 19.9496L33.7281 20.7112L33.976 21.7658L33.9512 22.3224L33.852 22.7032L33.7281 23.0548L33.4305 23.2891L33.0832 23.875L33.0089 24.2852L32.9096 24.5195L32.8352 24.6953L32.8104 24.9003L32.9096 25.7792L33.1576 26.7459L33.5296 27.156L33.8024 27.5075L34.3728 27.6247L35.0672 27.5661L35.7864 27.0974L36.5304 26.3651L37.1752 25.662L37.5969 25.0175L37.82 24.6074L37.9936 24.2266L38.2912 23.8164L38.6385 23.2305L38.9608 22.5861L39.2089 22.1467L39.4569 21.7365L39.5312 21.4436L39.3329 21.0042L39.0352 20.8577L38.688 20.6819L38.8864 21.2385L38.6385 21.3264L38.2912 21.2092L38.1424 20.9163L38.2912 20.0082L38.4649 19.598L38.564 19.3051L38.8616 19.1879L39.06 19.0707L39.3576 19.1879L39.432 19.6566L39.5065 19.9496L39.7048 20.1839L40.0024 20.2718L40.4736 20.1253L40.7216 19.7738L40.6472 19.3051L40.3249 18.9536L40.1512 18.602L40.3 17.9868L40.3249 17.2252L40.1512 16.4342L40.0272 15.7312V15.2332L40.3249 15.1453L40.7216 15.0574L40.92 14.5301L40.9944 13.9442L41.1185 13.5048L41.2176 12.8017L40.8952 12.5674L40.5728 12.8603L40.3249 13.4462L39.7792 13.827L39.432 13.8856L39.06 14.2371L38.6385 13.8856L38.6136 13.329L38.7872 12.7431L39.0352 12.0694L39.2584 11.4835L39.7048 10.8976L39.928 10.3996L40.3249 9.93085L40.7464 9.43285L41.0689 9.25708L40.3992 8.67119L40.0272 8.1146L39.7048 6.62058L39.5808 5.65386L39.5312 5.00938L39.5808 4.27702L39.7792 3.42748L40.0024 2.72441L40.1264 2.37288L41.5401 3.51536L43.3752 4.98009L44.64 5.9761L48.0376 8.72978L50.2449 10.4582L50.1952 10.5753L49.848 11.1319L49.6496 11.6006L49.3769 12.6845L49.1536 13.3876L48.732 14.2371L48.4096 14.7059L48.2608 15.5554L48.0872 16.3756L47.864 16.9908L47.6161 17.5181L47.12 18.3091L46.8969 18.895L46.7232 19.4809L46.6241 20.0667L46.7976 21.2678L47.1696 22.2931L47.6161 22.9962L48.8064 24.6074L50.592 26.7166L51.5345 27.8005L52.2785 28.445L53.0224 29.148L53.196 29.3531L53.2456 29.6753L53.1712 30.3491L52.8736 30.8764L52.204 31.4037L51.9809 32.1068L51.7328 32.8098L51.4104 33.5129L51.6336 34.1574L52.3529 34.3039L52.9977 34.2453L53.5681 34.0402L53.94 33.6301L54.4608 33.5715L55.0312 33.6887L55.5769 33.4543L56.1721 32.9856L56.9905 32.3411L57.3624 31.7552L57.4369 31.4623L57.2384 31.1986L56.9656 31.1694L56.7176 31.0522L56.5689 30.8764L56.5192 30.6713V30.4077L56.5936 30.2319L56.6929 29.939L56.8665 29.7632L56.9905 29.5875H57.2384L57.6105 29.6167L58.0072 29.7046L58.28 29.6167L58.5032 29.3531L58.6025 29.0309L58.8008 28.2399L58.9001 27.4782L58.8256 26.7166L58.6521 25.4569L58.404 24.4902L58.0816 23.6993L57.9824 22.9376L57.9576 22.2931L58.2057 21.883L58.4536 21.6486L58.7265 21.2678L58.9249 20.7405L59.0489 20.0667V19.1879L59.0737 18.0454V17.4595L59.3465 17.6939L62.1488 19.891L64.7776 22.0002L67.2081 23.875L69.2913 25.5448L72.2921 27.8884L73.1849 28.5914L73.5569 29.0894L73.8049 29.7339L73.9041 30.2905L74.0033 31.5209L74.1521 32.0775L74.9952 33.6887L76.632 35.8272L77.4257 36.8232L78.2192 37.8485L79.2361 39.2253L80.0545 40.3385L81.716 42.6235L82.5344 43.7367L83.3529 44.8499L84.1712 45.9631L85.7832 48.1601L86.8745 49.6249L87.4449 49.9178H87.4697Z" fill="#158126" stroke="white" stroke-width="2" stroke-linecap="round" stroke-linejoin="round"/>
<path d="M155.645 103.527V103.615L153.884 104.464L153.76 104.816L153.586 105.079L153.81 108.243L153.834 108.36L153.884 108.448L153.958 108.653L154.082 108.829L154.182 108.888L154.38 109.034L155.67 109.444L155.744 109.532L155.794 109.62L155.843 109.708V109.884V110.089L155.794 110.499V110.88L155.818 110.997L155.942 111.378L156.265 112.051L155.868 113.252L153.661 118.32L153.388 117.998L153.214 117.734L153.165 117.647L153.14 117.559L153.115 117.471V117.354L153.214 117.002V116.797L153.19 116.709L153.165 116.621L152.669 115.947L152.247 115.508L152.098 115.42L151.974 115.391L151.826 115.449L150.784 116.299L150.462 116.475L150.164 116.533L149.941 116.475L149.668 116.358L149.42 116.182L149.122 115.918L148.899 115.801L148.701 115.772L148.502 115.83L148.329 116.006L148.155 116.211L148.031 116.475L147.907 116.768L147.734 117.383L147.684 117.734V118.086L147.808 118.496L147.907 118.672L147.982 118.848L147.957 119.023L147.858 119.287L147.758 119.404L147.461 119.551L147.386 119.697V119.873L147.56 120.4L147.61 121.191L147.51 121.689L147.312 122.187L147.287 122.334L147.312 122.48L147.386 122.597L147.585 122.832V123.037L147.51 123.183L147.138 123.798L147.014 124.091L146.94 124.384L146.816 124.882L146.444 125.937L146.419 126.083L146.444 126.23L146.518 126.259H146.618L146.89 126.201H147.014L147.138 126.23L147.262 126.288L147.337 126.435L147.386 126.552V126.728L147.312 126.933L147.163 127.109L146.246 128.134L146.072 128.251L142.972 129.013L142.352 128.866L141.732 128.398L141.434 128.515L141.162 128.339L140.889 128.105L140.294 127.841L140.07 127.548L139.698 126.933L139.55 126.904L139.5 126.874L139.227 126.816L137.913 126.113H137.69L137.59 126.171L137.516 126.259L137.442 126.493L137.392 126.64L137.367 126.728L137.392 127.021L137.342 127.46V127.577L137.318 127.695L137.268 127.753L137.243 127.87L136.871 128.515L136.846 128.661L136.896 128.749H136.995L137.094 128.778L137.169 128.837L137.243 128.925L137.268 129.042L137.243 129.159L137.194 129.335L136.97 129.921L136.921 130.067L136.673 131.21L136.574 131.474L136.45 131.561L136.276 131.649H135.854L135.458 131.591L135.036 131.356L134.54 131.034L134.441 131.005L134.342 131.063L134.267 131.21L134.242 131.356L134.193 131.737L134.069 131.854L133.945 131.972L133.077 132.235L132.382 132.352L132.234 132.382L132.159 132.44L132.085 132.528L132.06 132.645L132.159 132.909L132.606 133.495L132.878 133.788L133.002 133.934L133.126 134.139L133.548 136.014L133.573 136.19L133.548 136.512L133.523 136.717L133.474 136.893L133.052 138.036V138.153L133.226 138.826L133.994 140.643L133.722 140.848L132.283 141.229L132.258 140.613L132.234 140.467L132.085 139.881L132.01 139.647L131.936 139.5L131.713 139.149L131.465 138.826L131.242 138.68L130.894 138.534L130.622 138.358L130.498 137.889L130.448 137.42V137.04L130.324 136.542L130.076 136.043L128.34 135.077L128.216 134.813L127.993 134.784L127.373 135.106H127.1L126.902 134.96L126.852 134.784L126.778 134.579L126.753 134.462L126.083 134.022L125.662 133.7L124.62 131.972L124.397 131.415L124.595 130.858L124.843 130.243L125.314 129.54L125.364 129.452L125.463 129.306L125.587 129.013L126.455 128.544L126.728 128.31L126.976 128.017L127.174 127.695L127.869 126.054L128.067 125.849L128.216 125.82L128.315 125.732L128.414 125.644L128.514 125.615L128.935 125.556L128.96 125.497L128.886 125.351L128.662 124.999L128.241 124.501L128.092 124.179L128.067 124.091V124.033L128.142 124.003L128.266 123.857L128.514 123.037L128.142 122.597L128.067 122.158V121.982L128.092 121.748L128.142 121.543L128.266 121.367L128.514 121.191L129.01 121.103H129.332L129.63 121.191L129.902 121.484L130.225 121.748L130.547 121.865L132.234 121.894L132.407 121.513L132.73 120.283L132.978 119.99L133.3 119.551L133.697 118.115L133.722 117.852L133.87 117.559L133.994 117.442L134.118 117.383L134.267 117.412L135.011 117.588L135.21 117.617L135.234 117.354L135.16 117.09L135.135 116.621V116.065L135.16 115.479L135.234 114.922L135.582 113.516L134.887 113.75L130.522 113.399L129.084 112.989L128.588 112.637L128.092 112.169L127.894 111.495L127.77 110.909L127.447 108.624L127.323 108.097L127.15 108.067L126.703 108.858L126.232 109.093L125.612 109.239L123.702 109.327L123.206 109.561L122.934 109.737L122.487 111.729L122.165 112.11L118.271 111.553L117.651 111.29L117.453 110.792L117.428 109.327L117.354 108.565L117.056 108.038L116.783 107.745L116.51 107.657L116.213 107.774L115.94 108.067L115.692 108.507L114.824 110.616L113.807 112.432L112.071 113.135L112.096 112.696L111.575 112.081L111.253 111.407L106.913 108.243L104.681 106.749L102.796 105.87L101.531 105.548L101.184 105.314L99.2249 101.242L96.8193 97.8435L96.4473 97.1111L96.0009 95.8515L94.7857 95.8222L89.6769 98.1072L83.5017 88.0592L83.3777 87.7369V87.444L83.6753 87.1217L86.7753 85.0418L86.9489 84.8368L87.0233 84.7196L86.7257 83.9872L85.0889 80.4133L85.0393 80.1789V79.9153L85.3617 75.1403L86.1553 72.9432L89.8505 64.5357L93.7689 55.7766L93.8681 55.4837V55.2493L93.6449 55.1029L89.7513 53.8432L89.0321 53.0523L87.4697 49.9177L88.6601 49.6541L89.6769 49.449L91.5121 49.0389L93.1489 48.6874L93.9673 48.5116L95.2817 48.248L96.5961 47.9843L103.168 46.7246L104.482 46.461L106.69 46.7246L108.872 46.959L111.079 47.1934L113.262 47.4277L115.27 47.6328L117.254 47.8378L119.263 48.0722L121.247 48.2773L122.041 48.3651L122.537 48.1894L124 47.252L125.389 46.3438L126.827 45.3771L128.216 44.469L128.489 44.3518L128.737 44.2346L129.208 44.3225L129.431 44.5862L129.679 44.8205L131.242 47.2227L132.779 49.6248L133.498 50.5329L134.218 51.4118L135.706 52.525L137.194 53.6089L137.764 54.224L138.979 57.2121L139.773 59.1162L140.839 61.7527L141.782 64.0084L142.03 64.0377L144.113 62.7194L146.171 61.3719L145.874 67.1429L145.551 72.8846L145.477 74.115L145.353 74.5251L145.006 74.6716L144.931 74.9938L144.857 79.4759L144.807 83.9286L144.857 84.1923L144.981 84.3095H146.717H148.279L149.866 84.3387H151.602L151.702 84.3095L151.826 84.3387H151.925L151.999 84.3973L152.247 87.2975L152.495 90.1684L152.942 92.9806L153.413 95.7929L154.033 99.1618L154.653 102.472L154.975 102.941L155.298 103.409L155.645 103.527Z" fill="#158126" stroke="white" stroke-width="2" stroke-linecap="round" stroke-linejoin="round"/>
<path d="M153.661 118.321L153.785 118.438L155.595 118.526L156.19 118.731L156.414 118.789L156.662 118.848L156.984 118.819L157.356 118.731L157.455 118.701L157.53 118.789L157.604 118.906L157.703 119.199L157.778 119.404L157.802 119.639L157.778 119.932L157.703 120.254L157.579 120.606L157.554 120.723L157.53 120.869V121.016L157.554 122.07L157.579 122.451L157.778 123.623L157.827 123.711L157.877 123.828L157.976 123.945L158.274 124.092L158.348 124.179L158.398 124.267V124.443L158.348 124.56V124.736L158.398 124.912L158.794 125.468L158.77 125.996L158.72 126.201L158.67 126.259L158.596 126.347L158.323 126.435L158.249 126.494L158.224 126.611L158.199 126.728L158.274 127.724L158.323 127.841L158.373 127.929L158.546 127.988H158.67L158.794 127.958L158.869 127.929L159.142 127.783L159.216 127.753H159.315H159.414L159.514 127.841L159.588 127.988L159.613 128.281L159.563 128.427V128.632L159.588 128.749L160.084 129.394L160.282 129.306H160.357L160.406 129.277L160.58 129.599L161.721 129.98L161.894 130.009L162.118 129.98L162.217 129.95H162.316L162.564 130.126L162.663 130.185L162.787 130.214L162.936 130.156L163.258 130.185L165.763 130.741L166.011 131.21L166.383 133.29L166.334 133.466L166.11 133.524H166.011L165.614 133.642L165.317 133.759L164.846 134.052L164.622 134.257L164.523 134.374L164.498 134.491L164.449 134.638V134.96V135.165L164.474 135.311L164.498 135.429L164.523 135.634V135.78V136.044L164.498 136.161L164.424 136.278L164.3 136.337L164.176 136.366H163.73L163.556 136.425L163.457 136.63L163.407 136.805L163.382 138.329L163.531 138.709L163.73 139.002L164.325 139.618L165.416 140.76L165.292 140.965L165.118 141.815L165.019 142.694L164.994 143.514L164.821 144.246L164.722 144.979L164.622 145.037L164.474 144.979L164.325 145.037L164.3 145.066L160.853 144.041L160.084 143.983V144.1L160.109 144.334V144.422V144.539L160.059 144.656L160.01 144.744L159.935 144.832L159.861 144.861L159.687 144.92L158.1 144.979L157.902 144.949L157.802 144.891L157.703 144.832L157.604 144.744L157.554 144.627L157.53 144.451L157.554 144.1L157.654 143.514L157.604 143.192L157.306 142.547L157.009 142.488L155.769 142.196L154.653 141.99H154.454L154.206 142.078L153.983 142.225L153.859 142.342L153.76 142.459L153.289 143.309L153.165 143.455L152.074 143.983H151.974L151.776 143.924L151.553 143.777L150.685 142.986L150.338 142.694L150.065 142.723L147.982 143.279L147.907 143.309L146.518 144.1L146.221 144.334L145.998 144.422H145.477L144.51 144.129L144.435 144.041L144.361 143.895L144.336 143.66L144.311 143.484V143.338L144.336 142.986V142.664L144.286 142.518L144.237 142.401L143.89 142.078L143.443 141.727L142.699 140.848L142.55 140.614L142.451 140.438L142.426 140.321L142.278 139.588L142.253 139.5L142.203 139.413L142.129 139.325L142.054 139.266L141.955 139.237L141.831 139.208H141.385L141.211 139.237L141.087 139.325L141.062 139.442V139.559V139.881V139.998L141.038 140.116L140.988 140.204L140.938 140.291L140.616 140.555L140.318 140.76L140.145 140.819L133.994 140.643L133.226 138.827L133.052 138.153V138.036L133.474 136.893L133.523 136.717L133.548 136.512L133.573 136.19L133.548 136.014L133.126 134.14L133.002 133.935L132.878 133.788L132.606 133.495L132.159 132.909L132.06 132.646L132.085 132.528L132.159 132.44L132.234 132.382L132.382 132.353L133.077 132.235L133.945 131.972L134.069 131.855L134.193 131.737L134.242 131.357L134.267 131.21L134.342 131.064L134.441 131.005L134.54 131.034L135.036 131.357L135.458 131.591L135.854 131.65H136.276L136.45 131.562L136.574 131.474L136.673 131.21L136.921 130.068L136.97 129.921L137.194 129.335L137.243 129.16L137.268 129.042L137.243 128.925L137.169 128.837L137.094 128.779L136.995 128.749H136.896L136.846 128.662L136.871 128.515L137.243 127.871L137.268 127.753L137.318 127.695L137.342 127.578V127.46L137.392 127.021L137.367 126.728L137.392 126.64L137.442 126.494L137.516 126.259L137.59 126.171L137.69 126.113H137.913L139.227 126.816L139.5 126.875L139.55 126.904L139.698 126.933L140.07 127.548L140.294 127.841L140.889 128.105L141.162 128.339L141.434 128.515L141.732 128.398L142.352 128.867L142.972 129.013L146.072 128.251L146.246 128.134L147.163 127.109L147.312 126.933L147.386 126.728V126.552L147.337 126.435L147.262 126.289L147.138 126.23L147.014 126.201H146.89L146.618 126.259H146.518L146.444 126.23L146.419 126.084L146.444 125.937L146.816 124.883L146.94 124.385L147.014 124.092L147.138 123.799L147.51 123.183L147.585 123.037V122.832L147.386 122.598L147.312 122.48L147.287 122.334L147.312 122.187L147.51 121.689L147.61 121.191L147.56 120.4L147.386 119.873V119.697L147.461 119.551L147.758 119.404L147.858 119.287L147.957 119.024L147.982 118.848L147.907 118.672L147.808 118.496L147.684 118.086V117.735L147.734 117.383L147.907 116.768L148.031 116.475L148.155 116.211L148.329 116.006L148.502 115.831L148.701 115.772L148.899 115.801L149.122 115.918L149.42 116.182L149.668 116.358L149.941 116.475L150.164 116.534L150.462 116.475L150.784 116.299L151.826 115.45L151.974 115.391L152.098 115.42L152.247 115.508L152.669 115.948L153.165 116.621L153.19 116.709L153.214 116.797V117.002L153.115 117.354V117.471L153.14 117.559L153.165 117.647L153.214 117.735L153.388 117.998L153.661 118.321Z" fill="#158126" stroke="white" stroke-width="2" stroke-linecap="round" stroke-linejoin="round"/>
<path d="M164.3 145.066L164.201 145.184L164.126 145.271L164.102 145.418L164.077 145.74L164.176 146.619L164.573 147.058L166.334 147.791L167.499 147.849L168.07 148.113L168.119 148.201L168.243 148.465L168.318 148.552L168.417 148.582L168.665 148.523L168.764 148.552L168.888 148.816L168.913 149.109L168.739 150.808L168.814 151.365H168.838L168.615 151.57L168.367 151.687L167.326 151.746L167.127 151.804L166.978 151.892L166.879 151.951L166.805 152.038L166.681 152.156L166.606 152.331L166.557 152.478V152.654L166.681 153.181L166.755 153.972L167.102 154.704L167.127 154.792L167.152 154.909V155.056L167.127 155.173L167.102 155.319V155.437L167.078 155.554V155.671L167.102 155.788V155.905L167.152 155.993L167.177 156.228L167.202 156.345V156.462L167.152 156.638L167.078 156.813L166.929 157.077L166.854 157.253L166.83 157.429V157.81L166.805 157.897L166.755 157.985L166.656 157.956L166.582 157.897L166.309 157.575L166.259 157.517L166.185 157.458L166.086 157.399L165.862 157.341L165.639 157.312H165.441L165.242 157.37L165.044 157.487L164.92 157.604L164.821 157.722L164.746 157.81L163.878 159.802L163.73 160.036L163.482 160.358L163.333 160.475L163.11 160.622L162.539 160.798L162.44 161.09L162.266 161.413L162.018 161.735L161.473 162.262L161.398 162.409L161.299 162.702L161.225 163.053L161.076 164.166L160.952 164.694L160.927 164.811L160.729 165.045L159.142 166.569L158.323 167.096L158.15 167.154L157.629 167.272L157.505 167.36L157.381 167.565L157.158 168.004L157.009 168.443L156.934 168.678L156.86 168.941L156.761 169.205L156.662 169.439L154.901 171.373L154.777 171.578L154.702 171.929L154.628 172.779L154.554 173.072L154.33 173.599L153.884 173.921L153.71 173.336L153.239 172.925L152.718 172.603L152.148 172.427H151.057L150.61 172.281L149.147 171.461L148.478 170.465L148.056 169.967L147.585 169.732L146.642 169.41L145.75 168.561L145.353 168.297L144.386 168.121L142.947 167.301L142.451 167.242L142.054 167.447L141.36 168.092L140.988 168.356L139.996 168.443L139.029 168.063L136.648 166.158L135.21 165.016L133.275 163.463L131.911 161.969L129.977 159.919L129.01 159.186L126.902 158.308L125.042 157.048L122.016 154.001L121.198 152.742L121.421 152.478L122.735 150.75L123.405 150.222L125.389 149.256L126.158 148.933L128.563 147.908L128.638 147.849L128.712 147.762L128.737 147.586V147.439L128.687 147.351L128.638 147.264L128.191 146.59L128.092 146.414L128.018 146.209L127.993 146.121L127.968 146.004V145.887L127.993 145.769L128.092 145.594L128.216 145.359L129.307 143.953L129.406 143.865L129.506 143.807L129.679 143.777L129.828 143.807L130.002 143.719L130.175 143.543L131.614 141.844L132.283 141.229L133.722 140.848L133.994 140.643L140.145 140.819L140.318 140.76L140.616 140.555L140.938 140.291L140.988 140.204L141.038 140.116L141.062 139.998V139.881V139.559V139.442L141.087 139.325L141.211 139.237L141.385 139.208H141.831L141.955 139.237L142.054 139.266L142.129 139.325L142.203 139.413L142.253 139.5L142.278 139.588L142.426 140.321L142.451 140.438L142.55 140.614L142.699 140.848L143.443 141.727L143.89 142.078L144.237 142.401L144.286 142.518L144.336 142.664V142.987L144.311 143.338V143.485L144.336 143.66L144.361 143.895L144.435 144.041L144.51 144.129L145.477 144.422H145.998L146.221 144.334L146.518 144.1L147.907 143.309L147.982 143.279L150.065 142.723L150.338 142.694L150.685 142.987L151.553 143.777L151.776 143.924L151.974 143.983H152.074L153.165 143.455L153.289 143.309L153.76 142.459L153.859 142.342L153.983 142.225L154.206 142.078L154.454 141.99H154.653L155.769 142.196L157.009 142.488L157.306 142.547L157.604 143.192L157.654 143.514L157.554 144.1L157.53 144.451L157.554 144.627L157.604 144.744L157.703 144.832L157.802 144.891L157.902 144.949L158.1 144.979L159.687 144.92L159.861 144.861L159.935 144.832L160.01 144.744L160.059 144.656L160.109 144.539V144.422V144.334L160.084 144.1V143.983L160.853 144.041L164.3 145.066Z" fill="#158126" stroke="white" stroke-width="2" stroke-linecap="round" stroke-linejoin="round"/>
<path d="M153.884 173.921L154.33 173.599L154.554 173.072L154.628 172.779L154.702 171.929L154.777 171.578L154.901 171.373L156.662 169.439L156.761 169.205L156.86 168.941L156.934 168.678L157.009 168.443L157.158 168.004L157.381 167.564L157.505 167.359L157.629 167.271L158.15 167.154L158.323 167.096L159.142 166.568L160.729 165.045L160.927 164.811L160.952 164.693L161.076 164.166L161.225 163.053L161.299 162.701L161.398 162.409L161.473 162.262L162.018 161.735L162.266 161.413L162.44 161.09L162.539 160.797L163.11 160.622L163.333 160.475L163.482 160.358L163.73 160.036L163.878 159.801L164.746 157.809L164.821 157.721L164.92 157.604L165.044 157.487L165.242 157.37L165.441 157.311H165.639L165.862 157.341L166.086 157.399L166.185 157.458L166.259 157.516L166.309 157.575L166.582 157.897L166.656 157.956L166.755 157.985L166.805 157.897L166.83 157.809V157.428L166.854 157.253L166.929 157.077L167.078 156.813L167.152 156.638L167.202 156.462V156.345L167.177 156.227L167.152 155.993L167.102 155.905V155.788L167.078 155.671V155.554L167.102 155.436V155.319L167.127 155.173L167.152 155.056V154.909L167.127 154.792L167.102 154.704L166.755 153.972L166.681 153.181L166.557 152.653V152.478L166.606 152.331L166.681 152.155L166.805 152.038L166.879 151.95L166.978 151.892L167.127 151.804L167.326 151.745L168.367 151.687L168.615 151.57L168.838 151.365L169.086 151.657L170.922 152.038L171.318 152.009L172.41 151.57L172.608 151.452L172.806 151.394H173.03L173.253 151.511L173.377 151.57L173.6 151.833L173.823 151.892L174.071 151.775L174.319 151.57L174.418 151.54H174.542H174.666L174.79 151.57L175.014 151.892L175.485 153.181L175.906 153.913L176.055 154.353L176.03 154.821L175.906 155.202L175.733 155.495L175.51 155.729L175.262 155.876L174.914 155.964H174.666L174.518 156.081L174.468 156.55L174.493 156.784L174.592 156.96L174.642 157.165V157.428L174.567 157.546L174.195 157.868L174.096 158.19L174.121 158.571L174.319 159.391L174.344 159.831L174.294 161.09L174.344 161.559L174.443 161.852L174.79 162.496L174.89 162.819L174.914 163.522L174.964 163.815L175.088 164.137L175.658 164.781L176.204 165.924L176.452 166.246L177.196 166.744L178.337 167.945L178.684 168.59L178.734 169.439L178.51 170.699L178.163 171.9L177.593 172.925L177.419 173.335L177.295 173.687L177.246 174.038L177.122 174.302L176.898 174.507L176.675 174.566L176.006 174.683L175.559 174.859L175.311 175.181L174.691 177.378L174.27 178.374L173.228 180.102L172.434 180.981L171.69 182.094L171.095 183.354L170.674 184.672L170.624 185.58L170.922 187.28L170.971 188.188L170.897 188.949L170.723 189.682L170.45 190.326L170.376 190.619L170.326 190.238L170.153 189.945L169.905 189.77L169.607 189.682L169.086 189.711L168.888 189.682L168.739 189.564L168.417 189.301L168.268 189.242L168.094 189.272L167.822 189.359L167.673 189.389L167.574 189.477L167.499 189.682L167.375 189.887L167.226 189.975L166.978 189.711L166.706 188.832L166.383 188.627L166.086 188.744L165.813 188.979L165.342 189.535L165.069 189.799L164.771 189.975L164.449 190.062L164.102 190.121L163.73 190.209L163.184 190.619L162.862 190.707L162.539 190.56L162.39 190.238L162.266 189.828L162.142 189.447L161.845 189.154L161.2 188.861L160.902 188.627L160.778 188.305L160.53 187.367L160.357 187.192L160.059 187.074L159.489 186.606L159.216 186.43H158.522L157.207 186.782L155.322 186.899L155.174 186.957L154.876 187.25L154.727 187.309H154.33L154.157 187.25L153.214 186.782L152.867 186.723L152.495 186.782L152.222 186.869L151.85 186.547L151.875 186.166L152.098 185.786L152.371 185.463L152.594 185.024L152.545 184.672L152.322 184.379L152.024 184.086L151.826 183.501L151.9 182.71L152.198 181.274L152.247 180.425L152.148 178.726L152.198 177.876L152.694 176.821L153.512 175.591L154.033 174.361L153.884 173.921Z" fill="#158126" stroke="white" stroke-width="2" stroke-linecap="round" stroke-linejoin="round"/>
<path d="M234.484 119.141L234.459 119.024L234.335 118.496L234.31 118.203L234.36 117.793L234.41 117.383V117.119V116.973L234.385 116.856L234.186 116.651L233.442 116.387L233.269 116.358L233.17 116.27L232.897 115.772L232.698 115.596L232.55 115.743L232.401 115.977L232.153 116.006L231.285 115.801L230.59 115.537L230.194 115.567L229.896 115.625L229.549 115.567L229.425 115.508L229.301 115.42L228.73 114.483L228.606 114.219L228.482 114.073L228.309 113.956L227.565 113.663L227.342 113.633L227.168 113.663L227.094 113.721L226.97 113.692L226.771 113.633L226.374 113.37H226.226L226.151 113.458L226.126 113.838L226.052 113.809L225.903 113.545L225.606 112.842L225.159 112.081L225.581 111.583L225.358 111.026L225.184 110.762L225.159 110.587L225.234 110.47L225.705 109.942L225.878 109.796L226.077 109.474L227.565 109.005L228.036 109.268L228.631 108.946L228.805 108.888H229.127L229.474 108.917L229.871 108.858L231.756 109.415L232.004 109.444L232.252 109.386L233.12 109.356L233.318 109.298L233.418 109.239L233.467 109.21L233.591 109.093L233.938 107.218L234.013 106.837L234.831 106.544L235.377 106.456L235.476 106.339L235.65 105.753L235.724 105.607L235.997 105.343L236.17 105.489L236.592 106.251L236.89 106.486L237.311 106.632L238.08 106.72L238.154 106.778L238.179 106.866V106.984L238.154 107.13V107.657L238.427 107.804L238.774 107.833L239.072 107.98L239.667 109.122L240.114 109.679L240.684 109.972L241.304 110.059L243.164 109.854L243.71 110.059L243.784 110.704L243.734 111.085L243.933 111.055L244.602 110.499L245.669 109.913L245.892 110.089L246.09 110.44L246.388 110.675L247.231 110.616L247.678 110.733L247.752 111.173L247.306 111.876L246.636 112.344L245.272 112.93L244.032 113.838L242.99 114.161L242.494 114.424L242.147 115.039L241.974 116.534L241.552 116.768L241.031 116.475H240.758L240.659 116.856L240.634 117.178L240.56 117.5L240.436 117.764L240.213 117.998L239.642 118.028L238.626 117.207L238.08 117.119L237.658 116.856L237.187 116.211L236.691 115.713L236.27 115.948L236.22 116.299L236.542 116.914L236.518 117.324L236.443 117.705V117.94L236.567 118.145L237.187 118.672L237.336 119.141V119.668L237.162 120.225L236.865 120.693L236.542 120.781L236.146 120.605L235.302 120.02L235.079 119.932L234.434 119.961L234.236 119.873L234.31 119.668L234.484 119.609L234.732 119.58L234.93 119.522L235.005 119.287L234.856 119.141L234.608 119.111L234.484 119.141Z" fill="#158126" stroke="white" stroke-width="2" stroke-linecap="round" stroke-linejoin="round"/>
<path d="M227.689 131.532L227.466 131.591L227.118 131.444L226.821 131.298L226.523 131.034L226.374 130.712L226.622 130.36H226.97L227.218 130.214L227.738 129.745L228.11 129.599L228.16 129.833L227.838 131.268L227.689 131.532ZM219.232 128.427L219.331 128.456L219.406 128.398L219.554 128.251L219.654 128.193L220.001 128.075L220.199 128.134L220.298 128.339L220.199 128.691L219.53 129.247L219.306 129.511L219.331 130.097L219.976 130.888L219.951 131.591L219.778 131.854L219.579 131.942H219.108L218.414 132.177L218.215 132.147L218.042 131.942L218.017 131.708L217.942 131.532L217.67 131.503L217.496 131.649L217.298 131.884L217.099 132.03L216.926 131.913L216.901 131.356L217.521 130.214L217.446 129.54L217.273 129.394L216.901 129.306L216.702 129.189L216.554 128.896L216.182 127.987L216.107 127.607L216.132 127.255L216.206 126.845L216.454 126.171L216.901 125.878L217.223 126.113L217.471 126.64L217.67 127.255L217.918 127.636L218.314 127.929L219.108 128.339L219.158 128.398L219.232 128.427ZM225.159 112.081L225.606 112.842L225.903 113.545L226.052 113.809L226.126 113.838L226.151 113.457L226.226 113.37H226.374L226.771 113.633L226.97 113.692L227.094 113.721L227.168 113.662L227.342 113.633L227.565 113.662L228.309 113.955L228.482 114.073L228.606 114.219L228.73 114.483L229.301 115.42L229.425 115.508L229.549 115.567L229.896 115.625L230.194 115.567L230.59 115.537L231.285 115.801L232.153 116.006L232.401 115.977L232.55 115.742L232.698 115.596L232.897 115.772L233.17 116.27L233.269 116.358L233.442 116.387L234.186 116.651L234.385 116.856L234.41 116.973V117.119V117.383L234.36 117.793L234.31 118.203L234.335 118.496L234.459 119.023L234.484 119.141L233.839 119.17L233.591 119.228L232.624 119.873L232.5 120.107L232.401 120.517L232.202 121.133L231.83 121.601L230.566 122.334L230.491 122.656L230.59 123.007L230.863 123.212L231.285 123.447L231.483 123.623L231.558 123.798L231.458 124.033L231.26 124.091L231.037 124.062L230.863 123.974L230.764 123.945H230.665L230.491 124.003L229.946 123.945L229.375 123.798L228.83 123.828L228.383 124.355L228.135 125.058L227.962 125.38L227.738 125.644L226.97 126.171L226.771 126.23L226.474 126.083L226.399 125.732V124.824L226.3 124.384L226.102 123.886L225.829 123.623L225.581 123.886L225.482 124.326L225.457 124.707L225.333 124.97L224.986 124.999L224.291 124.853L223.969 124.677L223.671 124.472L223.398 124.15L223.274 123.828L223.15 123.564L222.506 123.33L222.059 122.832L221.762 122.802L221.315 122.861L221.067 122.832L220.869 122.714L220.72 122.509L220.596 122.275L220.447 122.158L220.249 122.216L220.001 122.627L219.877 123.125L219.678 123.505L219.232 123.564L217.546 123.271L216.702 123.447L216.182 124.062L215.884 124.033L214.619 124.179L212.561 124.912L211.941 124.97L211.346 124.941L210.75 124.443L210.502 123.505L210.304 122.451L209.932 121.718L209.61 121.572L209.337 121.601L209.064 121.689L208.742 121.718L208.444 121.631L207.725 121.25L207.923 120.459L207.874 120.371L207.75 120.195L207.725 120.166L207.551 119.844L207.526 119.785L207.502 119.668L207.477 119.199L207.7 118.76L208.122 118.437L209.114 118.174L209.262 118.086L209.411 117.881L209.758 117.178L209.957 116.943L210.155 116.826L210.354 116.768L210.577 116.651L210.75 116.445L211.271 115.713L212.139 114.864L212.362 114.629L212.561 114.424L212.685 114.366L212.933 114.307L212.982 114.219L213.007 114.102L213.057 114.014L213.28 113.838L213.652 113.575L213.801 113.34L213.925 113.135L214.098 112.93L214.322 112.784L214.52 112.754L214.917 112.813L215.115 112.784L215.785 112.051H216.082L216.306 112.168L216.43 112.256L216.529 112.374L216.975 112.432L218.612 112.344L217.694 113.809L217.769 113.926L218.339 113.985L218.438 114.043L218.86 114.571L218.959 114.629L219.108 114.688L219.381 114.746L219.53 114.805L219.827 115.098L220.497 115.537L220.695 115.596L221.018 115.537L221.96 114.483L222.406 113.633L222.704 113.37L223.969 112.549L225.159 112.081Z" fill="#158126" stroke="white" stroke-width="2" stroke-linecap="round" stroke-linejoin="round"/>
<path d="M234.013 106.837L233.939 107.218L233.591 109.093L233.467 109.21L233.418 109.239L233.319 109.298L233.12 109.356L232.252 109.386L232.004 109.444L231.756 109.415L229.871 108.858L229.475 108.917L229.127 108.888H228.805L228.631 108.946L228.036 109.268L227.565 109.005L226.077 109.473L225.879 109.796L225.705 109.942L225.234 110.469L225.159 110.587L225.184 110.762L225.358 111.026L225.581 111.583L225.159 112.081L223.969 112.549L222.704 113.37L222.407 113.633L221.96 114.483L221.018 115.537L220.695 115.596L220.497 115.537L219.827 115.098L219.53 114.805L219.381 114.746L219.108 114.688L218.959 114.629L218.86 114.571L218.439 114.043L218.339 113.985L217.769 113.926L217.695 113.809L218.612 112.344L216.975 112.432L216.529 112.374L216.43 112.256L216.306 112.168L216.083 112.051H215.785L215.115 112.784L214.917 112.813L214.52 112.754L214.322 112.784L214.099 112.93L213.925 113.135L213.801 113.34L213.652 113.575L213.28 113.838L213.305 113.663L213.429 112.901L212.883 112.52L211.569 112.139L211.346 111.817L211.296 111.407L211.445 111.143L211.718 111.085L212.214 111.612L212.511 111.729L212.536 111.319L212.412 111.114L209.783 107.599L209.337 107.13L209.287 107.071L209.263 106.983L208.965 106.632L209.089 106.105L209.039 104.435L208.99 103.937L208.692 103.351L208.395 102.882L208.32 102.706L208.271 102.56V102.384L208.295 102.267L208.568 101.564L208.618 101.417L208.692 101.124L208.643 100.919L208.246 100.861L208.196 100.773L208.147 100.656L208.122 100.304L208.097 100.041L208.122 99.8941L208.147 99.7476L208.866 98.6344L208.99 98.3708L209.163 97.8142H209.263L209.734 97.6091L211.519 96.4081L211.991 96.3202L212.263 96.5252L212.511 96.9061L213.33 98.5465L213.454 99.0153L213.479 99.484L213.28 100.89L213.305 101.271L213.479 101.593L213.702 101.564L213.999 101.388L214.322 101.359L214.595 101.505L214.843 101.71L215.091 102.003L215.289 102.326L215.537 102.618L215.835 102.648L216.455 102.56L217.149 102.706L217.471 102.882L217.769 103.146L218.017 103.322L218.563 103.409L218.786 103.644L219.158 104.347L219.381 104.552L219.53 104.113L219.505 103.644L219.431 103.234L219.455 102.911L219.753 102.706L220.1 102.765L220.274 103.029L220.447 103.878L220.571 104.2L220.77 104.435L220.968 104.405L221.117 103.966L221.464 103.439L222.456 104.435L222.779 104.113L222.853 103.322L222.729 99.4254L222.828 99.1324L223.027 99.191L223.721 99.9527L224.341 100.275L224.837 100.158L225.234 99.6597L225.705 98.4294L225.903 97.6677L225.978 97.2283L225.928 96.8182L225.507 96.1737L225.358 95.7929L225.655 94.9433L225.829 94.6797L226.151 94.5332L226.474 94.5918L226.647 94.8847L226.722 95.3241V95.7929L226.449 97.0818L226.474 97.3455L226.598 97.4041L226.697 97.2283L226.747 96.9939L226.821 96.8475L226.97 96.9353L227.044 97.2869L227.193 97.3748L227.292 97.2576L227.317 96.7596L227.416 96.6717L227.515 96.7303L227.639 96.8475L229.003 99.2496L229.227 99.9234L229.301 100.685L229.276 101.622L229.351 102.589L229.723 102.794L230.863 102.56L231.211 102.911L231.434 103.292L231.682 103.439L232.103 103.146L232.426 102.794L232.773 102.56L233.12 102.472L233.492 102.736L233.641 103.175L233.715 103.79L233.74 104.435L233.864 105.607V106.046L233.765 106.456L233.567 107.013L234.013 106.837ZM211.643 108.067L211.47 107.511L211.271 107.13L210.924 106.778L210.527 106.573L210.304 106.632L210.453 107.101L210.726 107.423L211.147 108.097L211.395 108.36L211.668 108.448L211.643 108.067Z" fill="#158126" stroke="white" stroke-width="2" stroke-linecap="round" stroke-linejoin="round"/>
<path d="M177.394 114.571L177.345 115.479L177.171 115.713L176.378 115.889L176.179 115.918L176.105 115.977L176.03 116.036L176.006 116.153L175.981 116.68L175.882 117.53L175.931 117.647L176.006 117.735L176.229 117.676L176.502 117.588H176.626L176.675 117.852L174.964 122.48L174.914 122.803L174.865 123.154L174.939 123.769L174.989 123.945L175.063 124.121L175.138 124.179L175.534 124.267L178.808 124.355L183.123 123.095H183.173L183.198 123.125L183.123 123.301L183.049 123.418L182.999 123.535L182.925 123.681L182.726 124.531L182.677 124.677L182.627 124.882L182.801 125.263V125.293L182.23 125.468L181.933 125.732L182.305 126.201L182.95 126.699L183.446 126.933L183.594 126.904L182.974 127.87L182.751 128.339L182.677 128.574V128.749V128.896L182.702 129.013L182.751 129.218L182.85 129.452L182.95 129.863L182.999 130.068L183.024 130.185V130.39L182.999 131.122L182.95 131.239H182.875L182.85 131.151L182.776 131.064L182.702 131.034L182.627 131.005L182.503 131.093L182.478 131.181L182.528 131.269L182.578 131.357L182.85 131.532L182.925 131.62L182.95 131.708L182.925 131.825L182.9 131.972L182.826 132.177L182.801 132.528L182.776 132.733H182.726L182.578 132.704L182.429 133.202L182.28 136.776L182.206 137.303L182.007 137.743L181.66 138.153L181.04 138.622L180.842 138.944L181.015 139.383L180.718 139.53L179.825 139.823L179.13 139.881L178.411 139.823L177.246 139.325L175.088 139.266L170.153 137.743L169.483 137.713L168.938 137.918L167.598 139.061L166.458 139.266L166.16 139.618L166.259 140.584L166.21 140.672L166.16 140.731L166.086 140.76L166.011 140.789L165.639 140.731L165.416 140.76L164.325 139.618L163.73 139.002L163.531 138.709L163.382 138.329L163.407 136.805L163.457 136.63L163.556 136.424L163.73 136.366H164.176L164.3 136.337L164.424 136.278L164.498 136.161L164.523 136.044V135.78V135.634L164.498 135.428L164.474 135.311L164.449 135.165V134.96V134.638L164.498 134.491L164.523 134.374L164.622 134.257L164.846 134.052L165.317 133.759L165.614 133.642L166.011 133.524H166.11L166.334 133.466L166.383 133.29L166.011 131.21L165.763 130.741L163.258 130.185L162.936 130.155L162.787 130.214L162.663 130.185L162.564 130.126L162.316 129.95H162.217L162.118 129.98L161.894 130.009L161.721 129.98L160.58 129.599L160.406 129.277L160.357 129.306H160.282L160.084 129.394L159.588 128.749L159.563 128.632V128.427L159.613 128.281L159.588 127.988L159.514 127.841L159.414 127.753H159.315H159.216L159.142 127.783L158.869 127.929L158.794 127.958L158.67 127.988H158.546L158.373 127.929L158.323 127.841L158.274 127.724L158.199 126.728L158.224 126.611L158.249 126.494L158.323 126.435L158.596 126.347L158.67 126.259L158.72 126.201L158.77 125.996L158.794 125.468L158.398 124.912L158.348 124.736V124.56L158.398 124.443V124.267L158.348 124.179L158.274 124.091L157.976 123.945L157.877 123.828L157.827 123.711L157.778 123.623L157.579 122.451L157.554 122.07L157.53 121.016V120.869L157.554 120.723L157.579 120.605L157.703 120.254L157.778 119.932L157.802 119.639L157.778 119.404L157.703 119.199L157.604 118.906L157.53 118.789L157.455 118.701L157.356 118.731L156.984 118.818L156.662 118.848L156.414 118.789L156.19 118.731L155.595 118.526L153.785 118.438L153.661 118.32L155.868 113.253L156.265 112.051L155.942 111.378L155.818 110.997L155.794 110.88V110.499L155.843 110.089V109.884V109.708L155.794 109.62L155.744 109.532L155.67 109.444L154.38 109.034L154.182 108.888L154.082 108.829L153.958 108.653L153.884 108.448L153.834 108.36L153.81 108.243L153.586 105.079L153.76 104.816L153.884 104.464L155.645 103.615V103.527L156.463 103.79L158.15 103.673L159.563 103.556L163.184 103.292L165.044 103.175L168.07 102.941L169.905 102.824L170.252 102.941L170.847 103.322L171.17 103.439L171.442 103.38L171.864 103.058L172.286 102.736L172.633 102.443L172.732 102.794L172.806 103.087L172.856 103.146L172.955 103.38L173.278 103.878L173.6 104.376L173.749 104.786L173.798 105.226L173.848 105.636L173.947 105.841L174.046 106.017L174.22 105.841L174.394 105.753L174.567 105.782L174.741 106.017L174.939 105.519L175.237 105.489L175.286 105.958V106.017L175.262 106.222L175.41 106.28L175.435 106.31L175.113 106.603L174.989 106.691L175.113 106.749L175.162 106.866L175.286 107.13V107.774L175.212 108.155L175.138 108.536L175.038 108.888L174.939 109.268L174.716 109.854L174.542 110.147L174.344 110.44L174.096 110.645L173.6 110.938L173.451 111.055L173.426 111.231L173.501 111.319L174.071 111.466L174.518 111.759L175.832 113.311L176.328 113.751L176.799 114.219L177.394 114.571Z" fill="#158126" stroke="white" stroke-width="2" stroke-linecap="round" stroke-linejoin="round"/>
<path d="M182.776 132.733L182.801 132.528L182.826 132.177L182.9 131.972L182.925 131.825L182.95 131.708L182.925 131.62L182.85 131.532L182.578 131.356L182.528 131.269L182.478 131.181L182.503 131.093L182.627 131.005L182.702 131.034L182.776 131.063L182.85 131.151L182.875 131.239H182.95L182.999 131.122L183.024 130.39V130.185L182.999 130.067L182.95 129.862L182.85 129.452L182.751 129.218L182.702 129.013L182.677 128.896V128.749V128.573L182.751 128.339L182.974 127.87L183.594 126.904L186.967 126.113L187.637 126.669L187.736 126.992L187.761 127.343V127.665L187.637 127.929L187.314 127.988L186.248 127.812L185.975 127.9L185.454 128.427L185.256 128.515L184.934 127.812L184.71 127.607L184.537 128.017L184.562 128.222L184.81 128.456L184.859 128.632L184.834 129.071L184.859 129.277L184.934 129.511L186.198 131.591L186.248 132.089L185.628 132.382L185.306 131.767L185.082 130.829L184.785 130.067L184.487 129.804L184.388 129.98L184.438 130.39L184.586 130.888L184.909 131.679L184.884 132.001L184.71 132.44L184.661 132.47L184.512 132.499L184.462 132.528L184.363 132.88V133.026L184.338 133.231L184.239 133.378L184.041 133.261L183.669 132.528L183.421 132.294L182.925 132.821L182.776 132.733ZM189.026 124.56L188.554 124.267L188.232 124.209L185.901 124.648L185.603 124.794L185.107 125.117L184.76 125.175L183.942 125L183.619 125.029L182.801 125.293V125.263L182.627 124.882L182.677 124.677L182.726 124.531L182.925 123.681L182.999 123.535L183.049 123.418L183.123 123.3L183.198 123.125L183.173 123.095H183.123L178.808 124.355L175.534 124.267L175.138 124.179L175.063 124.121L174.989 123.945L174.939 123.769L174.865 123.154L174.914 122.802L174.964 122.48L176.675 117.852L176.626 117.588H176.502L176.229 117.676L176.006 117.735L175.931 117.647L175.882 117.529L175.981 116.68L176.006 116.153L176.03 116.035L176.105 115.977L176.179 115.918L176.378 115.889L177.171 115.713L177.345 115.479L177.394 114.571L178.51 115.274L180.197 116.328L180.246 116.211L180.42 116.006H180.643L180.742 115.86L180.842 115.655L180.966 115.567L181.139 115.596L181.71 115.918L182.082 116.006L182.404 115.772L182.478 115.479L182.206 115.303L182.553 114.629L182.578 114.483L182.454 114.219L182.379 113.956L182.305 113.663L182.33 113.37L181.958 113.282L181.834 113.194L181.71 113.018L181.61 112.579L181.536 111.641L181.462 110.704L181.486 110.528L181.511 110.352L181.61 110.235L181.685 110.147L181.784 109.913L181.809 109.679L181.759 109.181L181.784 108.946L181.834 108.976L181.982 109.034L182.032 109.093L182.206 108.565L182.602 108.243L182.9 108.067L183.644 108.858L183.743 109.063L183.793 109.298L183.818 109.825L183.867 110.001L183.942 110.059L184.066 109.942H184.115L184.165 110.089L184.214 110.47L184.438 110.352L184.76 110.44L185.082 110.587L185.306 110.792L185.43 110.997L185.578 111.378L185.702 111.524L185.802 111.612L186.174 111.846L186.347 111.993L186.422 112.11L186.57 112.491V112.579L186.546 112.842L186.57 112.96L186.67 113.047L186.769 113.077L186.868 113.047L186.967 113.077L187.166 113.311L187.314 113.575L187.364 113.868L187.166 114.161L187.389 114.336L187.587 114.249L187.786 114.102L188.009 114.014L188.158 114.102L188.083 114.336L187.86 114.776L188.48 114.659L188.728 114.688L188.902 115.245L189.174 115.508L189.249 115.713L189.174 115.889L188.951 116.153V116.328L189.05 116.416L189.199 116.299L189.348 116.094L189.497 116.006L189.621 116.094L189.72 116.241V116.387L189.348 116.592L189.224 116.914L189.05 117.705L189.224 117.676L189.373 117.705L189.522 117.764L189.646 117.881L189.373 118.057L189.398 118.233L189.546 118.408L189.646 118.555L189.67 118.731L189.72 118.936L189.745 119.141L189.695 119.316L189.472 119.639L189.398 119.814L189.323 120.02L189.274 120.195L188.976 122.246L189.174 122.861L189.274 123.037L189.298 123.359L189.1 124.238L189.026 124.56Z" fill="#158126" stroke="white" stroke-width="2" stroke-linecap="round" stroke-linejoin="round"/>
<path d="M209.163 97.8143L208.989 98.3709L208.865 98.6345L208.146 99.7477L208.121 99.8942L208.097 100.041L208.121 100.304L208.146 100.656L208.196 100.773L208.245 100.861L208.642 100.919L208.692 101.125L208.617 101.417L208.568 101.564L208.295 102.267L208.27 102.384V102.56L208.32 102.706L208.394 102.882L208.692 103.351L208.989 103.937L209.039 104.435L209.089 106.105L208.965 106.632L208.791 106.398L208.146 106.075L207.601 106.251L207.204 108.624L206.41 109.737L205.369 110.499L203.881 111.202L202.517 112.432L199.863 113.428L199.541 113.604L199.243 113.897L198.648 114.805L198.301 115.157L197.929 115.303L197.482 115.127L197.284 114.922L197.135 114.688L196.887 114.161L196.713 113.926L196.366 113.633L196.193 113.458L195.622 112.432L195.3 112.051L194.829 111.993L194.605 111.846L194.432 111.612L194.233 111.436L193.985 111.407L193.514 111.583L193.291 111.729L193.068 111.934L192.721 112.491L192.497 113.077L192.398 113.75L192.373 114.571L192.473 115.772L192.423 116.065L192.2 116.211L191.332 116.299L190.811 116.739V117.207L191.381 118.35H191.406L191.704 119.609L191.853 120.019L192.225 120.81L192.373 121.25L192.473 121.748L192.349 122.832L191.902 122.92L191.332 122.685L190.96 122.744L191.034 123.388L192.076 124.502V125.029L191.53 125.322L190.811 125.293L189.522 124.853L189.026 124.56L189.1 124.238L189.298 123.359L189.274 123.037L189.174 122.861L188.976 122.246L189.274 120.195L189.323 120.019L189.398 119.814L189.472 119.639L189.695 119.316L189.745 119.141L189.72 118.936L189.67 118.731L189.646 118.555L189.546 118.408L189.398 118.233L189.373 118.057L189.646 117.881L189.522 117.764L189.373 117.705L189.224 117.676L189.05 117.705L189.224 116.914L189.348 116.592L189.72 116.387V116.241L189.621 116.094L189.497 116.006L189.348 116.094L189.199 116.299L189.05 116.416L188.951 116.328V116.153L189.174 115.889L189.249 115.713L189.174 115.508L188.902 115.244L188.728 114.688L188.48 114.659L187.86 114.776L188.083 114.336L188.158 114.102L188.009 114.014L187.786 114.102L187.587 114.248L187.389 114.336L187.166 114.161L187.364 113.868L187.314 113.575L187.166 113.311L186.967 113.077L186.868 113.047L186.769 113.077L186.67 113.047L186.57 112.96L186.546 112.842L186.57 112.579V112.491L186.422 112.11L186.347 111.993L186.174 111.846L185.802 111.612L185.702 111.524L185.578 111.378L185.43 110.997L185.306 110.792L185.082 110.587L184.76 110.44L184.438 110.352L184.214 110.469L184.165 110.089L184.115 109.942H184.066L183.942 110.059L183.867 110.001L183.818 109.825L183.793 109.298L183.743 109.063L183.644 108.858L182.9 108.067L183.47 107.774L183.768 107.364L184.041 106.456L184.314 105.548L184.487 105.284L184.71 105.021L185.206 104.757L185.678 104.493L186.05 103.761L186.149 103.615L186.223 103.468L186.521 103.351L187.141 103.263L187.414 103.117L187.662 102.97L187.91 102.765L188.158 102.56L188.406 102.267L188.53 102.003L188.629 100.919L188.753 99.8649L188.728 99.4841L188.703 99.2204L188.654 99.1325L188.579 99.0739L188.455 98.8689L188.406 98.6931L188.48 98.5173L188.604 98.4002L189.274 98.0193L189.546 97.9314L189.794 98.0486L189.943 97.5799L190.315 97.1698L190.687 96.8769L191.084 96.5839L191.332 96.496L191.753 96.7011L191.952 96.6718L192.522 96.2324L192.721 96.1738L193.167 96.2617L193.589 96.3495L193.762 96.2324L193.737 95.998L193.489 95.4707L193.44 95.2364L193.539 94.9434L193.638 94.6505L194.01 94.2989L194.829 94.006L195.573 93.3029L196.292 92.6292L196.515 92.3362L196.713 92.0725L196.961 91.8382L197.929 91.516L198.896 91.1937L199.714 91.1644L200.508 91.1058L201.103 90.8129L201.549 90.1977L201.748 89.8462L201.971 89.6411L202.368 89.4653L202.765 89.2896L203.98 88.235L204.153 87.9713L204.327 87.737L204.823 86.7117L205.319 85.7157L205.517 85.452L205.765 85.3055L206.038 85.1883L206.261 85.0419L206.46 84.8075L206.509 84.6025L206.559 84.3974L206.906 83.46L207.229 83.1377L207.526 82.8155L208.94 82.1124L209.138 82.1417L209.411 82.3761L209.634 82.669L209.758 82.9913L209.857 83.4014L210.081 83.665L210.378 83.8115L210.725 83.8701L210.949 83.7529L211.172 83.6357L211.469 82.962L211.618 82.5226L211.742 82.1124L212.065 81.3508L212.288 81.0871L212.486 80.7942L212.635 80.4719L212.759 80.0618L212.957 79.7103H213.305L213.974 79.9153L214.52 79.8275L214.793 79.681L215.065 79.5052L216.033 78.5678L216.355 78.2163L216.975 77.6304L217.446 77.5718L217.893 77.8061L219.926 79.5052L220.422 79.7103L220.224 80.5891L219.678 81.0285L218.488 81.4387L216.454 83.2256L215.859 83.4014L215.14 83.3721L214.569 83.5479L214.297 84.3974L214.272 85.7157L214.098 86.0965L213.602 86.3308L212.164 86.5066L211.717 86.8288L210.304 88.2643L209.684 89.1431L209.262 90.227L208.915 90.8422L208.469 91.1644L207.997 91.4574L207.154 92.2483L204.823 93.8888L204.501 94.4747L204.773 95.2071L205.294 95.5293L207.328 95.793L207.353 95.8222L207.873 96.2031L208.121 96.4667L208.345 96.789L208.692 97.5799L208.915 97.8143H209.163ZM193.192 100.246L193.043 100.041L193.167 99.8356L193.018 99.5719L192.82 99.4255L193.043 98.986L192.969 98.6052L192.448 98.1951L192.001 98.1365L191.654 97.8436L191.183 97.8729L190.414 98.781L190.29 99.4841L189.918 100.597L189.968 100.627L190.216 100.48L190.241 100.744L190.34 101.007L190.687 101.476L190.935 101.212V101.3L190.861 101.505L191.034 101.886L191.456 102.033L191.927 101.359L192.646 100.568L193.192 100.246Z" fill="#158126" stroke="white" stroke-width="2" stroke-linecap="round" stroke-linejoin="round"/>
<path d="M193.192 100.246L192.646 100.568L191.927 101.359L191.456 102.033L191.034 101.886L190.861 101.506L190.935 101.301V101.213L190.687 101.476L190.34 101.008L190.241 100.744L190.216 100.48L189.968 100.627L189.918 100.597L190.29 99.4843L190.414 98.7812L191.183 97.873L191.654 97.8438L192.002 98.1367L192.448 98.1953L192.969 98.6054L193.043 98.9862L192.82 99.4257L193.018 99.5721L193.167 99.8358L193.043 100.041L193.192 100.246Z" fill="#158126" stroke="white" stroke-width="2" stroke-linecap="round" stroke-linejoin="round"/>
</g>
<defs>
<clipPath id="clip0">
<rect width="248" height="191" fill="white"/>
</clipPath>
</defs>
</svg>
