<svg width="441" height="295" viewBox="0 0 441 295" fill="none" xmlns="http://www.w3.org/2000/svg">
<path d="M413.736 156.216C413.74 161.51 413.641 166.609 407.983 167.788C413.961 167.694 413.512 172.792 413.816 179.171C413.965 172.793 414.383 168.209 419.044 167.916C414.218 166.833 414.339 163.804 413.736 156.216Z" fill="#455A64"/>
<path d="M67.4346 36.9157C67.438 41.0843 67.359 45.1414 62.8842 46.0601C67.6169 45.9897 67.2601 50.0183 67.5008 55.0768C67.6202 50.0193 67.9465 46.4075 71.609 46.1814C67.7707 45.3093 67.8613 42.9196 67.4346 36.9157Z" fill="#455A64"/>
<path d="M399.609 205.677C399.677 213.764 399.468 221.545 390.827 223.341C399.963 223.2 399.27 230.979 399.73 240.721C399.969 230.995 400.591 224.049 407.711 223.555C400.343 221.881 400.534 217.268 399.609 205.677Z" fill="#FFC100"/>
<path d="M299.391 73.7985C299.448 80.5934 299.279 87.1236 292.016 88.6321C299.692 88.5143 299.11 95.0434 299.498 103.229C299.697 95.045 300.217 89.1827 306.205 88.8101C300.02 87.4036 300.171 83.5411 299.391 73.7985Z" fill="#FFC100"/>
<path d="M360.209 40.3955C360.211 43.383 360.162 46.2731 356.963 46.9313C360.348 46.9406 360.052 49.7188 360.261 53.3599C360.35 49.7613 360.575 47.1774 363.208 47.004C360.492 46.3852 360.562 44.6901 360.209 40.3955Z" fill="#FFC100"/>
<path d="M430.991 189.596C430.994 193.765 430.38 197.932 425.946 198.809C430.628 198.739 430.816 202.547 431.047 207.536C431.166 202.548 432.182 198.715 435.825 198.489C432.057 197.631 431.469 195.531 430.991 189.596Z" fill="#E0E0E0"/>
<path d="M435.947 277.291C435.95 281.209 435.367 285.627 431.168 285.824C435.583 285.752 435.741 289.519 435.96 294.175C436.08 289.464 436.664 285.714 440.492 285.849C436.633 285.547 436.414 282.92 435.947 277.291Z" fill="#FFC100"/>
<path d="M170.048 64.9998C170.051 69.4188 169.396 73.8499 164.663 74.8374C169.664 74.7539 169.863 78.8399 170.115 84.1628C170.244 78.8409 171.321 74.7306 175.252 74.4496C171.187 73.5769 170.557 71.3379 170.048 64.9998Z" fill="#E0E0E0"/>
<path d="M262.17 0.453524C262.173 4.87253 261.529 9.30365 256.796 10.2912C261.797 10.2076 261.996 14.2937 262.237 19.6166C262.366 14.2947 263.444 10.1844 267.375 9.90337C263.268 9.0444 262.69 6.79163 262.17 0.453524Z" fill="#E0E0E0"/>
<path d="M377.899 46.8994C377.904 53.5969 377.58 60.349 370.585 61.2052C377.581 61.6552 377.545 67.8523 377.922 75.9125C378.111 67.8539 378.271 61.6154 384.578 61.2437C378.218 60.4897 378.699 56.4893 377.899 46.8994Z" fill="#E0E0E0"/>
<path d="M7.84465 145.039C7.90155 151.736 7.52637 158.488 0.530722 159.344C7.52745 159.808 7.49133 165.991 7.86831 174.066C8.0675 165.993 8.21676 159.768 14.5234 159.383C8.16445 158.712 8.61384 154.642 7.84465 145.039Z" fill="#E0E0E0"/>
<path d="M45.5017 83.7731C45.5572 76.1447 45.3459 69.3493 37.1954 67.6178C45.8076 67.7943 45.153 59.9278 45.5674 50.7441C45.8012 59.9296 46.8469 67.7972 53.5558 68.2603C46.6119 69.8808 46.3571 72.8954 45.5017 83.7731Z" fill="#FFC100"/>
</svg>
