<svg width="35" height="35" viewBox="0 0 35 35" fill="none" xmlns="http://www.w3.org/2000/svg">
<path d="M17.5 0C10.2616 0 4.375 5.88656 4.375 13.125C4.375 22.2228 16.2225 34.1753 16.7256 34.6806C16.94 34.8928 17.22 35 17.5 35C17.78 35 18.06 34.8928 18.2744 34.6806C18.7775 34.1753 30.625 22.2228 30.625 13.125C30.625 5.88656 24.7384 0 17.5 0Z" fill="url(#paint0_linear)"/>
<path d="M17.5 19.6875C21.1244 19.6875 24.0625 16.7494 24.0625 13.125C24.0625 9.50063 21.1244 6.5625 17.5 6.5625C13.8756 6.5625 10.9375 9.50063 10.9375 13.125C10.9375 16.7494 13.8756 19.6875 17.5 19.6875Z" fill="#FDFFE1"/>
<defs>
<linearGradient id="paint0_linear" x1="17.5" y1="0" x2="17.5" y2="35" gradientUnits="userSpaceOnUse">
<stop stop-color="#F24747"/>
<stop offset="1" stop-color="#D094FF"/>
</linearGradient>
</defs>
</svg>
