<svg width="203" height="88" viewBox="0 0 203 88" fill="none" xmlns="http://www.w3.org/2000/svg">
<g filter="url(#filter0_d)">
<path d="M145.771 17.7876C161.09 20.7723 172.47 25.251 177.971 30.4602C183.472 35.6696 182.754 41.2874 175.94 46.3565C169.126 51.4255 156.637 55.6322 140.6 58.2597C124.564 60.8872 105.973 61.773 87.9945 60.7661C70.0163 59.7593 53.7634 56.922 42.005 52.738C30.2466 48.5538 23.7104 43.2816 23.5099 37.8197C23.3094 32.3578 29.4572 27.0441 40.9057 22.7841C52.3541 18.5239 68.395 15.581 86.295 14.4568L102.568 37.561L145.771 17.7876Z" fill="#FDFF94"/>
</g>
<path d="M140.745 26.5278L138.62 23.6099C135.823 23.6099 132.973 25.2182 131.599 28.8564C131.139 30.0734 130.198 30.9861 129.273 32.0953C127.203 34.5719 126.664 38.3898 127.554 41.3321C128.858 45.6471 133.924 48.3321 138.62 48.3321L140.745 46.7544V26.5278Z" fill="#C7E62E"/>
<path d="M149.686 41.3321C148.393 45.6102 143.354 48.3321 138.62 48.3321V23.6099C141.775 23.6099 144.399 25.5711 145.641 28.8557C146.098 30.0665 147.007 30.9454 147.967 32.0953C150.029 34.5631 150.579 38.3792 149.686 41.3321Z" fill="#95CC29"/>
<path d="M133.592 30.4894C134.418 28.3052 136.087 26.5217 138.619 26.5217L140.036 25.5828L138.619 24.6438C135.821 24.6438 132.971 26.2531 131.597 29.8903C130.654 32.3937 128.065 33.1155 127.3 37.5933C127.022 39.2134 127.113 40.9087 127.553 42.3659C128.144 44.3222 129.517 46.0275 131.521 47.2977C133.575 48.5991 136.057 49.366 138.619 49.366L139.671 48.3855L138.619 47.4617C136.654 47.4648 134.61 46.9521 132.741 45.7664C131.115 44.7373 130.055 43.4289 129.585 41.8771C128.817 39.3329 129.394 36.1253 130.961 34.2517C131.915 33.1093 133.01 32.035 133.592 30.4894Z" fill="#C7E62E"/>
<path d="M149.685 42.3659C148.392 46.6453 143.352 49.366 138.619 49.366V47.4617C142.836 47.4554 146.687 45.0741 147.652 41.8776V41.8771C148.421 39.3324 147.843 36.1253 146.278 34.251C145.329 33.1142 144.229 32.0369 143.645 30.4894C143.194 29.2962 141.802 26.5217 138.619 26.5217V24.6438C141.774 24.6438 144.398 26.605 145.64 29.8897C146.586 32.3943 149.173 33.1162 149.938 37.5933C150.216 39.2134 150.125 40.908 149.685 42.3659Z" fill="#95CC29"/>
<path d="M50.3354 29.0272C50.5406 29.2676 50.6859 29.4479 50.7713 29.5681C51.4039 30.3236 51.8569 30.9761 52.1304 31.5255C52.421 32.0578 52.5663 32.7447 52.5663 33.586C52.5663 34.4102 52.3953 35.243 52.0535 36.0844C51.7287 36.9086 51.25 37.6211 50.6175 38.2221C50.0021 38.8059 49.267 39.1837 48.4123 39.3554C47.3695 39.5786 46.4806 39.6902 45.7455 39.6902C45.2498 39.6902 44.7626 39.6645 44.2839 39.6129L43.5146 39.5872V39.7932C43.5146 39.8619 43.4975 39.922 43.4633 39.9735C43.4292 40.0079 43.395 40.068 43.3608 40.1538V45.5368C43.3608 45.5368 43.3095 45.5884 43.2069 45.6914C42.8479 45.6914 42.4462 45.6313 42.0017 45.5111C41.5744 45.4081 41.241 45.2621 41.0017 45.0732C41.0017 44.0773 40.9419 42.8754 40.8222 41.4674C40.7196 39.8877 40.6684 38.7029 40.6684 37.913C40.6684 37.5696 40.7025 37.106 40.7709 36.5222C40.8222 36.1788 40.8479 35.8869 40.8479 35.6465C40.8479 35.3718 40.8137 35.1486 40.7453 34.9768C40.694 34.788 40.6684 34.6592 40.6684 34.5905C40.6684 34.5218 40.694 34.4274 40.7453 34.3072C40.8137 34.187 40.8479 33.9809 40.8479 33.689C40.8479 33.5345 40.8137 33.3714 40.7453 33.1997C40.6769 33.028 40.6427 32.9164 40.6427 32.8648C40.6427 32.6931 40.6769 32.4527 40.7453 32.1437C40.8137 31.8346 40.8479 31.6028 40.8479 31.4483C40.8479 31.225 40.8051 31.0791 40.7196 31.0104C40.6342 30.9246 40.5145 30.873 40.3607 30.8559C40.2239 30.8215 40.1555 30.77 40.1555 30.7013C40.1555 30.564 40.2068 30.4438 40.3094 30.3407C40.4119 30.2206 40.5316 30.1519 40.6684 30.1347V28.5636C40.6684 28.4949 40.7538 28.4005 40.9248 28.2803C41.1128 28.1429 41.2325 28.0742 41.2838 28.0742H44.7967L45.1044 27.9197H47.9251C48.1302 27.9884 48.4037 28.1257 48.7456 28.3318C49.2756 28.658 49.8055 28.8898 50.3354 29.0272ZM46.0276 28.5636C45.6344 28.5636 45.301 28.6494 45.0275 28.8211C44.7711 28.9928 44.4805 29.2762 44.1557 29.6711C44.2583 29.6711 44.4634 29.611 44.7711 29.4908C45.0788 29.3706 45.2412 29.3191 45.2583 29.3363C45.1899 29.4221 45.0873 29.5166 44.9506 29.6196C44.8309 29.7054 44.7198 29.7655 44.6172 29.7999C44.7369 29.8342 44.8566 29.9029 44.9762 30.0059C45.0959 30.1089 45.2412 30.1605 45.4122 30.1605L45.7199 30.1347L45.4122 29.9544C45.6515 29.8342 45.9934 29.7741 46.4378 29.7741L47.0276 29.7999L47.284 29.5166C47.2669 29.5337 47.2584 29.5595 47.2584 29.5938C47.2584 29.6625 47.3268 29.714 47.4635 29.7484C47.6003 29.7827 47.7199 29.817 47.8225 29.8514C47.9251 29.8686 48.002 29.8771 48.0533 29.8771C48.549 29.9458 48.8311 30.0317 48.8995 30.1347L48.7456 30.2892C49.173 30.6327 49.4294 30.8473 49.5149 30.9331C49.5833 30.9847 49.6431 31.0705 49.6944 31.1907C49.7628 31.2937 49.8226 31.3796 49.8739 31.4483C49.9423 31.4998 50.0448 31.5341 50.1816 31.5513L49.8226 31.8604C49.8739 31.8947 49.985 31.9548 50.1559 32.0407C50.344 32.1265 50.4722 32.2381 50.5406 32.3755C50.6089 32.5128 50.6431 32.6931 50.6431 32.9164C50.6431 33.0537 50.6346 33.131 50.6175 33.1482C50.9081 32.9593 51.1389 32.7962 51.3098 32.6588C51.4979 32.5043 51.5919 32.324 51.5919 32.1179C51.5919 31.7402 51.515 31.5513 51.3611 31.5513C51.3098 31.5513 51.2244 31.5856 51.1047 31.6543C50.985 31.723 50.891 31.7917 50.8226 31.8604L50.797 31.7573C50.797 31.723 50.8483 31.62 50.9508 31.4483C51.0705 31.2594 51.1303 31.1392 51.1303 31.0877C51.1303 31.0533 51.0534 30.9246 50.8996 30.7013C50.7457 30.4781 50.5662 30.2721 50.3611 30.0832C50.1559 29.8943 49.9423 29.7999 49.72 29.7999L50.0021 29.4908C49.3354 29.1302 48.7114 28.8898 48.1302 28.7696C47.5661 28.6323 46.8652 28.5636 46.0276 28.5636ZM41.7453 30.5983C42.0359 30.5983 42.4462 30.4266 42.9761 30.0832C43.5232 29.7226 43.9164 29.4221 44.1557 29.1817C43.848 29.1817 43.5232 29.2676 43.1813 29.4393C42.8394 29.611 42.4206 29.8428 41.9248 30.1347H41.7453C41.9163 29.9287 42.1214 29.7484 42.3607 29.5938C42.6001 29.4221 42.8308 29.2676 43.0531 29.1302C43.2753 28.9928 43.4292 28.8984 43.5146 28.8469V28.6408C42.8821 28.6408 42.3693 28.6666 41.9761 28.7181C41.5829 28.7696 41.3863 28.9242 41.3863 29.1817H41.8735C41.8735 29.2161 41.8821 29.2418 41.8992 29.259C41.9163 29.2762 41.9248 29.3019 41.9248 29.3363C41.9248 29.3534 41.8393 29.4479 41.6684 29.6196C41.5145 29.7741 41.3863 29.8857 41.2838 29.9544C41.318 30.212 41.3607 30.3837 41.412 30.4695C41.4804 30.5554 41.5915 30.5983 41.7453 30.5983ZM47.284 29.5166L47.3097 29.4908L47.284 29.5166ZM46.0276 36.9601V37.1404C46.2498 36.9858 46.5746 36.8914 47.002 36.857C47.4464 36.8227 47.7114 36.7969 47.7969 36.7798C48.361 36.7454 48.7884 36.505 49.079 36.0586C49.3867 35.6122 49.6345 35.0112 49.8226 34.2557L50.0021 33.483C50.0021 33.1739 49.8311 32.7103 49.4892 32.0922C49.1473 31.4568 48.8482 31.0705 48.5918 30.9331C48.3524 30.8129 47.8311 30.7528 47.0276 30.7528L45.7199 30.7786C45.2925 30.7958 44.8395 30.8215 44.3608 30.8559C43.8822 30.873 43.5488 30.8988 43.3608 30.9331L43.2069 31.0877V31.6028V32.3755L43.2839 33.8178C43.3351 34.9511 43.3864 35.7925 43.4377 36.3419C43.489 36.8742 43.5659 37.1404 43.6685 37.1404H45.925L46.0276 36.9601ZM41.4633 31.0877C41.4633 31.1392 41.4804 31.1993 41.5145 31.268C41.5487 31.3195 41.5915 31.3624 41.6428 31.3967C41.9505 31.2937 42.1043 31.122 42.1043 30.8816C41.9505 30.8816 41.8052 30.8988 41.6684 30.9331C41.5316 30.9675 41.4633 31.019 41.4633 31.0877ZM42.5659 31.2165C42.3436 31.2165 42.0872 31.3538 41.7966 31.6286C41.506 31.8861 41.3607 32.1351 41.3607 32.3755H42.412C42.412 32.324 42.4291 32.178 42.4633 31.9376C42.5146 31.6972 42.5488 31.4568 42.5659 31.2165ZM41.4633 33.3027C41.7026 33.1138 41.8564 32.8992 41.9248 32.6588C41.8735 32.6416 41.8137 32.633 41.7453 32.633C41.6257 32.633 41.5402 32.6846 41.4889 32.7876C41.4376 32.8734 41.412 32.9679 41.412 33.0709L41.4633 33.3027ZM42.5915 33.4315C42.5915 33.0881 42.5317 32.8305 42.412 32.6588C42.2069 32.8133 42.0188 33.0537 41.8479 33.38C41.694 33.689 41.6171 33.9724 41.6171 34.2299C41.6171 34.4875 41.7026 34.6163 41.8735 34.6163C41.6855 34.6678 41.5573 34.7794 41.4889 34.9511C41.4376 35.1056 41.412 35.3117 41.412 35.5692C41.5829 35.5692 41.7197 35.5177 41.8223 35.4147C41.9248 35.2945 42.0359 35.1142 42.1556 34.8738C42.2753 34.5647 42.412 34.3587 42.5659 34.2557L42.5915 33.4315ZM50.7201 33.8951C51.1474 33.8951 51.4808 33.8608 51.7201 33.7921C51.9594 33.7234 52.0791 33.5517 52.0791 33.2769C52.0791 33.1052 52.0449 32.985 51.9765 32.9164C51.9252 32.8477 51.8312 32.8133 51.6945 32.8133C51.4209 32.8133 51.1902 32.9335 51.0021 33.1739C50.8141 33.3971 50.7201 33.6375 50.7201 33.8951ZM51.0021 34.0754C50.8654 34.0754 50.7286 34.1097 50.5919 34.1784C50.4722 34.2299 50.4124 34.3158 50.4124 34.436C50.8397 34.436 51.1303 34.3244 51.2842 34.1011L51.0021 34.0754ZM51.438 35.3632C51.5577 35.3632 51.6688 35.2172 51.7714 34.9253C51.874 34.6163 51.9252 34.393 51.9252 34.2557H51.7201C51.515 34.3415 51.2329 34.4789 50.8739 34.6678C50.5149 34.8567 50.3354 34.9854 50.3354 35.0541V35.3632H51.438ZM42.1043 34.5905C42.053 34.6077 41.9847 34.6163 41.8992 34.6163H41.8735C41.9248 34.5991 42.0018 34.5905 42.1043 34.5905ZM42.771 35.7753C42.771 35.5692 42.7539 35.4061 42.7197 35.2859C42.7026 35.1657 42.6513 35.0284 42.5659 34.8738C42.2924 35.097 42.0359 35.3889 41.7966 35.7495C41.5744 36.0929 41.4633 36.4106 41.4633 36.7025C41.9077 36.7025 42.2325 36.651 42.4377 36.548C42.6599 36.4278 42.771 36.1702 42.771 35.7753ZM49.5405 37.9388C49.6944 37.9388 49.9252 37.81 50.2329 37.5525C50.5577 37.2777 50.8397 36.9601 51.0791 36.5995C51.3355 36.2389 51.4637 35.9127 51.4637 35.6207C51.0705 35.6207 50.7115 35.7238 50.3867 35.9298C50.0619 36.1359 49.8995 36.4192 49.8995 36.7798H50.079C50.079 36.9343 49.72 37.106 49.002 37.2949C48.3012 37.4666 47.5148 37.6211 46.643 37.7585C45.7711 37.8959 45.1814 37.9646 44.8737 37.9646C44.8737 38.0332 44.8908 38.1277 44.9249 38.2479C44.9591 38.3509 45.019 38.4024 45.1044 38.4024H46.2071L45.925 38.0676H46.0276C46.113 38.0847 46.2669 38.1105 46.4891 38.1448C46.7113 38.162 46.9336 38.1964 47.1558 38.2479C47.1045 38.265 47.0789 38.2908 47.0789 38.3251C47.0789 38.4282 47.2584 38.4968 47.6174 38.5312C47.9764 38.5655 48.1473 38.5827 48.1302 38.5827C48.6943 38.5827 48.9764 38.4711 48.9764 38.2479H48.1046C48.1559 38.1964 48.2499 38.1363 48.3866 38.0676C48.5234 37.9989 48.6431 37.9474 48.7456 37.913L49.5405 37.9388ZM42.2582 36.9343C41.9163 36.9343 41.6684 36.9944 41.5145 37.1146C41.3607 37.2176 41.2838 37.4494 41.2838 37.81C41.5231 37.81 41.7368 37.7413 41.9248 37.604C42.13 37.4494 42.3436 37.2348 42.5659 36.9601L42.2582 36.9343ZM41.7453 38.2479C41.9847 38.2479 42.412 38.0933 43.0274 37.7843C42.9932 37.7156 42.9505 37.6297 42.8992 37.5267C42.865 37.4237 42.8479 37.3464 42.8479 37.2949H42.7454L41.7453 38.2479ZM43.2069 38.6857C43.4463 38.7887 43.7369 38.8488 44.0788 38.866C44.4377 38.866 44.6771 38.866 44.7967 38.866L44.3095 38.4024L44.6172 38.2479C44.6172 38.1277 44.5147 38.0676 44.3095 38.0676C44.0189 38.1019 43.7625 38.162 43.5403 38.2479C43.318 38.3166 43.2069 38.4625 43.2069 38.6857ZM42.8736 38.2479C42.7368 38.2822 42.5317 38.3337 42.2582 38.4024C41.9847 38.4539 41.7795 38.5398 41.6428 38.66C41.5231 38.7802 41.4633 38.9605 41.4633 39.2008L41.4376 39.3811C41.4376 39.57 41.506 39.6645 41.6428 39.6645L42.8736 38.4024V38.2479ZM46.0276 38.866C45.9934 38.7973 45.8823 38.7544 45.6942 38.7372C45.5062 38.7029 45.3609 38.6857 45.2583 38.6857C45.3438 38.7716 45.4207 38.8317 45.4891 38.866C45.5575 38.8832 45.6686 38.8918 45.8224 38.8918L46.0276 38.866ZM42.5659 39.2008C42.4462 39.2008 42.2838 39.3811 42.0787 39.7417C41.8735 40.0851 41.7624 40.2654 41.7453 40.2826C41.8992 40.2826 42.0701 40.2397 42.2582 40.1538C42.4633 40.068 42.5659 40.0079 42.5659 39.9735V39.2008ZM42.1812 40.6174C41.9932 40.6174 41.8479 40.6346 41.7453 40.6689C41.6428 40.7033 41.5915 40.7977 41.5915 40.9523C41.5915 41.0038 41.6086 41.0467 41.6428 41.081C41.9334 40.9437 42.1385 40.7891 42.2582 40.6174H42.1812ZM41.6428 41.7507C42.0359 41.7507 42.3009 41.6906 42.4377 41.5704C42.5744 41.433 42.6428 41.1669 42.6428 40.772H42.412L41.6428 41.5962V41.7507ZM42.5659 41.7249C42.4804 41.7593 42.3351 41.8108 42.13 41.8795C41.9419 41.931 41.8052 42.0083 41.7197 42.1113C41.6513 42.1971 41.6171 42.3345 41.6171 42.5234L41.6428 42.8582C41.677 42.8067 41.8223 42.6607 42.0787 42.4204C42.3522 42.18 42.5146 41.9482 42.5659 41.7249ZM42.1043 43.4764C42.3778 43.3733 42.5573 43.236 42.6428 43.0643C42.7283 42.8754 42.771 42.6092 42.771 42.2658C42.5488 42.2658 42.3607 42.3688 42.2069 42.5749C42.0701 42.7638 41.9163 43.0557 41.7453 43.4506C41.6599 43.6566 41.5658 43.8541 41.4633 44.043C41.3607 44.2319 41.2496 44.3692 41.1299 44.4551C41.318 44.644 41.4291 44.747 41.4633 44.7642C41.6513 44.7642 41.8906 44.6096 42.1812 44.3006C42.4719 43.9915 42.6172 43.7167 42.6172 43.4764H42.1043ZM42.2582 44.7642C42.412 44.7642 42.4975 44.7212 42.5146 44.6354C42.5488 44.5495 42.5659 44.4551 42.5659 44.3521C42.5659 44.2319 42.5659 44.1546 42.5659 44.1203C42.4462 44.1718 42.3693 44.2834 42.3351 44.4551C42.3009 44.6268 42.2753 44.7298 42.2582 44.7642Z" fill="#FF9900"/>
<path d="M70.5751 33.2253C71.823 34.0667 72.7119 35.0197 73.2419 36.0842C73.7889 37.1488 74.0624 38.4538 74.0624 39.9992L74.0368 40.8491C74.0026 40.935 73.9342 41.0037 73.8316 41.0552C73.7462 41.1067 73.6778 41.1582 73.6265 41.2097C73.5752 41.2612 73.5496 41.3557 73.5496 41.493C73.5496 41.5617 73.5581 41.6304 73.5752 41.6991C73.5923 41.7506 73.635 41.7935 73.7034 41.8278C73.6009 41.8278 73.5154 41.8965 73.447 42.0339C73.3957 42.1541 73.3102 42.3773 73.1906 42.7036C73.0538 43.1843 72.9171 43.4762 72.7803 43.5793C71.8401 44.2833 70.8401 44.7898 69.7802 45.0989C68.7203 45.4079 67.5493 45.5625 66.2672 45.5625L64.2671 44.3004C63.9765 44.3004 63.7372 44.206 63.5492 44.0171C63.3611 43.8282 63.1731 43.5449 62.985 43.1672C62.8654 42.9783 62.7372 42.7894 62.6004 42.6005C62.4636 42.3945 62.3183 42.2399 62.1645 42.1369C61.9252 41.5531 61.7628 40.9521 61.6773 40.334C61.5918 39.6987 61.5491 38.9861 61.5491 38.1962L62.5235 35.4661C62.5406 35.4318 62.7457 35.2085 63.1389 34.7964C63.5492 34.3843 63.9081 34.0323 64.2159 33.7404C64.6774 33.3283 65.2501 32.9849 65.9339 32.7102C66.6177 32.4355 67.2673 32.2981 67.8827 32.2981C68.3271 32.2981 68.7801 32.3839 69.2417 32.5557C69.7204 32.7274 70.1648 32.9506 70.5751 33.2253ZM64.7543 34.5131C64.7543 34.5818 64.6774 34.6677 64.5236 34.7707C64.3868 34.8565 64.3184 34.951 64.3184 35.054H64.6774C65.2244 35.054 65.498 34.9767 65.498 34.8222L65.0364 34.5131C65.0364 34.4788 65.0535 34.4444 65.0877 34.4101C65.1219 34.3758 65.1561 34.3586 65.1903 34.3586C65.3099 34.3586 65.4552 34.3929 65.6262 34.4616C65.8142 34.5131 65.9424 34.5389 66.0108 34.5389C66.1476 34.5389 66.2758 34.4959 66.3954 34.4101C66.5151 34.3242 66.6433 34.204 66.7801 34.0495C66.9852 33.8091 67.1903 33.6546 67.3955 33.5859H67.1647H66.9852C66.8826 33.5859 66.8057 33.5773 66.7544 33.5601C66.7031 33.5258 66.6518 33.4743 66.6006 33.4056C66.4467 33.4056 66.2843 33.4485 66.1134 33.5344C65.9595 33.6031 65.7715 33.7233 65.5492 33.895C65.2073 34.1354 64.9253 34.2899 64.7031 34.3586C64.7372 34.4101 64.7543 34.4616 64.7543 34.5131ZM68.8827 33.4056C68.8314 33.4056 68.7118 33.4915 68.5237 33.6632C68.3528 33.8349 68.2417 33.9637 68.1904 34.0495L68.8314 34.1783C69.5152 34.2985 69.934 34.3586 70.0879 34.3586C70.1734 34.3586 70.2503 34.35 70.3187 34.3328C70.387 34.3157 70.4725 34.2727 70.5751 34.204C70.4041 33.9808 70.1392 33.7919 69.7802 33.6374C69.4383 33.4829 69.1391 33.4056 68.8827 33.4056ZM70.3443 34.5131C70.3443 34.6333 70.4212 34.7278 70.5751 34.7964C70.7289 34.8479 70.8828 34.8737 71.0367 34.8737V34.5131H70.3443ZM68.2673 34.7964C67.6861 34.7964 67.1989 34.8995 66.8057 35.1055C66.4125 35.3116 65.9766 35.6464 65.498 36.11C65.3954 36.1958 65.327 36.3761 65.2928 36.6509C65.2757 36.8054 65.2501 36.9256 65.2159 37.0115C65.1817 37.0973 65.1219 37.166 65.0364 37.2175C64.968 37.372 64.874 37.7155 64.7543 38.2478C64.6347 38.7629 64.5663 39.1063 64.5492 39.278C64.5321 39.381 64.5236 39.5184 64.5236 39.6901C64.5236 41.1324 65.2672 42.2142 66.7544 42.9354L67.9596 42.9869C68.9853 42.9869 69.7716 42.8237 70.3187 42.4975C70.8828 42.1713 71.2674 41.6905 71.4726 41.0552C71.6948 40.4198 71.8059 39.5871 71.8059 38.5568C71.8059 38.2821 71.729 37.8786 71.5751 37.3463C71.4384 36.7968 71.3016 36.3847 71.1649 36.11C70.7033 36.007 70.2845 35.6378 69.9084 35.0025C69.7204 35.0025 69.4554 34.9681 69.1135 34.8995C68.7374 34.8308 68.4553 34.7964 68.2673 34.7964ZM71.4213 34.7964C71.3358 34.7964 71.2674 34.8394 71.2161 34.9252C71.182 34.9939 71.1649 35.0712 71.1649 35.157C71.1649 35.4146 71.276 35.5777 71.4982 35.6464C71.5324 35.6292 71.6093 35.5863 71.729 35.5176C71.8657 35.4489 71.9512 35.3802 71.9854 35.3116C71.917 35.2429 71.8059 35.1399 71.6521 35.0025C71.5153 34.8651 71.4384 34.7964 71.4213 34.7964ZM63.9851 35.157C63.9338 35.157 63.8312 35.2257 63.6774 35.3631C63.5406 35.5004 63.4637 35.612 63.4466 35.6979C63.4466 35.9039 63.5919 36.007 63.8825 36.007C63.9851 36.007 64.1047 36.007 64.2415 36.007C64.3953 35.9898 64.4979 35.9726 64.5492 35.9555L64.7031 35.3116L63.9851 35.157ZM71.6521 35.7752V36.007C71.9427 36.007 72.1051 35.9297 72.1393 35.7752H71.6521ZM63.2158 36.11C63.0449 36.11 62.9252 36.2216 62.8568 36.4448C62.7884 36.668 62.7543 36.8827 62.7543 37.0887C63.0449 37.0887 63.3355 37.0286 63.6261 36.9084C63.9167 36.7882 64.1133 36.6251 64.2159 36.4191C63.9423 36.213 63.609 36.11 63.2158 36.11ZM72.6521 36.6766C72.6521 36.5221 72.6265 36.3933 72.5752 36.2903C72.5239 36.1701 72.4384 36.11 72.3188 36.11C72.0794 36.11 71.9598 36.1873 71.9598 36.3418C71.9598 36.565 72.1905 36.6766 72.6521 36.6766ZM63.6774 37.3978C63.8825 37.3978 64.0278 37.3635 64.1133 37.2948C64.2159 37.2261 64.3013 37.0973 64.3697 36.9084L64.2928 36.8827C64.1902 36.8827 64.062 36.9428 63.9081 37.063C63.7543 37.1832 63.6774 37.2948 63.6774 37.3978ZM72.2931 37.269C72.3786 37.269 72.4555 37.2347 72.5239 37.166C72.6094 37.0801 72.6521 36.9943 72.6521 36.9084H72.2931V37.269ZM73.2419 38.0159C73.2419 37.9129 73.1991 37.7841 73.1137 37.6296C73.0453 37.4579 72.9598 37.372 72.8572 37.372C72.5837 37.372 72.447 37.4751 72.447 37.6811C72.447 37.767 72.4726 37.87 72.5239 37.9902C72.5923 38.0932 72.6265 38.1705 72.6265 38.222V38.2478C72.6265 38.2993 72.6008 38.3508 72.5495 38.4023C72.5153 38.4538 72.4812 38.4796 72.447 38.4796L72.5495 38.5053C72.5837 38.5053 72.6521 38.4624 72.7547 38.3765C72.8572 38.2735 72.9256 38.2134 72.9598 38.1962C73.0282 38.1962 73.088 38.1791 73.1393 38.1447C73.2077 38.0932 73.2419 38.0503 73.2419 38.0159ZM63.0363 37.6811C62.7628 37.6811 62.5577 37.7498 62.4209 37.8872C62.3012 38.0245 62.2414 38.2392 62.2414 38.5311C62.4636 38.5311 62.6773 38.471 62.8825 38.3508C63.0876 38.2306 63.3184 38.0675 63.5748 37.8614C63.5748 37.7412 63.4466 37.6811 63.1902 37.6811C63.156 37.6811 63.1303 37.6897 63.1132 37.7069C63.0961 37.7069 63.0791 37.7069 63.062 37.7069C63.0449 37.7069 63.0363 37.7069 63.0363 37.7069C63.0363 37.6897 63.0363 37.6811 63.0363 37.6811ZM63.7543 38.9432C63.8569 38.9432 63.9081 38.7972 63.9081 38.5053C63.9081 38.2134 63.9081 38.0503 63.9081 38.0159C63.8398 38.0846 63.7372 38.1533 63.6004 38.222C63.4637 38.2907 63.3697 38.3422 63.3184 38.3765C62.8568 38.5826 62.5919 38.7715 62.5235 38.9432H63.7543ZM73.3188 39.484C73.3188 38.8144 73.2419 38.4796 73.088 38.4796L72.447 39.1492C72.5153 39.2694 72.635 39.3553 72.806 39.4068C72.9769 39.4583 73.1478 39.484 73.3188 39.484ZM62.2671 40.2567C62.4551 40.2567 62.7372 40.1709 63.1132 39.9992C63.4893 39.8103 63.6774 39.63 63.6774 39.4583H62.5235C62.3525 39.4583 62.2671 39.7244 62.2671 40.2567ZM72.4213 40.9006C73.0709 40.9006 73.3957 40.6774 73.3957 40.231C73.3957 40.0593 73.3273 39.9562 73.1906 39.9219C73.0709 39.8704 72.8914 39.8446 72.6521 39.8446C72.6521 40.0163 72.6094 40.188 72.5239 40.3598C72.4555 40.5315 72.4213 40.7118 72.4213 40.9006ZM63.9851 39.8704C63.9167 39.8704 63.7543 39.9305 63.4979 40.0507C63.2585 40.1709 63.0876 40.2825 62.985 40.3855L63.7543 40.5658C63.8227 40.5658 63.874 40.4971 63.9081 40.3598C63.9594 40.2052 63.9851 40.0421 63.9851 39.8704ZM62.8055 41.6733C62.8397 41.6561 62.9252 41.6046 63.062 41.5188C63.2158 41.4157 63.3355 41.3127 63.4209 41.2097C63.5235 41.0895 63.5748 40.9693 63.5748 40.8491L63.2927 40.8234C63.2073 40.8234 63.0705 40.8405 62.8825 40.8749C62.7115 40.892 62.626 40.9436 62.626 41.0294L62.8055 41.6733ZM63.1132 42.1369C63.4209 42.0854 63.7885 41.9309 64.2159 41.6733C64.2159 41.5359 64.1902 41.4157 64.1389 41.3127C64.1047 41.2097 64.0535 41.1582 63.9851 41.1582L63.9081 41.1839L63.1132 41.9824V42.1369ZM72.3957 41.8536C72.6008 41.8536 72.7718 41.8021 72.9085 41.6991C73.0453 41.5789 73.1137 41.4072 73.1137 41.1839H72.3957C72.3957 41.3041 72.3529 41.4243 72.2675 41.5445C72.1991 41.6647 72.1051 41.7592 71.9854 41.8278L72.3957 41.8536ZM63.4466 42.6263C63.6688 43.0727 63.8483 43.2959 63.9851 43.2959C64.1731 43.2959 64.3697 43.2273 64.5748 43.0899C64.78 42.9354 64.8825 42.7637 64.8825 42.5748C64.609 42.5748 64.4381 42.6435 64.3697 42.7808V41.9824L63.4466 42.446V42.5233V42.6263ZM71.2674 42.9869C71.5751 42.9869 71.8743 42.9439 72.1649 42.8581C72.4726 42.7551 72.6265 42.5662 72.6265 42.2915C72.6265 42.1884 72.4812 42.1369 72.1905 42.1369C71.9683 42.1369 71.7546 42.2228 71.5495 42.3945C71.3614 42.5662 71.2674 42.7637 71.2674 42.9869ZM64.7031 43.8883C64.8227 43.8883 64.9253 43.8712 65.0108 43.8368C65.0962 43.7853 65.1817 43.6995 65.2672 43.5793V44.0944C65.4723 44.0944 65.6689 44.0515 65.8569 43.9656C66.045 43.8797 66.139 43.751 66.139 43.5793C66.139 43.4591 66.0193 43.3475 65.78 43.2444C65.5578 43.1414 65.3868 43.0899 65.2672 43.0899H65.1903L64.2159 43.399C64.2159 43.5363 64.2586 43.6565 64.3441 43.7596C64.4466 43.8454 64.5663 43.8883 64.7031 43.8883ZM71.6521 43.2187C71.5837 43.2187 71.4298 43.2187 71.1905 43.2187C70.9683 43.2187 70.7631 43.253 70.5751 43.3217C70.4041 43.3732 70.2417 43.4591 70.0879 43.5793C69.8828 43.7338 69.7716 43.8111 69.7545 43.8111H67.7032L67.2416 44.3262C67.4639 44.4292 67.669 44.4979 67.857 44.5322C68.0451 44.5494 68.2758 44.558 68.5494 44.558C68.8742 44.558 69.2673 44.4721 69.7289 44.3004C70.2076 44.1287 70.6435 43.9484 71.0367 43.7596C71.4469 43.5535 71.6521 43.4333 71.6521 43.399V43.2187ZM72.1393 43.7338H72.088C71.9512 43.7338 71.8572 43.7853 71.8059 43.8883L72.1393 43.7338ZM65.7544 44.4807C66.233 44.4807 66.4724 44.2661 66.4724 43.8368C66.2843 43.8368 66.1134 43.9055 65.9595 44.0429C65.8228 44.1631 65.7544 44.309 65.7544 44.4807ZM66.9339 44.0686C67.1049 44.0686 67.2587 44.0085 67.3955 43.8883L67.1647 43.8626H67.0621C66.8912 43.8626 66.7886 43.9227 66.7544 44.0429L66.9339 44.0686ZM70.3956 44.558C70.4982 44.558 70.5665 44.5494 70.6007 44.5322C70.652 44.4979 70.6862 44.4292 70.7033 44.3262L70.2161 44.5322L70.3956 44.558ZM69.1391 44.9958L68.9853 44.9701C68.8827 44.9701 68.8058 44.9873 68.7545 45.0216C68.7032 45.0388 68.669 45.0903 68.6519 45.1761L69.1391 44.9958Z" fill="#FD5757"/>
<path d="M115.267 39.4326C115.267 38.574 115.42 37.6296 115.728 36.5994C116.036 35.5691 116.412 34.6848 116.856 33.9465L116.908 33.9723C117.01 33.9723 117.224 33.8606 117.549 33.6374C117.856 33.4314 118.053 33.3284 118.139 33.3284C118.258 33.294 118.566 33.2167 119.062 33.0966C119.574 32.9764 120.053 32.9163 120.498 32.9163V33.1481C120.737 33.0622 120.951 33.0107 121.139 32.9935C121.344 32.9764 121.549 32.9678 121.754 32.9678C122.284 32.9678 122.797 33.0193 123.293 33.1223C123.805 33.2253 124.062 33.4056 124.062 33.6632C124.489 33.6632 124.823 33.8177 125.062 34.1268C125.318 34.4187 125.566 34.8222 125.805 35.3373C125.891 35.5262 125.976 35.6979 126.062 35.8525C126.164 36.007 126.259 36.11 126.344 36.1615V38.3766L125.882 38.7114L126.011 38.8659C125.549 39.2265 124.54 39.4068 122.985 39.4068H121.651C120.797 39.4068 120.233 39.3982 119.959 39.381C119.703 39.3639 119.19 39.2952 118.421 39.175C118.403 39.072 118.352 39.0205 118.267 39.0205C118.233 39.0205 118.19 39.029 118.139 39.0462C118.087 39.0634 118.036 39.072 117.985 39.072C117.985 39.5699 118.044 40.1194 118.164 40.7204C118.301 41.3213 118.498 41.7592 118.754 42.0339C118.891 42.1885 119.267 42.3773 119.882 42.6006C120.19 42.7036 120.395 42.7808 120.498 42.8324C120.805 43.0556 121.07 43.1672 121.292 43.1672C121.686 43.1672 122.113 43.1157 122.575 43.0127C123.036 42.9096 123.301 42.8495 123.37 42.8324C124.19 42.6091 124.848 42.4975 125.344 42.4975C125.566 42.4975 125.711 42.6006 125.78 42.8066C125.865 42.9955 125.908 43.2445 125.908 43.5535C125.908 43.8798 125.882 44.0858 125.831 44.1717C125.78 44.2575 125.686 44.3176 125.549 44.352C125.412 44.3691 125.301 44.4378 125.216 44.558C125.113 44.5924 124.113 44.7641 122.216 45.0731C121.498 45.0731 120.857 45.056 120.292 45.0216C119.745 44.9873 119.233 44.8928 118.754 44.7383C118.224 44.5666 117.686 44.1631 117.138 43.5278C116.609 42.8925 116.164 42.1885 115.805 41.4158C115.446 40.6431 115.267 39.982 115.267 39.4326ZM123.37 34.5131C123.37 34.6505 123.523 34.8566 123.831 35.1313C124.139 35.406 124.344 35.5434 124.446 35.5434C124.549 35.5434 124.686 35.509 124.857 35.4404C125.028 35.3717 125.113 35.2944 125.113 35.2086C125.113 35.1055 125.079 34.9596 125.011 34.7707C124.942 34.5647 124.908 34.4445 124.908 34.4101C124.908 34.4616 124.865 34.5046 124.78 34.5389C124.711 34.5561 124.652 34.5647 124.6 34.5647C124.464 34.5475 124.301 34.4788 124.113 34.3586C123.942 34.2384 123.857 34.101 123.857 33.9465C123.361 33.9465 123.113 33.8263 123.113 33.5859C123.079 33.5859 123.011 33.646 122.908 33.7662C122.805 33.8864 122.617 33.9465 122.344 33.9465C122.258 33.9465 122.173 33.9122 122.087 33.8435C122.002 33.7748 121.891 33.7405 121.754 33.7405L121.421 33.7662C121.455 33.7834 121.532 33.895 121.651 34.101C121.788 34.3071 121.899 34.4187 121.985 34.4359C122.019 34.4359 122.079 34.4101 122.164 34.3586C122.267 34.2899 122.352 34.2556 122.421 34.2556C122.489 34.2727 122.617 34.3243 122.805 34.4101C122.993 34.4788 123.181 34.5131 123.37 34.5131ZM116.472 39.8447C116.626 39.8447 116.779 39.8103 116.933 39.7416C117.104 39.6558 117.19 39.5442 117.19 39.4068C117.19 39.3725 117.164 39.3209 117.113 39.2523C117.062 39.1664 117.036 39.0891 117.036 39.0205C117.07 38.9003 117.13 38.7543 117.215 38.5826C117.301 38.3937 117.344 38.2048 117.344 38.016C117.344 37.8786 117.309 37.7842 117.241 37.7327C117.19 37.664 117.104 37.6039 116.985 37.5524C116.882 37.5008 116.831 37.4408 116.831 37.3721C116.831 37.3034 116.882 37.1488 116.985 36.9085C117.104 36.6509 117.164 36.4792 117.164 36.3933C117.164 36.2216 117.327 35.9383 117.651 35.5434C117.839 35.2858 117.985 35.0798 118.087 34.9252C118.19 34.7707 118.241 34.6162 118.241 34.4616C118.309 34.4616 118.403 34.4788 118.523 34.5131C118.643 34.5475 118.762 34.5647 118.882 34.5647C118.933 34.5647 118.968 34.5217 118.985 34.4359C119.002 34.3328 119.027 34.2727 119.062 34.2556C119.198 34.2041 119.472 34.1783 119.882 34.1783C120.275 34.1611 120.575 34.144 120.78 34.1268C120.985 34.0925 121.096 34.0324 121.113 33.9465C120.925 33.8606 120.745 33.8091 120.575 33.792C120.404 33.7576 120.181 33.7405 119.908 33.7405C118.745 33.7405 117.856 34.1354 117.241 34.9252C116.643 35.7151 116.344 36.711 116.344 37.9129H117.164V38.0675L116.215 39.0205V39.5098L116.523 39.3295L116.215 39.8189L116.472 39.8447ZM117.959 36.8312C118.044 37.0029 118.54 37.1231 119.446 37.1918C120.369 37.2433 121.139 37.269 121.754 37.269C122.062 37.269 122.472 37.2347 122.985 37.166C123.464 37.0973 123.857 37.063 124.164 37.063C124.164 36.9771 124.105 36.8054 123.985 36.5479C123.865 36.2731 123.771 36.1358 123.703 36.1358L123.652 36.1615C123.532 35.8009 123.147 35.5005 122.498 35.2601C121.865 35.0197 121.327 34.8995 120.882 34.8995C120.198 34.8995 119.6 35.0626 119.087 35.3888C118.574 35.7151 118.198 36.1959 117.959 36.8312ZM125.113 37.3721C125.113 37.6296 125.028 37.8013 124.857 37.8872C124.686 37.9559 124.438 37.9902 124.113 37.9902C123.84 38.0074 123.634 38.0417 123.498 38.0932C123.361 38.1447 123.293 38.2564 123.293 38.4281C123.857 38.4281 124.301 38.4109 124.626 38.3766C124.951 38.3422 125.147 38.2392 125.216 38.0675C125.301 38.2048 125.421 38.2735 125.575 38.2735C125.575 38.1362 125.541 37.9902 125.472 37.8357C125.421 37.664 125.395 37.5352 125.395 37.4493C125.395 37.3807 125.429 37.3206 125.498 37.269C125.583 37.2175 125.643 37.1574 125.677 37.0888C125.729 37.0201 125.754 36.8827 125.754 36.6766C125.754 36.007 125.558 35.6722 125.164 35.6722C124.993 35.6722 124.882 35.7237 124.831 35.8267C124.797 35.9126 124.78 36.0843 124.78 36.3418C124.968 36.9085 125.079 37.2175 125.113 37.269V37.3721ZM118.164 37.6811C118.01 37.6811 117.874 37.7412 117.754 37.8614C117.651 37.9816 117.6 38.119 117.6 38.2735C117.822 38.2735 117.968 38.2306 118.036 38.1447C118.121 38.0589 118.164 37.9044 118.164 37.6811ZM118.651 37.9129C118.617 37.9129 118.515 37.9902 118.344 38.1447C118.19 38.2993 118.062 38.4367 117.959 38.5568L118.497 38.4538C118.532 38.4538 118.643 38.4367 118.831 38.4023C119.036 38.3508 119.275 38.2392 119.549 38.0675C119.498 38.0503 119.233 37.9988 118.754 37.9129H118.651ZM119.549 38.3766C119.891 38.4967 120.19 38.5568 120.446 38.5568C120.6 38.5568 120.728 38.5053 120.831 38.4023C120.951 38.2993 121.01 38.1705 121.01 38.016C120.156 38.016 119.668 38.1362 119.549 38.3766ZM121.985 38.222C121.745 38.222 121.506 38.2564 121.267 38.325C121.045 38.3766 120.934 38.4796 120.934 38.6341L120.959 38.7114C120.993 38.7114 121.292 38.6942 121.857 38.6599C122.438 38.6084 122.771 38.4624 122.857 38.222H122.139H121.985ZM117.062 40.0765C116.737 40.0765 116.532 40.128 116.446 40.231C116.361 40.3168 116.318 40.5315 116.318 40.8749C116.523 40.8749 116.694 40.7976 116.831 40.6431C116.985 40.4714 117.062 40.2825 117.062 40.0765ZM117.164 40.437C117.13 40.4886 117.036 40.6259 116.882 40.8491C116.745 41.0552 116.677 41.2612 116.677 41.4673C117.173 41.4673 117.497 41.3986 117.651 41.2612C117.6 41.141 117.515 41.0037 117.395 40.8491C117.275 40.6774 117.198 40.5401 117.164 40.437ZM116.856 41.8794C116.942 41.9309 117.01 42.0339 117.062 42.1885C117.113 42.3258 117.147 42.4374 117.164 42.5233C117.557 42.3172 117.754 41.991 117.754 41.5446C117.275 41.5446 116.976 41.6562 116.856 41.8794ZM118.139 43.3217C118.344 43.0127 118.446 42.8152 118.446 42.7293L118.421 42.6521L117.497 42.5233L117.318 42.6521L118.139 43.3217ZM118.421 43.4763C118.438 43.5106 118.463 43.5449 118.497 43.5793C118.532 43.5965 118.566 43.6136 118.6 43.6308C118.754 43.5965 118.925 43.5192 119.113 43.399C119.301 43.2788 119.395 43.1929 119.395 43.1414C119.395 43.0556 119.361 42.9869 119.292 42.9354C119.241 42.8667 119.198 42.8324 119.164 42.8324C119.01 42.8324 118.848 42.9096 118.677 43.0642C118.506 43.2015 118.421 43.3389 118.421 43.4763ZM119.062 43.9399C119.438 44.0257 119.651 44.0858 119.703 44.1202C119.788 44.206 119.839 44.2489 119.857 44.2489C120.113 44.2489 120.335 44.1717 120.523 44.0171C120.728 43.8454 120.831 43.6394 120.831 43.399C120.181 43.399 119.857 43.4763 119.857 43.6308C119.857 43.5793 119.822 43.5106 119.754 43.4248C119.703 43.3389 119.66 43.296 119.626 43.296C119.592 43.296 119.48 43.3818 119.292 43.5535C119.121 43.7081 119.036 43.8111 119.036 43.8626L119.062 43.9399ZM120.805 44.1202C120.891 44.206 120.942 44.2489 120.959 44.2489C121.25 44.2489 121.592 44.2146 121.985 44.1459C122.378 44.0772 122.626 44.0343 122.728 44.0171C123.446 43.8798 123.917 43.8111 124.139 43.8111L124.446 43.9399C124.652 43.9399 124.84 43.8969 125.011 43.8111C125.182 43.7252 125.267 43.5879 125.267 43.399C124.925 43.399 124.464 43.4677 123.882 43.605C123.797 43.6222 123.652 43.6566 123.446 43.7081C123.241 43.7596 123.045 43.7939 122.857 43.8111C122.515 43.8111 122.147 43.8283 121.754 43.8626C121.378 43.8798 121.113 43.9055 120.959 43.9399L120.805 44.1202Z" fill="#8000FF"/>
<path d="M140.809 43.5278C141.151 43.648 141.322 43.7596 141.322 43.8627C141.322 43.9657 141.185 44.352 140.912 45.0217C140.758 45.3308 140.681 45.511 140.681 45.5626L140.348 45.6913V45.4853C140.143 45.4853 139.955 45.4939 139.784 45.511C139.613 45.5282 139.45 45.5368 139.296 45.5368C139.057 45.5368 138.869 45.4853 138.732 45.3823C138.613 45.2964 138.553 45.1075 138.553 44.8156C138.108 44.8156 137.775 44.6525 137.553 44.3263C137.331 44 137.1 43.5107 136.86 42.8582C136.741 41.3128 136.655 39.7331 136.604 38.119C136.57 36.4878 136.553 34.5733 136.553 32.3754V30.727C136.553 29.2332 136.613 27.9797 136.732 26.9667C137.023 26.8121 137.39 26.7091 137.835 26.6576C137.903 26.6404 138.057 26.6147 138.296 26.5803C138.536 26.5288 138.749 26.4515 138.937 26.3485L139.014 26.3228C139.168 26.3228 139.245 26.4172 139.245 26.6061C139.245 27.9797 139.194 30.0574 139.091 32.839C139.023 34.1955 138.972 35.5778 138.937 36.9858C138.937 37.3635 138.903 37.8787 138.835 38.5311C138.818 38.6685 138.801 38.8488 138.784 39.072C138.766 39.2952 138.758 39.5614 138.758 39.8705C138.758 40.9866 138.895 41.8794 139.168 42.5491C139.442 43.2016 139.989 43.5278 140.809 43.5278ZM138.322 27.4818C137.878 27.4818 137.587 27.5934 137.45 27.8166C137.313 28.0227 137.245 28.3747 137.245 28.8726H137.604C137.604 28.9069 137.613 28.9327 137.63 28.9499C137.647 28.967 137.655 28.9842 137.655 29.0014C137.655 29.0357 137.613 29.0787 137.527 29.1302C137.459 29.1645 137.399 29.1817 137.348 29.1817V30.1347C137.399 30.066 137.501 29.9286 137.655 29.7226C137.826 29.4993 137.937 29.3791 137.989 29.362C137.972 29.4135 137.937 29.5251 137.886 29.6968C137.835 29.8513 137.758 29.9973 137.655 30.1347C137.672 30.1347 137.707 30.1432 137.758 30.1604C137.809 30.1604 137.869 30.1604 137.937 30.1604C138.194 30.1604 138.322 30.1089 138.322 30.0059V27.4818ZM137.348 35.4147C137.399 35.5005 137.561 35.5434 137.835 35.5434C137.784 35.6121 137.715 35.6722 137.63 35.7237C137.544 35.7581 137.476 35.801 137.425 35.8525C137.373 35.904 137.348 35.9813 137.348 36.0843C137.348 36.2217 137.382 36.359 137.45 36.4964C137.519 36.6338 137.553 36.7969 137.553 36.9858H138.143V36.1616H137.835C138.04 35.8869 138.143 35.5005 138.143 35.0026C138.143 34.8995 138.117 34.7622 138.066 34.5905C138.014 34.4188 137.989 34.2814 137.989 34.1784L138.143 33.5345C138.262 33.1395 138.322 32.7446 138.322 32.3497C138.305 32.2982 138.279 32.2467 138.245 32.1951C138.211 32.1265 138.177 32.075 138.143 32.0406C138.143 32.281 138.04 32.4012 137.835 32.4012L137.655 32.3497C137.775 32.2982 137.852 32.2209 137.886 32.1179C137.92 32.0149 137.937 31.8861 137.937 31.7315H138.322V30.7786C138.219 30.8988 138.074 31.0447 137.886 31.2164C137.715 31.3709 137.613 31.4482 137.578 31.4482L137.501 31.4225C137.826 31.0619 138.04 30.7442 138.143 30.4695C137.955 30.4695 137.749 30.4952 137.527 30.5468C137.305 30.5811 137.194 30.6755 137.194 30.8301C137.194 31.225 137.245 31.4997 137.348 31.6543C137.45 31.8088 137.501 31.8947 137.501 31.9118C137.501 31.9462 137.45 32.0835 137.348 32.3239C137.245 32.5471 137.194 32.7189 137.194 32.839C137.228 32.8219 137.271 32.7961 137.322 32.7618C137.39 32.7103 137.45 32.6845 137.501 32.6845C137.536 32.6845 137.57 32.7103 137.604 32.7618C137.638 32.7961 137.655 32.8219 137.655 32.839C137.604 32.8906 137.544 32.9764 137.476 33.0966C137.407 33.2168 137.365 33.3112 137.348 33.3799C137.348 33.4829 137.39 33.5516 137.476 33.586C137.578 33.6031 137.638 33.6203 137.655 33.6375C137.467 33.689 137.348 33.8264 137.296 34.0496C137.262 34.2728 137.245 34.5218 137.245 34.7965C137.382 34.7965 137.493 34.7622 137.578 34.6935C137.664 34.6076 137.724 34.5647 137.758 34.5647L137.835 34.5905C137.784 34.7278 137.698 34.8824 137.578 35.0541C137.476 35.2258 137.399 35.346 137.348 35.4147ZM138.168 37.2691C137.929 37.2691 137.758 37.3378 137.655 37.4751C137.553 37.6125 137.501 37.8186 137.501 38.0933C137.536 38.0589 137.621 37.9989 137.758 37.913C137.912 37.8271 138.014 37.7327 138.066 37.6297C138.134 37.5267 138.168 37.4065 138.168 37.2691ZM137.989 43.5021C138.074 43.5021 138.177 43.3218 138.296 42.9612C138.416 42.6006 138.476 42.3516 138.476 42.2143C138.476 42.0426 138.45 41.9309 138.399 41.8794C138.365 41.8279 138.279 41.8022 138.143 41.8022V39.2008L137.989 39.0463C138.125 39.0463 138.194 38.7114 138.194 38.0418C138.023 38.0418 137.86 38.1362 137.707 38.3251C137.553 38.4968 137.476 38.6771 137.476 38.866C137.476 38.8831 137.501 38.9175 137.553 38.969C137.621 39.0033 137.655 39.0291 137.655 39.0463L137.501 39.2008V40.3083C137.621 40.3427 137.681 40.4543 137.681 40.6431C137.681 40.7633 137.655 40.9522 137.604 41.2098C137.536 41.3815 137.501 41.5704 137.501 41.7764C137.501 41.9653 137.587 42.1456 137.758 42.3173C137.929 42.489 138.014 42.635 138.014 42.7551C138.014 42.8067 137.963 42.9011 137.86 43.0385C137.758 43.1587 137.69 43.2617 137.655 43.3475C137.672 43.3475 137.724 43.3733 137.809 43.4248C137.895 43.4763 137.954 43.5021 137.989 43.5021ZM140.04 44.6096C140.057 44.5924 140.091 44.5581 140.143 44.5066C140.211 44.455 140.245 44.395 140.245 44.3263C140.245 44.2919 140.108 44.2061 139.835 44.0687C139.561 43.9313 139.365 43.8369 139.245 43.7854C139.194 43.7854 139.108 43.8197 138.989 43.8884C138.869 43.9399 138.741 43.9657 138.604 43.9657C138.655 43.9485 138.715 43.897 138.784 43.8111C138.869 43.7253 138.92 43.6738 138.937 43.6566C138.937 43.5364 138.903 43.4162 138.835 43.296C138.784 43.1758 138.707 43.09 138.604 43.0385C138.553 43.0385 138.467 43.1415 138.348 43.3475C138.245 43.5364 138.177 43.6824 138.143 43.7854C138.143 44.146 138.356 44.4293 138.784 44.6353C139.211 44.8414 139.604 44.9444 139.963 44.9444C140.066 44.9444 140.151 44.8757 140.22 44.7384L140.04 44.6096Z" fill="white"/>
<path d="M160.375 42.6779C160.375 42.781 160.427 42.8582 160.529 42.9097C160.632 42.9613 160.811 43.0214 161.068 43.09C161.427 43.1931 161.692 43.3047 161.863 43.4249C162.034 43.5279 162.119 43.691 162.119 43.9142C162.119 44.6526 161.905 45.1419 161.478 45.3823C160.948 45.2106 160.581 45.1076 160.375 45.0733C160.17 45.0389 159.786 44.8157 159.222 44.4036C158.931 44.1975 158.769 44.0945 158.734 44.0945C158.598 44.0945 158.401 44.1804 158.145 44.3521C157.905 44.5238 157.751 44.6096 157.683 44.6096C157.273 44.7985 156.905 44.9445 156.58 45.0475C156.256 45.1505 155.914 45.202 155.555 45.202C154.888 45.202 154.213 45.0647 153.529 44.7899C152.845 44.5152 152.273 44.1031 151.811 43.5536C151.349 42.987 151.119 42.2916 151.119 41.4674C151.119 41.2442 151.178 40.8922 151.298 40.4114C151.435 39.9134 151.555 39.5529 151.657 39.3296C151.982 38.866 152.452 38.5226 153.067 38.2994C153.683 38.0762 154.486 37.8787 155.478 37.707C156.264 37.5525 156.828 37.4151 157.17 37.2949C157.512 37.1575 157.683 36.9601 157.683 36.7025C157.683 36.1874 157.512 35.7581 157.17 35.4147C156.845 35.0541 156.384 34.8738 155.786 34.8738C155.546 34.8738 155.315 34.9082 155.093 34.9769C154.871 35.0455 154.58 35.1572 154.221 35.3117C153.709 35.5521 153.332 35.6723 153.093 35.6723C152.649 35.6723 152.426 35.2173 152.426 34.3072C152.426 33.6891 152.674 33.2855 153.17 33.0967C153.666 32.8906 154.307 32.7876 155.093 32.7876C155.247 32.7876 155.444 32.8048 155.683 32.8391C155.939 32.8735 156.127 32.8992 156.247 32.9164C156.709 33.0022 157.085 33.0452 157.375 33.0452L157.965 33.0194C158.392 33.0194 158.606 33.1825 158.606 33.5088C158.811 33.5088 158.965 33.5431 159.068 33.6118C159.17 33.6633 159.222 33.7835 159.222 33.9724C159.7 33.9724 160.042 34.3673 160.247 35.1572C160.452 35.947 160.555 36.6854 160.555 37.3722C160.555 37.8358 160.487 38.4969 160.35 39.3554C160.213 40.2139 160.145 40.8493 160.145 41.2614C160.145 41.3644 160.162 41.5189 160.196 41.725C160.23 41.9138 160.247 42.0598 160.247 42.1628L160.222 42.3946L160.375 42.6779ZM155.632 33.9209C155.837 33.9209 156.059 33.9552 156.298 34.0239C156.521 34.1097 156.768 34.1527 157.042 34.1527C157.042 33.7577 156.948 33.5603 156.76 33.5603C156.692 33.5603 156.615 33.5775 156.529 33.6118C156.461 33.629 156.384 33.6375 156.298 33.6375L155.632 33.6118C155.068 33.6118 154.632 33.6375 154.324 33.6891C154.016 33.7234 153.606 33.8264 153.093 33.9981C153.093 34.0668 153.11 34.1698 153.144 34.3072C153.196 34.4446 153.238 34.5304 153.273 34.5648C153.461 34.5648 153.76 34.5047 154.17 34.3845C154.597 34.2471 154.871 34.0926 154.991 33.9209L155.247 34.1269C155.264 34.1269 155.315 34.0926 155.401 34.0239C155.486 33.9552 155.563 33.9209 155.632 33.9209ZM157.452 34.5905C157.623 34.5905 157.837 34.5562 158.093 34.4875C158.35 34.4016 158.478 34.2986 158.478 34.1784C158.478 34.0067 158.247 33.9209 157.786 33.9209C157.632 33.9209 157.495 33.9895 157.375 34.1269C157.256 34.2471 157.196 34.3931 157.196 34.5648L157.452 34.5905ZM158.17 35.2602C158.17 35.3117 158.204 35.3718 158.273 35.4405C158.341 35.5092 158.418 35.5435 158.504 35.5435C158.743 35.5435 158.905 35.5092 158.991 35.4405C159.093 35.3718 159.145 35.2516 159.145 35.0799C159.145 34.9597 159.093 34.8223 158.991 34.6678C158.905 34.5133 158.803 34.436 158.683 34.436L158.17 35.2602ZM159.427 35.6723C159.375 35.6895 159.256 35.7238 159.068 35.7753C158.88 35.8268 158.726 35.9127 158.606 36.0329C158.504 36.1359 158.452 36.2647 158.452 36.4192C158.777 36.4192 159.102 36.1702 159.427 35.6723ZM159.734 36.5995C159.734 36.5308 159.7 36.4535 159.632 36.3677C159.581 36.2818 159.538 36.2389 159.504 36.2389C159.401 36.2389 159.247 36.3076 159.042 36.445C158.854 36.5652 158.717 36.6854 158.632 36.8056L159.581 36.9601C159.581 36.9257 159.606 36.8656 159.657 36.7798C159.709 36.6939 159.734 36.6338 159.734 36.5995ZM158.914 37.2692L158.247 37.1146L158.016 37.3979L158.914 37.2692ZM158.17 37.9131C158.204 38.0161 158.264 38.0848 158.35 38.1191C158.452 38.1535 158.606 38.1964 158.811 38.2479C159.016 38.2822 159.162 38.3252 159.247 38.3767C159.145 38.5484 159.016 38.6686 158.863 38.7373C158.777 38.7888 158.709 38.8489 158.657 38.9175C158.623 38.9862 158.606 39.1236 158.606 39.3296C158.606 39.57 158.649 39.819 158.734 40.0766C158.803 40.3856 158.837 40.6346 158.837 40.8235C158.837 40.9952 158.811 41.2013 158.76 41.4416C159.136 41.3558 159.41 40.978 159.581 40.3084C159.751 39.6387 159.837 38.9261 159.837 38.1706C159.837 37.7242 159.811 37.4151 159.76 37.2434C159.589 37.2434 159.333 37.3207 158.991 37.4752C158.666 37.6297 158.392 37.7757 158.17 37.9131ZM157.478 38.0934C157.375 38.0934 157.264 38.1191 157.145 38.1706C157.025 38.2221 156.948 38.2908 156.914 38.3767C156.999 38.411 157.119 38.4454 157.273 38.4797C157.444 38.514 157.58 38.5398 157.683 38.557C157.734 38.5398 157.811 38.514 157.914 38.4797C158.016 38.4454 158.102 38.411 158.17 38.3767C158.085 38.3252 157.965 38.2736 157.811 38.2221C157.657 38.1535 157.546 38.1105 157.478 38.0934ZM156.196 38.1449L155.478 38.5055L156.427 38.3767L156.196 38.1449ZM153.093 40.2826C153.127 40.2826 153.196 40.2225 153.298 40.1023C153.401 39.965 153.452 39.8705 153.452 39.819H152.76C152.828 39.716 152.956 39.6215 153.144 39.5357C153.35 39.4498 153.563 39.3726 153.785 39.3039C154.144 39.1837 154.435 39.0721 154.657 38.9691C154.88 38.8489 155.042 38.7115 155.144 38.557H155.042C154.717 38.557 154.444 38.5827 154.221 38.6342C154.016 38.6857 153.905 38.8145 153.888 39.0206C153.751 39.0721 153.563 39.1408 153.324 39.2266C153.102 39.2953 152.914 39.3897 152.76 39.5099C152.623 39.613 152.52 39.7589 152.452 39.9478C152.486 39.9993 152.589 40.068 152.76 40.1538C152.931 40.2397 153.042 40.2826 153.093 40.2826ZM154.991 43.1673C155.264 43.1673 155.649 43.0986 156.145 42.9613C156.64 42.8239 157.076 42.6436 157.452 42.4204C157.828 42.18 158.016 41.9138 158.016 41.6219V41.5189C158.016 40.7291 157.931 40.1109 157.76 39.6645C157.606 39.218 157.221 38.9948 156.606 38.9948C156.521 38.9948 156.392 39.0377 156.221 39.1236C156.05 39.1923 155.931 39.2266 155.862 39.2266C155.674 39.2266 155.427 39.3296 155.119 39.5357C154.828 39.7417 154.632 39.8791 154.529 39.9478C154.426 40.0165 154.332 40.1281 154.247 40.2826C154.179 40.42 154.11 40.5574 154.042 40.6947C153.939 40.9351 153.837 41.124 153.734 41.2614C153.649 41.3816 153.529 41.4416 153.375 41.4416C153.375 41.9739 153.512 42.3946 153.785 42.7037C154.059 43.0128 154.461 43.1673 154.991 43.1673ZM152.144 40.2826C152.093 40.2826 152.05 40.3513 152.016 40.4887C151.982 40.626 151.965 40.7291 151.965 40.7977C152.085 40.7977 152.204 40.7634 152.324 40.6947C152.444 40.626 152.546 40.5488 152.632 40.4629C152.563 40.4286 152.478 40.3942 152.375 40.3599C152.29 40.3256 152.213 40.2998 152.144 40.2826ZM152.939 41.0811C152.991 41.0295 153.016 40.9437 153.016 40.8235C153.016 40.8063 152.973 40.7977 152.888 40.7977C152.734 40.7977 152.555 40.8235 152.349 40.875C152.161 40.9265 152.042 40.9952 151.99 41.0811H152.939ZM159.478 41.3386C159.341 41.3386 159.204 41.4073 159.068 41.5447C158.948 41.6649 158.888 41.7936 158.888 41.931C159.11 41.931 159.264 41.8881 159.35 41.8022C159.435 41.7164 159.478 41.5618 159.478 41.3386ZM152.144 41.3901C152.093 41.3901 152.025 41.4245 151.939 41.4932C151.854 41.5618 151.811 41.6134 151.811 41.6477L151.837 41.725C151.888 41.725 151.956 41.6992 152.042 41.6477C152.127 41.5962 152.17 41.5533 152.17 41.5189L152.144 41.3901ZM152.683 41.6735C152.461 41.6735 152.281 41.8022 152.144 42.0598C152.503 42.0598 152.683 41.931 152.683 41.6735ZM158.632 42.4976C158.649 42.532 158.683 42.5749 158.734 42.6264C158.786 42.6608 158.837 42.6779 158.888 42.6779C158.957 42.6436 159.059 42.5749 159.196 42.4719C159.333 42.3517 159.401 42.2658 159.401 42.2143C159.401 42.1628 159.367 42.1371 159.298 42.1371C159.196 42.1371 159.068 42.18 158.914 42.2658C158.777 42.3345 158.683 42.4118 158.632 42.4976ZM152.221 43.0385C152.341 43.0385 152.444 42.9355 152.529 42.7295C152.614 42.5234 152.657 42.3689 152.657 42.2658C152.486 42.2658 152.315 42.3002 152.144 42.3689C151.99 42.4375 151.888 42.5406 151.837 42.6779C151.854 42.7466 151.905 42.8239 151.99 42.9097C152.093 42.9784 152.17 43.0214 152.221 43.0385ZM159.196 43.1416C159.196 43.1931 159.213 43.2446 159.247 43.2961C159.298 43.3476 159.341 43.3734 159.375 43.3734C159.666 43.3734 159.811 43.1501 159.811 42.7037C159.709 42.7037 159.581 42.7466 159.427 42.8325C159.273 42.9183 159.196 43.0214 159.196 43.1416ZM152.632 43.1416C152.888 43.1072 153.016 42.987 153.016 42.781C152.794 42.781 152.666 42.9012 152.632 43.1416ZM157.529 43.837C157.7 43.837 157.854 43.7597 157.991 43.6052C158.128 43.4335 158.196 43.2532 158.196 43.0643L158.17 42.8325C158.119 42.8496 158.051 42.9012 157.965 42.987C157.897 43.0729 157.854 43.133 157.837 43.1673C157.837 43.2016 157.845 43.236 157.863 43.2703C157.88 43.2875 157.888 43.2961 157.888 43.2961H157.529V43.837ZM157.042 44.1203C157.076 44.1203 157.11 44.0344 157.145 43.8627C157.179 43.6738 157.204 43.5365 157.221 43.4506C156.948 43.4506 156.666 43.5451 156.375 43.7339C156.085 43.9056 155.939 44.1289 155.939 44.4036L157.042 44.1203ZM159.657 43.9915C159.794 43.9056 159.863 43.794 159.863 43.6567H159.478C159.478 43.8112 159.538 43.9228 159.657 43.9915ZM160.093 44.0688C160.384 44.0688 160.555 44.0087 160.606 43.8885C160.521 43.7511 160.444 43.6824 160.375 43.6824C160.29 43.6824 160.222 43.7254 160.17 43.8112C160.119 43.8971 160.093 43.9829 160.093 44.0688ZM153.555 43.9657C153.623 44.0001 153.743 44.0688 153.914 44.1718C154.102 44.2576 154.238 44.3006 154.324 44.3006C154.324 44.2147 154.256 44.1031 154.119 43.9657C153.999 43.8284 153.905 43.7597 153.837 43.7597C153.717 43.7597 153.623 43.8284 153.555 43.9657ZM155.221 44.6096C155.29 44.6096 155.341 44.5581 155.375 44.4551C155.427 44.3349 155.452 44.2233 155.452 44.1203L155.324 44.0945C155.119 44.0945 154.956 44.1975 154.837 44.4036C155.059 44.541 155.187 44.6096 155.221 44.6096ZM160.375 44.4036C160.375 44.5753 160.7 44.6612 161.35 44.6612C161.35 44.5066 161.333 44.3778 161.299 44.2748C161.281 44.1718 161.213 44.1203 161.093 44.1203C160.957 44.1203 160.811 44.146 160.658 44.1975C160.521 44.2491 160.427 44.3177 160.375 44.4036Z" fill="#6FFF17"/>
<path d="M85.0173 43.6565C85.0173 43.1758 85.0686 42.4718 85.1712 41.5445C85.2908 40.7032 85.3507 39.982 85.3507 39.381C85.3507 39.0033 85.3079 38.5397 85.2225 37.9902C85.1712 37.7326 85.1455 37.4837 85.1455 37.2433C85.1455 36.5736 85.1797 35.7237 85.2481 34.6934C85.2994 34.0924 85.325 33.6202 85.325 33.2768L85.5045 33.0965C85.5387 33.1137 85.7182 33.1223 86.043 33.1223C86.2652 33.1223 86.4533 33.0965 86.6071 33.045C86.7781 32.9935 86.9234 32.9678 87.0431 32.9678C87.1627 32.9678 87.2738 33.0708 87.3764 33.2768C87.4961 33.4829 87.5559 33.6374 87.5559 33.7404C87.7781 33.6546 88.0516 33.5172 88.3764 33.3283C88.9064 33.0708 89.3338 32.8905 89.6586 32.7875C90.0004 32.6673 90.4107 32.6072 90.8894 32.6072C91.6415 32.6072 92.3766 32.8046 93.0946 33.1996C93.8126 33.5773 94.4365 34.0753 94.9665 34.6934L95.069 34.7192C95.1203 34.7192 95.4451 34.5045 96.0434 34.0753C96.6417 33.646 96.9751 33.3799 97.0435 33.2768L99.0948 32.7875C100.548 32.7875 101.702 33.2682 102.557 34.2298C103.428 35.1914 103.958 36.4019 104.146 37.8614L104.121 38.9689C104.121 39.4154 104.181 39.733 104.3 39.9219L104.326 43.1157C104.326 43.8368 104.206 44.3863 103.967 44.7641C103.745 45.1418 103.275 45.3307 102.557 45.3307C101.975 45.3307 101.599 45.0903 101.428 44.6095C101.274 44.1287 101.189 43.4505 101.172 42.5748C101.172 42.1455 101.163 41.845 101.146 41.6733C101.146 41.5875 101.095 41.0981 100.992 40.2052C100.873 39.4154 100.813 38.9002 100.813 38.6599C100.813 38.5225 100.847 38.3164 100.915 38.0417C100.967 37.6811 100.992 37.4922 100.992 37.4751C100.992 36.4448 100.411 35.7323 99.2487 35.3373V35.1828C99.0777 35.3202 98.7017 35.4318 98.1204 35.5176C97.505 35.6035 97.0007 35.7408 96.6076 35.9297C96.2315 36.1186 96.0007 36.4534 95.9152 36.9342L95.8896 38.0932C95.8896 38.6599 95.9152 39.2866 95.9665 39.9734C96.0178 40.6431 96.052 41.0895 96.0691 41.3127C96.1887 42.549 96.2486 43.605 96.2486 44.4807C96.2486 44.8757 95.599 45.0731 94.2998 45.0731C93.9921 45.0731 93.7356 45.0474 93.5305 44.9959C93.3254 44.9272 93.2228 44.7726 93.2228 44.5322L92.9151 44.7125C92.9322 44.5408 92.9407 44.309 92.9407 44.0171C93.0433 42.4374 93.0946 41.0294 93.0946 39.7931C93.0946 39.381 93.0519 38.8487 92.9664 38.1962C92.8809 37.5266 92.7698 36.8913 92.633 36.2903C92.3082 35.9297 92.0005 35.6722 91.7099 35.5176C91.4364 35.3459 91.0518 35.1828 90.556 35.0282C90.4535 34.9252 90.4022 34.8737 90.4022 34.8737C90.3509 34.9596 90.103 35.1399 89.6586 35.4146C89.2141 35.6722 88.8295 35.8524 88.5047 35.9555C88.5047 36.0242 88.4277 36.2903 88.2739 36.7539C88.0175 37.5266 87.8807 37.9988 87.8636 38.1705L87.838 38.8144C87.838 39.1063 87.8722 39.527 87.9405 40.0764C88.0089 40.6602 88.0431 41.0895 88.0431 41.3642C88.0431 42.1198 87.9918 42.9525 87.8893 43.8626C87.8038 44.7726 87.6328 45.3135 87.3764 45.4852L86.8379 45.511C86.7012 45.511 86.3507 45.4423 85.7866 45.3049C85.2225 45.1676 84.9746 45.0817 85.043 45.0474L85.0173 43.6565ZM86.761 36.2903C87.0858 36.2903 87.3679 36.1701 87.6072 35.9297C87.8465 35.6893 88.1029 35.3631 88.3764 34.951C88.5474 34.6934 88.6842 34.5045 88.7867 34.3843C88.9064 34.2642 89.0175 34.2041 89.1201 34.2041L88.9662 34.5389C89.1543 34.5217 89.3679 34.4702 89.6073 34.3843C89.9492 34.2813 90.2141 34.2298 90.4022 34.2298V34.4359C90.5389 34.4359 90.7013 34.3758 90.8894 34.2556C91.0774 34.1182 91.2313 34.0495 91.3509 34.0495L91.1714 34.2041C91.3253 34.3414 91.462 34.4359 91.5817 34.4874C91.7014 34.5217 91.8638 34.5389 92.0689 34.5389C92.2057 34.5389 92.3339 34.5045 92.4535 34.4359C92.5732 34.3672 92.633 34.2642 92.633 34.1268C92.633 33.7834 92.4535 33.5773 92.0946 33.5086C91.7356 33.44 91.3167 33.4056 90.8381 33.4056C90.5304 33.4056 90.2825 33.44 90.0945 33.5086C89.9235 33.5602 89.7098 33.6975 89.4534 33.9207L89.6073 33.5859C89.1457 33.7576 88.6842 33.998 88.2226 34.3071C87.761 34.599 87.5303 34.9424 87.5303 35.3373C87.5303 35.4232 87.5388 35.4833 87.5559 35.5176L86.761 36.2903ZM102.3 39.0462C102.762 39.0119 103.112 38.9346 103.351 38.8144L103.377 37.8357C103.377 37.4236 103.317 37.0372 103.198 36.6766H102.736C102.787 36.6595 102.847 36.5994 102.916 36.4963C102.984 36.3762 103.027 36.2903 103.044 36.2388C103.044 36.0156 102.916 35.7323 102.659 35.3888C102.403 35.0283 102.104 34.7192 101.762 34.4616C101.437 34.1869 101.172 34.0495 100.967 34.0495C100.881 34.0495 100.787 34.0753 100.685 34.1268C100.582 34.1611 100.48 34.1783 100.377 34.1783C100.377 34.144 100.394 34.1096 100.428 34.0753C100.48 34.0238 100.505 33.9808 100.505 33.9465C100.505 33.792 100.317 33.6975 99.941 33.6632C99.582 33.6117 99.2487 33.5859 98.941 33.5859C98.4623 33.5859 97.9837 33.7061 97.505 33.9465C97.0435 34.1869 96.6759 34.496 96.4024 34.8737L96.5563 35.0282L98.1461 34.2041L97.9922 34.5389C98.3341 34.2985 98.5905 34.1354 98.7615 34.0495L98.4538 34.5389C99.565 34.7621 100.163 34.8737 100.249 34.8737L100.685 34.8222C100.685 35.0111 100.693 35.1313 100.71 35.1828C100.744 35.2343 100.796 35.2601 100.864 35.2601L101.172 35.2343L101.146 35.5176C101.18 35.552 101.232 35.6636 101.3 35.8524C101.386 36.0242 101.462 36.11 101.531 36.11C101.616 36.0928 101.727 36.0585 101.864 36.007C102.001 35.9555 102.129 35.8954 102.249 35.8267C102.146 35.9297 102.035 36.0671 101.915 36.2388C101.796 36.3933 101.736 36.4878 101.736 36.5221C101.736 36.5908 101.796 36.6423 101.915 36.6766C102.035 36.711 102.095 36.7367 102.095 36.7539C102.095 36.8226 102.078 36.9084 102.044 37.0115C102.009 37.0973 101.975 37.1746 101.941 37.2433H102.249C102.146 37.3978 102.078 37.6124 102.044 37.8872C102.009 38.1104 101.967 38.2821 101.915 38.4023C101.881 38.5053 101.787 38.5912 101.633 38.6599C101.651 38.6599 101.676 38.6684 101.71 38.6856C101.745 38.6856 101.796 38.6856 101.864 38.6856C102.086 38.6856 102.266 38.6341 102.403 38.5311L101.762 39.1235L102.3 39.0462ZM86.9148 35.1828C86.8294 35.0798 86.7781 34.9939 86.761 34.9252C86.7439 34.8565 86.7354 34.7449 86.7354 34.5904C86.7354 34.5217 86.761 34.4273 86.8123 34.3071C86.8807 34.1869 86.9148 34.101 86.9148 34.0495C86.9148 33.9465 86.7268 33.895 86.3507 33.895C86.0943 33.895 85.9661 33.9722 85.9661 34.1268C85.9661 34.2126 85.9917 34.3157 86.043 34.4359C86.0943 34.5389 86.1456 34.5904 86.1969 34.5904C86.214 34.5904 86.2396 34.5732 86.2738 34.5389L85.9661 35.0282C85.9832 35.0626 86.0088 35.0969 86.043 35.1313C86.0943 35.1656 86.137 35.1828 86.1712 35.1828C86.2738 35.1828 86.3593 35.1742 86.4276 35.157C86.5131 35.1399 86.573 35.1313 86.6071 35.1313V35.3373L86.9148 35.1828ZM92.4279 34.7707C92.4279 34.8565 92.4621 34.9252 92.5305 34.9767C92.5988 35.0111 92.6672 35.0282 92.7356 35.0282C92.8553 35.0111 93.0348 34.9767 93.2741 34.9252C93.5134 34.8565 93.71 34.7793 93.8639 34.6934C93.7271 34.5389 93.5989 34.4187 93.4792 34.3328C93.3596 34.247 93.2313 34.2041 93.0946 34.2041C92.9407 34.2041 92.8211 34.2384 92.7356 34.3071C92.6672 34.3758 92.6074 34.4616 92.5561 34.5646C92.5048 34.6505 92.4621 34.7192 92.4279 34.7707ZM93.6844 35.0282C93.4792 35.0282 93.2912 35.0712 93.1202 35.157C92.9664 35.2257 92.8895 35.3545 92.8895 35.5434C93.2997 35.5434 93.6245 35.3717 93.8639 35.0282H93.6844ZM94.1972 35.1828C94.1459 35.1828 93.9664 35.2858 93.6587 35.4919C93.3681 35.6807 93.2228 35.7923 93.2228 35.8267C93.8724 35.8267 94.2998 35.6636 94.5049 35.3373L94.1972 35.1828ZM95.9152 35.3116C95.7272 35.3116 95.4451 35.4489 95.069 35.7237C94.6929 35.9812 94.3425 36.2731 94.0177 36.5994C93.71 36.9084 93.5561 37.1231 93.5561 37.2433C93.8468 37.1231 94.1203 37.0458 94.3767 37.0115C94.5818 36.96 94.7357 36.9084 94.8383 36.8569C94.9579 36.7883 95.1203 36.6251 95.3255 36.3676C95.5306 36.11 95.787 35.7666 96.0947 35.3373L95.9152 35.3116ZM85.9661 36.11H86.1199V35.9555L85.9661 36.11ZM94.1972 35.9555C93.9066 35.9726 93.6673 36.0156 93.4792 36.0842C93.3083 36.1529 93.2228 36.3075 93.2228 36.5479C93.2228 36.5994 93.2826 36.6251 93.4023 36.6251C93.4878 36.5908 93.6416 36.5221 93.8639 36.4191C94.0861 36.2989 94.1972 36.1959 94.1972 36.11V35.9555ZM94.6588 37.0887C94.3852 37.0887 94.1288 37.166 93.8895 37.3205C93.6502 37.4579 93.5305 37.6554 93.5305 37.9129C93.6331 37.8614 93.8297 37.767 94.1203 37.6296C94.428 37.4751 94.6588 37.3463 94.8126 37.2433C94.8126 37.2089 94.7955 37.1746 94.7613 37.1403C94.7271 37.1059 94.693 37.0887 94.6588 37.0887ZM94.3511 38.3508C93.8895 38.4538 93.6587 38.6255 93.6587 38.8659C93.6587 38.9174 93.6673 38.9603 93.6844 38.9947C93.8211 38.9603 94.0348 38.8144 94.3254 38.5568C94.3596 38.5225 94.4536 38.4452 94.6075 38.325C94.7613 38.2048 94.881 38.1447 94.9665 38.1447V37.4236C94.7613 37.5094 94.4707 37.6811 94.0946 37.9387C93.7356 38.1791 93.5561 38.3164 93.5561 38.3508H94.3511ZM94.8126 39.6128C94.6759 39.8361 94.4793 39.982 94.2228 40.0507C94.069 40.1194 93.9579 40.1966 93.8895 40.2825C93.8211 40.3683 93.7869 40.5229 93.7869 40.7461C94.163 40.7461 94.5049 40.5401 94.8126 40.128C95.1374 39.6987 95.2998 39.2952 95.2998 38.9174C95.2998 38.7801 95.2827 38.677 95.2485 38.6083C95.2314 38.5397 95.1716 38.5053 95.069 38.5053C94.8468 38.5053 94.5562 38.6599 94.1972 38.9689C93.8553 39.2608 93.6844 39.4755 93.6844 39.6128C93.6844 39.6472 93.7015 39.6815 93.7356 39.7159C93.7869 39.7502 93.8297 39.7674 93.8639 39.7674C93.9322 39.7674 94.0604 39.7416 94.2485 39.6901C94.4365 39.6386 94.6246 39.6128 94.8126 39.6128ZM87.2738 38.9432C87.1029 38.9603 86.9405 39.0376 86.7866 39.175C86.6499 39.2952 86.5815 39.4411 86.5815 39.6128L86.6071 39.7674C86.8807 39.733 87.0602 39.6643 87.1456 39.5613C87.2311 39.4411 87.2738 39.2351 87.2738 38.9432ZM103.351 39.1235C102.958 39.381 102.488 39.8103 101.941 40.4113C102.351 40.4113 102.71 40.3512 103.018 40.231C103.343 40.0936 103.505 39.8876 103.505 39.6128C103.505 39.5957 103.454 39.4325 103.351 39.1235ZM101.608 39.6901C101.608 39.7588 101.633 39.8189 101.685 39.8704C101.736 39.9219 101.779 39.9477 101.813 39.9477C101.898 39.9477 102.146 39.7416 102.557 39.3295H102.403C102.215 39.3295 102.035 39.3553 101.864 39.4068C101.693 39.4583 101.608 39.5527 101.608 39.6901ZM95.2998 40.2052C95.0947 40.2052 94.9152 40.2825 94.7613 40.437C94.6075 40.5744 94.4194 40.7804 94.1972 41.0552H95.2998V40.2052ZM102.89 40.7461C102.77 40.8148 102.616 40.9264 102.428 41.0809C102.257 41.2183 102.146 41.3127 102.095 41.3642H102.249C102.403 41.3642 102.659 41.287 103.018 41.1324C103.394 40.9779 103.582 40.8663 103.582 40.7976C103.582 40.6774 103.539 40.583 103.454 40.5143C103.369 40.4456 103.257 40.4113 103.121 40.4113C102.984 40.4113 102.745 40.4628 102.403 40.5658C102.078 40.6688 101.915 40.832 101.915 41.0552L101.941 41.2355C102.112 41.0294 102.249 40.8921 102.351 40.8234C102.454 40.7375 102.582 40.6946 102.736 40.6946L102.89 40.7461ZM86.5302 40.5916C86.3764 40.5916 86.2482 40.6345 86.1456 40.7203C86.043 40.8062 85.9832 40.9178 85.9661 41.0552L86.043 41.0809C86.0943 41.0809 86.2823 40.9178 86.6071 40.5916H86.5302ZM102.044 42.8066C102.044 43.0985 102.095 43.3818 102.198 43.6565C102.283 43.9484 102.326 44.206 102.326 44.4292C103.129 44.4292 103.531 44.1802 103.531 43.6823C103.531 43.5621 103.471 43.4848 103.351 43.4505C103.471 43.4161 103.531 43.3131 103.531 43.1414C103.531 43.0384 103.497 42.901 103.428 42.7293C103.377 42.5404 103.351 42.4031 103.351 42.3172C103.369 42.3001 103.394 42.2743 103.428 42.24C103.463 42.2056 103.488 42.1799 103.505 42.1627C103.522 42.0425 103.539 41.8794 103.557 41.6733C103.574 41.4501 103.582 41.2698 103.582 41.1324C103.343 41.1324 103.086 41.2011 102.813 41.3385C102.557 41.4587 102.266 41.6218 101.941 41.8279C101.941 42.0167 101.984 42.2056 102.069 42.3945C102.155 42.5662 102.198 42.7036 102.198 42.8066H102.044ZM93.6844 42.4202C93.6844 42.4546 93.7015 42.4975 93.7356 42.549C93.7698 42.6005 93.8126 42.6263 93.8639 42.6263L95.146 41.3642C94.5306 41.3642 94.1288 41.4501 93.9408 41.6218C93.7698 41.7935 93.6844 42.0597 93.6844 42.4202ZM93.6844 43.4505C94.1117 43.4333 94.4964 43.2616 94.8383 42.9354C95.1802 42.592 95.3511 42.2142 95.3511 41.8021C95.1289 41.8021 94.9408 41.8708 94.787 42.0082C94.6502 42.1283 94.5049 42.3086 94.3511 42.549H94.8126C94.8126 42.6692 94.71 42.7722 94.5049 42.8581C94.3169 42.944 94.0434 43.0384 93.6844 43.1414V43.4505ZM85.6327 42.3172C85.6327 42.3687 85.6498 42.4288 85.684 42.4975C85.7353 42.5662 85.7781 42.6091 85.8122 42.6263C86.0345 42.4889 86.1883 42.2829 86.2738 42.0082C86.2225 42.0253 86.1029 42.0682 85.9148 42.1369C85.7268 42.1884 85.6327 42.2485 85.6327 42.3172ZM87.0687 42.3172C87.0516 42.3344 86.9832 42.3945 86.8636 42.4975C86.7439 42.5834 86.6841 42.695 86.6841 42.8323C86.9576 42.8323 87.0943 42.7207 87.0943 42.4975L87.0687 42.3172ZM94.6588 44.2232V43.9141H94.9921C94.9921 43.9656 94.9836 44.0085 94.9665 44.0429C94.9494 44.0601 94.9408 44.0772 94.9408 44.0944C94.9408 44.1287 95.0092 44.1717 95.146 44.2232L95.2998 44.0686V42.9611C95.0605 43.0985 94.8126 43.2273 94.5562 43.3475C94.4878 43.3818 94.3511 43.4505 94.1459 43.5535C93.9579 43.6565 93.8639 43.7424 93.8639 43.8111C93.8639 43.9141 93.8895 43.9828 93.9408 44.0171C93.9921 44.0343 94.0263 44.0515 94.0433 44.0686L93.8639 44.2232H94.6588ZM85.8122 44.1459C85.949 44.1459 86.1029 44.0085 86.2738 43.7338H85.8122V44.1459ZM86.2738 44.5322H86.9148V44.0686L86.2738 44.5322Z" fill="#368D00"/>
<defs>
<filter id="filter0_d" x="9.50513" y="5.45679" width="188.126" height="76.7139" filterUnits="userSpaceOnUse" color-interpolation-filters="sRGB">
<feFlood flood-opacity="0" result="BackgroundImageFix"/>
<feColorMatrix in="SourceAlpha" type="matrix" values="0 0 0 0 0 0 0 0 0 0 0 0 0 0 0 0 0 0 127 0" result="hardAlpha"/>
<feOffset dx="1" dy="6"/>
<feGaussianBlur stdDeviation="7.5"/>
<feColorMatrix type="matrix" values="0 0 0 0 0 0 0 0 0 0 0 0 0 0 0 0 0 0 0.17 0"/>
<feBlend mode="normal" in2="BackgroundImageFix" result="effect1_dropShadow"/>
<feBlend mode="normal" in="SourceGraphic" in2="effect1_dropShadow" result="shape"/>
</filter>
</defs>
</svg>
