<svg width="36" height="36" viewBox="0 0 36 36" fill="none" xmlns="http://www.w3.org/2000/svg">
<path d="M13.9928 17.7882L7.02872 17.8079C7.12947 16.0346 7.80439 14.2925 9.05349 12.8785L13.9928 17.7882ZM7.02872 18.7859C7.14017 20.5547 7.82757 22.2924 9.08558 23.7046L13.9964 18.7681L7.02872 18.7859ZM14.6633 10.1262C12.8944 10.2377 11.1576 10.9233 9.74713 12.183L14.682 17.0919L14.6633 10.1262ZM9.78012 24.3946C11.1942 25.6428 12.9372 26.3186 14.7096 26.4194L14.6909 19.4554L9.78012 24.3946ZM15.6904 26.4194C17.4575 26.3106 19.196 25.6214 20.6065 24.3634L15.6699 19.4537L15.6904 26.4194ZM23.3231 17.7597C23.2117 15.9909 22.527 14.2541 21.2663 12.8428L16.3573 17.7793L23.3231 17.7597ZM15.6431 10.1262L15.6618 17.0893L20.5726 12.151C19.1595 10.9037 17.4165 10.2297 15.6431 10.1262ZM21.2984 23.6698C22.5457 22.2558 23.2224 20.5128 23.3231 18.7413L16.359 18.76L21.2984 23.6698ZM32.9896 33.4706L30.4762 35.9991L23.2982 28.8622L23.9258 28.231L22.4432 26.759C20.4184 28.4967 17.8738 29.4524 15.1768 29.4524C12.2043 29.4524 9.40388 28.2979 7.2953 26.2018C5.17959 24.0969 4.00717 21.292 4.00004 18.3071C3.99202 15.3213 5.14661 12.512 7.25161 10.3946C8.99643 8.63913 11.2227 7.54787 13.6317 7.21621C12.6349 4.46042 9.02496 3.16588 8.98484 3.15073L9.56525 1.4648C9.72752 1.52008 12.4647 2.49722 14.2219 4.68687C14.3263 3.80869 14.723 1.71265 16.195 0.690043C18.0825 -0.622322 21.0211 0.340554 21.0211 0.340554C21.0211 0.340554 20.8989 3.43068 19.0115 4.74304C17.5538 5.75584 15.4746 5.41349 14.6009 5.20486C14.9798 5.771 15.2892 6.40133 15.4755 7.1119C18.3366 7.18768 21.0202 8.32352 23.0574 10.3491C25.1749 12.4541 26.3456 15.258 26.3518 18.2429C26.3607 20.9292 25.4201 23.4674 23.6967 25.493L25.1785 26.9659L25.8071 26.3338L32.9896 33.4706ZM21.8378 24.8966C23.6067 23.1188 24.5785 20.7544 24.5713 18.2474C24.5624 15.7386 23.579 13.3822 21.8012 11.6133C20.0288 9.85075 17.6759 8.88074 15.1768 8.88074C12.6581 8.88074 10.2919 9.86501 8.51408 11.6517C6.7452 13.4312 5.77517 15.7929 5.7823 18.3018C5.79032 20.8097 6.77284 23.1679 8.55242 24.9367C10.324 26.6993 12.676 27.6675 15.175 27.6675C17.6964 27.6684 20.0618 26.685 21.8378 24.8966Z" fill="url(#paint0_linear)"/>
<defs>
<linearGradient id="paint0_linear" x1="18.4948" y1="0" x2="18.4948" y2="35.9991" gradientUnits="userSpaceOnUse">
<stop stop-color="#05FF00"/>
<stop offset="0.244792" stop-color="#FE0000"/>
<stop offset="0.604167" stop-color="#FF0262"/>
<stop offset="1" stop-color="#8E8CF7"/>
</linearGradient>
</defs>
</svg>
