<svg width="390" height="286" viewBox="0 0 390 286" fill="none" xmlns="http://www.w3.org/2000/svg">
<path d="M332.886 255.496C256.743 294.681 133.277 294.681 57.1169 255.496C-19.0432 216.312 -19.0347 152.782 57.1169 113.597C133.268 74.4126 256.726 74.4126 332.886 113.597C409.046 152.782 409.029 216.345 332.886 255.496Z" fill="#F5F5F5"/>
<path d="M337.21 189.946C326.408 189.946 317.651 185.836 317.651 180.766C317.651 175.696 326.408 171.586 337.21 171.586C348.013 171.586 356.77 175.696 356.77 180.766C356.77 185.836 348.013 189.946 337.21 189.946Z" fill="#EBEBEB"/>
<path d="M114.007 202.202C99.5895 202.202 87.9021 196.715 87.9021 189.946C87.9021 183.176 99.5895 177.689 114.007 177.689C128.424 177.689 140.111 183.176 140.111 189.946C140.111 196.715 128.424 202.202 114.007 202.202Z" fill="#EBEBEB"/>
<path d="M35.9658 139.519C35.9658 139.519 33.9486 133.382 27.3863 126.843C24.4925 123.959 22.6029 121.947 23.2072 120.229C23.752 118.711 25.5904 117.923 28.2204 119.147C31.9569 120.891 34.4763 124.127 35.9658 130.624V139.519Z" fill="#4C73EB"/>
<path opacity="0.1" d="M35.9658 139.519C35.9658 139.519 33.9486 133.382 27.3863 126.843C24.4925 123.959 22.6029 121.947 23.2072 120.229C23.752 118.711 25.5904 117.923 28.2204 119.147C31.9569 120.891 34.4763 124.127 35.9658 130.624V139.519Z" fill="black"/>
<path d="M36.3835 135.663H36.4601C36.5421 135.641 36.6122 135.588 36.6552 135.516C36.6982 135.444 36.7107 135.358 36.6899 135.277C34.3492 126.374 28.2976 120.857 25.7357 119.583C25.6586 119.548 25.5705 119.542 25.4897 119.569C25.409 119.596 25.3416 119.652 25.3016 119.726C25.2659 119.8 25.261 119.886 25.288 119.964C25.3149 120.042 25.3717 120.107 25.4463 120.145C27.9231 121.377 33.7875 126.743 36.0685 135.436C36.0889 135.503 36.1307 135.561 36.1875 135.602C36.2443 135.642 36.3131 135.664 36.3835 135.663Z" fill="white"/>
<path d="M35.9658 147.14C35.9658 147.14 33.1656 141.732 29.7866 138.857C26.4075 135.981 22.0667 133.047 25.7436 130.8C29.4206 128.553 35.4722 132.963 35.9573 137.314L35.9658 147.14Z" fill="#4C73EB"/>
<path d="M36.3829 143.292H36.451C36.5328 143.272 36.6034 143.221 36.6479 143.151C36.6925 143.08 36.7073 142.996 36.6893 142.915C35.0977 136.208 29.3865 132.418 27.4885 131.79C27.4102 131.774 27.3287 131.787 27.2597 131.826C27.1907 131.866 27.139 131.93 27.1147 132.005C27.0904 132.08 27.0951 132.161 27.128 132.233C27.1609 132.304 27.2195 132.362 27.2927 132.393C28.995 132.963 34.5615 136.694 36.068 143.057C36.0868 143.125 36.1279 143.185 36.1848 143.227C36.2418 143.27 36.3115 143.292 36.3829 143.292Z" fill="white"/>
<path d="M284.891 201.49C284.891 201.49 286.185 198.656 291.589 197.457C296.849 196.292 299.462 197.457 303.012 196.854C306.561 196.25 305.633 189.719 296.083 190.398C287.342 191.019 284.891 197.793 284.891 197.793V201.49Z" fill="#4C73EB"/>
<path d="M284.372 199.931C284.433 199.929 284.494 199.91 284.545 199.876C284.596 199.842 284.637 199.794 284.661 199.738C285.512 197.734 288.661 194.464 293.096 193.467C298.603 192.234 301.531 193.467 301.556 193.467C301.632 193.492 301.715 193.489 301.789 193.457C301.863 193.425 301.922 193.368 301.955 193.296C301.987 193.223 301.992 193.142 301.967 193.066C301.942 192.991 301.89 192.928 301.82 192.888C301.692 192.838 298.662 191.539 292.96 192.821C288.031 193.928 284.891 197.483 284.074 199.469C284.057 199.507 284.048 199.548 284.048 199.589C284.047 199.631 284.055 199.672 284.071 199.71C284.087 199.748 284.11 199.783 284.14 199.812C284.17 199.842 284.205 199.865 284.244 199.88L284.372 199.931Z" fill="white"/>
<path d="M284.89 198.262C285.968 196.362 287.347 194.644 288.976 193.173C294.083 188.294 300.892 186.76 304.296 184.094C308.041 181.219 303.505 177.899 298.687 178.108C295.93 178.234 293.019 180.028 291.419 181.319C285.784 185.855 284.856 193.173 284.856 193.173L284.89 198.262Z" fill="#4C73EB"/>
<path opacity="0.5" d="M284.89 198.262C285.968 196.362 287.347 194.644 288.976 193.173C294.083 188.294 300.892 186.76 304.296 184.094C308.041 181.219 303.505 177.899 298.687 178.108C295.93 178.234 293.019 180.028 291.419 181.319C285.784 185.855 284.856 193.173 284.856 193.173L284.89 198.262Z" fill="white"/>
<path d="M284.372 197.768C284.448 197.767 284.521 197.739 284.579 197.69C284.636 197.641 284.674 197.574 284.686 197.499C285.357 193.975 286.98 190.694 289.385 188.001C293.402 183.499 300.271 181.085 300.347 181.059C300.425 181.031 300.489 180.974 300.525 180.901C300.562 180.828 300.568 180.743 300.543 180.665C300.53 180.626 300.509 180.589 300.481 180.558C300.453 180.527 300.419 180.502 300.381 180.484C300.342 180.466 300.301 180.455 300.259 180.453C300.217 180.452 300.174 180.458 300.135 180.473C299.845 180.565 293.036 182.988 288.908 187.582C286.405 190.36 284.724 193.761 284.048 197.416C284.042 197.457 284.045 197.499 284.056 197.54C284.067 197.58 284.086 197.618 284.112 197.651C284.139 197.684 284.171 197.711 284.209 197.731C284.246 197.751 284.287 197.764 284.329 197.768H284.372Z" fill="white"/>
<path d="M168.08 250.366C168.08 250.366 166.633 247.599 161.169 246.685C155.858 245.797 153.313 247.063 149.73 246.685C146.146 246.308 146.725 239.694 156.301 239.87C165.059 240.029 167.876 246.66 167.876 246.66L168.08 250.366Z" fill="#4C73EB"/>
<path opacity="0.1" d="M168.08 250.366C168.08 250.366 166.633 247.599 161.169 246.685C155.858 245.797 153.313 247.063 149.73 246.685C146.146 246.308 146.725 239.694 156.301 239.87C165.059 240.029 167.876 246.66 167.876 246.66L168.08 250.366Z" fill="black"/>
<path d="M168.497 249.041C168.563 249.038 168.628 249.018 168.684 248.982C168.718 248.959 168.748 248.929 168.77 248.894C168.793 248.86 168.808 248.821 168.815 248.78C168.822 248.74 168.821 248.698 168.812 248.658C168.802 248.618 168.785 248.58 168.761 248.546C166.727 245.679 163.024 243.516 158.845 242.795C153.474 241.848 150.334 243.525 150.197 243.634C150.161 243.654 150.129 243.68 150.103 243.712C150.077 243.744 150.058 243.781 150.047 243.82C150.035 243.86 150.032 243.901 150.036 243.941C150.041 243.982 150.054 244.021 150.074 244.057C150.094 244.093 150.121 244.124 150.154 244.15C150.186 244.175 150.223 244.194 150.263 244.206C150.303 244.217 150.345 244.22 150.386 244.216C150.428 244.211 150.467 244.198 150.504 244.179C150.504 244.179 153.593 242.544 158.734 243.449C162.743 244.153 166.301 246.207 168.233 248.94C168.267 248.975 168.308 249.002 168.354 249.019C168.399 249.036 168.448 249.044 168.497 249.041Z" fill="white"/>
<path d="M167.697 246.484C166.461 244.953 165.056 243.561 163.509 242.334C158.121 237.74 151.304 236.994 147.695 234.513C143.797 231.838 148.146 228.284 152.972 228.242C155.73 228.242 158.734 229.86 160.411 231.067C163.984 233.704 166.656 237.35 168.071 241.521L167.697 246.484Z" fill="#4C73EB"/>
<path opacity="0.5" d="M167.697 246.484C166.461 244.953 165.056 243.561 163.509 242.334C158.121 237.74 151.304 236.994 147.695 234.513C143.797 231.838 148.146 228.284 152.972 228.242C155.73 228.242 158.734 229.86 160.411 231.067C163.984 233.704 166.656 237.35 168.071 241.521L167.697 246.484Z" fill="white"/>
<path d="M168.497 246.417H168.616C168.694 246.388 168.758 246.332 168.796 246.259C168.834 246.186 168.843 246.102 168.82 246.023C167.49 242.424 165.388 239.15 162.658 236.424C159.697 233.416 155.85 231.401 151.661 230.664C151.62 230.659 151.579 230.661 151.539 230.671C151.499 230.682 151.461 230.7 151.429 230.725C151.396 230.75 151.369 230.782 151.349 230.817C151.329 230.853 151.317 230.892 151.312 230.933C151.307 230.974 151.309 231.016 151.32 231.057C151.331 231.097 151.35 231.135 151.377 231.168C151.403 231.201 151.436 231.228 151.473 231.248C151.51 231.268 151.551 231.281 151.593 231.285C155.626 232.039 159.329 233.986 162.207 236.868C164.851 239.52 166.884 242.703 168.165 246.199C168.188 246.267 168.233 246.325 168.293 246.364C168.353 246.404 168.425 246.422 168.497 246.417Z" fill="white"/>
<path d="M250.326 202.194V138.857H284.89V202.202C284.89 204.717 283.188 207.232 279.784 209.144C273.034 212.984 262.088 212.984 255.339 209.144C251.934 207.224 250.283 204.717 250.274 202.202L250.326 202.194Z" fill="#37474F"/>
<path d="M279.826 146.234C286.584 142.395 286.584 136.174 279.826 132.326C273.068 128.478 262.131 128.486 255.381 132.326C248.632 136.166 248.632 142.386 255.381 146.234C262.131 150.082 273.077 150.065 279.826 146.234Z" fill="#455A64"/>
<path d="M208.833 225.794V179.684H243.406V225.794C243.406 228.309 241.704 230.824 238.299 232.735C231.55 236.575 220.604 236.575 213.855 232.735C210.45 230.824 208.79 228.309 208.79 225.794H208.833Z" fill="#37474F"/>
<path d="M238.342 187.07C245.091 183.231 245.091 177.01 238.342 173.162C231.592 169.314 220.646 169.322 213.897 173.162C207.147 177.002 207.139 183.222 213.897 187.07C220.655 190.918 231.601 190.943 238.342 187.07Z" fill="#455A64"/>
<path d="M167.339 249.385V213.579H201.913V249.393C201.913 251.908 200.21 254.423 196.806 256.343C190.056 260.183 179.111 260.183 172.361 256.343C168.956 254.423 167.305 251.908 167.297 249.393L167.339 249.385Z" fill="#37474F"/>
<path d="M184.626 223.823C175.079 223.823 167.339 219.421 167.339 213.99C167.339 208.559 175.079 204.156 184.626 204.156C194.173 204.156 201.913 208.559 201.913 213.99C201.913 219.421 194.173 223.823 184.626 223.823Z" fill="#455A64"/>
<path d="M287.103 224.528L295.266 219.892L290.746 214.124C290.167 213.386 290.44 212.984 291.351 213.21L302.177 215.96L310.34 211.315C311.025 210.972 311.783 210.793 312.552 210.793C313.322 210.793 314.08 210.972 314.765 211.315L327.626 218.609C328.852 219.305 328.852 220.428 327.626 221.124L304.39 234.337C303.704 234.68 302.946 234.859 302.177 234.859C301.408 234.859 300.65 234.68 299.964 234.337L287.103 227.018C285.886 226.347 285.886 225.224 287.103 224.528Z" fill="#4C73EB"/>
<path d="M300.16 221.686C300.027 221.673 299.893 221.673 299.76 221.686C299.628 221.702 299.5 221.745 299.385 221.811L298.219 222.474C298.141 222.511 298.08 222.577 298.049 222.658C298.049 222.725 298.049 222.784 298.168 222.826C298.196 222.833 298.226 222.833 298.253 222.826C298.295 222.835 298.339 222.835 298.381 222.826L314.553 224.083H315.012C315.145 224.064 315.272 224.018 315.387 223.949L316.553 223.287C316.632 223.249 316.693 223.183 316.723 223.102C316.723 223.035 316.723 222.977 316.604 222.935C316.576 222.927 316.547 222.927 316.519 222.935H316.391L300.16 221.686ZM305.369 220.621C305.715 220.849 306.076 221.053 306.45 221.233C306.752 221.384 307.068 221.505 307.395 221.593C307.737 221.679 308.089 221.721 308.442 221.719C309.229 221.721 310.003 221.512 310.68 221.116C311.003 220.96 311.292 220.743 311.531 220.478C311.686 220.304 311.774 220.081 311.778 219.85C311.775 219.631 311.693 219.42 311.548 219.254C311.379 219.038 311.171 218.853 310.935 218.71C310.774 218.595 310.606 218.488 310.433 218.391C310.272 218.299 310.076 218.198 309.863 218.098C309.557 217.946 309.234 217.827 308.901 217.745C308.194 217.572 307.455 217.572 306.748 217.745C306.355 217.85 305.977 218.005 305.624 218.206C305.317 218.364 305.045 218.581 304.824 218.844C304.667 219.017 304.577 219.24 304.569 219.472C304.58 219.69 304.66 219.898 304.799 220.068C304.955 220.283 305.148 220.471 305.369 220.621ZM303.76 227.177C304.09 227.419 304.437 227.638 304.799 227.831C305.103 227.981 305.422 228.099 305.752 228.183C306.093 228.275 306.445 228.321 306.799 228.317C307.176 228.316 307.551 228.265 307.914 228.166C308.308 228.068 308.686 227.915 309.037 227.713C309.341 227.551 309.612 227.335 309.837 227.076C309.994 226.9 310.082 226.674 310.084 226.439C310.078 226.222 310 226.014 309.863 225.844C309.69 225.63 309.479 225.449 309.242 225.307C309.084 225.188 308.916 225.081 308.739 224.989C308.556 224.879 308.365 224.781 308.169 224.695C307.866 224.543 307.546 224.425 307.216 224.343C306.873 224.26 306.522 224.215 306.169 224.209C305.384 224.209 304.614 224.417 303.939 224.813C303.614 224.966 303.325 225.183 303.088 225.45C302.938 225.619 302.855 225.837 302.855 226.062C302.855 226.287 302.938 226.504 303.088 226.674C303.281 226.878 303.509 227.048 303.76 227.177ZM309.182 219.632C309.351 219.726 309.49 219.865 309.582 220.034C309.582 220.151 309.582 220.269 309.335 220.386C309.151 220.496 308.937 220.546 308.722 220.529C308.475 220.49 308.236 220.411 308.016 220.294C307.693 220.142 307.383 219.965 307.088 219.766C306.915 219.674 306.773 219.534 306.68 219.363C306.68 219.246 306.722 219.129 306.927 219.011C307.113 218.9 307.331 218.853 307.548 218.877C307.792 218.911 308.029 218.988 308.246 219.104C308.571 219.243 308.884 219.409 309.182 219.598V219.632ZM307.565 226.188C307.738 226.279 307.88 226.419 307.973 226.59C307.973 226.699 307.973 226.816 307.727 226.934C307.543 227.051 307.323 227.101 307.105 227.076C306.862 227.038 306.626 226.962 306.407 226.85C306.081 226.699 305.768 226.523 305.471 226.322C305.3 226.23 305.16 226.09 305.071 225.919C305.071 225.802 305.071 225.685 305.318 225.567C305.502 225.457 305.716 225.407 305.931 225.425C306.175 225.462 306.412 225.542 306.629 225.659C306.954 225.799 307.267 225.965 307.565 226.154V226.188Z" fill="white"/>
<path d="M242.146 250.081L250.326 245.436L245.806 239.677C245.236 238.939 245.508 238.528 246.419 238.763L257.246 241.504L265.408 236.868C266.092 236.525 266.849 236.346 267.617 236.346C268.384 236.346 269.141 236.525 269.825 236.868L282.669 244.179C283.886 244.874 283.886 246.006 282.669 246.694L259.433 259.914C258.746 260.254 257.988 260.43 257.22 260.43C256.452 260.43 255.694 260.254 255.007 259.914L242.146 252.596C240.921 251.9 240.921 250.776 242.146 250.081Z" fill="#4C73EB"/>
<path d="M255.202 247.239H254.794C254.662 247.259 254.534 247.305 254.419 247.373L253.262 248.035C253.16 248.094 253.1 248.152 253.092 248.219C253.083 248.286 253.092 248.337 253.202 248.387C253.23 248.393 253.259 248.393 253.287 248.387H253.415L269.587 249.645C269.723 249.658 269.859 249.658 269.995 249.645C270.128 249.626 270.256 249.58 270.37 249.51L271.527 248.857C271.629 248.798 271.689 248.731 271.698 248.672C271.7 248.635 271.691 248.598 271.671 248.566C271.651 248.535 271.622 248.51 271.587 248.496H271.502H271.374L255.202 247.239ZM260.411 246.174C260.753 246.403 261.112 246.608 261.484 246.786C261.788 246.936 262.107 247.054 262.437 247.138C262.778 247.23 263.13 247.275 263.484 247.272C263.861 247.271 264.236 247.22 264.599 247.121C264.993 247.023 265.371 246.87 265.722 246.668C266.029 246.505 266.302 246.29 266.531 246.031C266.685 245.862 266.771 245.643 266.771 245.415C266.771 245.188 266.685 244.968 266.531 244.799C266.359 244.587 266.152 244.406 265.918 244.262C265.758 244.146 265.59 244.04 265.416 243.944C265.229 243.836 265.035 243.738 264.837 243.65C264.534 243.499 264.214 243.38 263.884 243.298C263.333 243.16 262.76 243.131 262.198 243.211C261.636 243.292 261.095 243.481 260.607 243.768C260.299 243.928 260.025 244.144 259.799 244.405C259.642 244.578 259.555 244.802 259.552 245.034C259.558 245.252 259.639 245.462 259.782 245.629C259.956 245.847 260.169 246.032 260.411 246.174ZM258.794 252.73C259.14 252.958 259.501 253.162 259.875 253.342C260.176 253.494 260.493 253.612 260.82 253.694C261.162 253.779 261.514 253.821 261.867 253.82C262.655 253.821 263.428 253.613 264.105 253.216C264.413 253.058 264.687 252.845 264.914 252.587C265.071 252.411 265.158 252.185 265.161 251.95C265.151 251.733 265.07 251.524 264.931 251.355C264.759 251.14 264.552 250.956 264.318 250.81C264.148 250.693 263.978 250.592 263.816 250.491C263.654 250.391 263.458 250.299 263.246 250.198C262.939 250.046 262.617 249.928 262.284 249.846C261.94 249.769 261.589 249.727 261.237 249.72C260.863 249.719 260.491 249.767 260.131 249.863C259.736 249.962 259.357 250.118 259.007 250.324C258.699 250.484 258.425 250.7 258.198 250.961C258.045 251.129 257.96 251.347 257.96 251.573C257.96 251.799 258.045 252.017 258.198 252.185C258.365 252.398 258.566 252.582 258.794 252.73ZM264.216 245.185C264.389 245.276 264.531 245.416 264.625 245.587C264.625 245.696 264.582 245.813 264.378 245.931C264.194 246.048 263.974 246.098 263.756 246.073C263.513 246.034 263.278 245.958 263.058 245.847C262.73 245.697 262.417 245.517 262.122 245.31C261.952 245.221 261.813 245.084 261.722 244.916C261.722 244.799 261.765 244.682 261.969 244.564C262.151 244.45 262.367 244.4 262.582 244.422C262.829 244.459 263.068 244.538 263.288 244.656C263.611 244.796 263.921 244.962 264.216 245.151V245.185ZM262.607 251.74C262.774 251.835 262.912 251.971 263.007 252.135C263.007 252.252 262.965 252.369 262.761 252.487C262.578 252.601 262.362 252.651 262.148 252.629C261.901 252.591 261.663 252.515 261.441 252.403C261.119 252.246 260.809 252.067 260.514 251.866C260.343 251.774 260.202 251.638 260.105 251.472C260.062 251.355 260.105 251.237 260.352 251.12C260.537 251.007 260.756 250.957 260.973 250.978C261.216 251.017 261.452 251.093 261.671 251.204C261.994 251.351 262.307 251.519 262.607 251.707V251.74Z" fill="white"/>
<path d="M197.223 275.617L205.385 270.981L200.857 265.205C200.287 264.475 200.559 264.064 201.47 264.299L212.297 267.04L220.459 262.404C221.145 262.061 221.903 261.882 222.672 261.882C223.441 261.882 224.199 262.061 224.885 262.404L237.746 269.748C238.963 270.444 238.963 271.576 237.746 272.263L214.509 285.484C213.823 285.823 213.065 286 212.297 286C211.528 286 210.77 285.823 210.084 285.484L197.223 278.132C195.997 277.461 195.997 276.338 197.223 275.617Z" fill="#4C73EB"/>
<path d="M210.28 272.8H209.879C209.747 272.82 209.619 272.865 209.505 272.934L208.339 273.596C208.237 273.655 208.177 273.714 208.169 273.781C208.16 273.848 208.169 273.898 208.279 273.949H208.364H208.492L224.664 275.206C224.797 275.219 224.931 275.219 225.064 275.206C225.197 275.189 225.325 275.143 225.438 275.072L226.596 274.418C226.698 274.359 226.758 274.292 226.766 274.234C226.769 274.196 226.76 274.159 226.74 274.128C226.72 274.096 226.69 274.072 226.655 274.058H226.57C226.528 274.048 226.485 274.048 226.443 274.058L210.28 272.8ZM215.488 271.735C215.832 271.966 216.194 272.171 216.569 272.347C216.87 272.499 217.187 272.617 217.514 272.699C217.855 272.791 218.208 272.836 218.561 272.833C218.941 272.832 219.318 272.781 219.685 272.683C220.076 272.585 220.452 272.432 220.8 272.23C221.106 272.067 221.379 271.851 221.608 271.593C221.765 271.416 221.853 271.19 221.855 270.956C221.845 270.738 221.765 270.529 221.625 270.36C221.451 270.148 221.244 269.964 221.012 269.815C220.842 269.698 220.672 269.597 220.51 269.505C220.349 269.413 220.153 269.312 219.94 269.203C219.314 268.901 218.628 268.738 217.931 268.726C217.147 268.728 216.377 268.937 215.701 269.329C215.393 269.49 215.119 269.706 214.893 269.966C214.739 270.141 214.652 270.364 214.646 270.595C214.657 270.812 214.737 271.021 214.876 271.19C215.045 271.407 215.253 271.591 215.488 271.735ZM213.88 278.291C214.224 278.517 214.582 278.722 214.952 278.903C215.253 279.054 215.57 279.172 215.897 279.255C216.609 279.434 217.355 279.434 218.067 279.255C218.459 279.154 218.835 278.999 219.182 278.794C219.507 278.641 219.797 278.424 220.034 278.157C220.191 277.984 220.279 277.761 220.28 277.528C220.276 277.311 220.198 277.102 220.059 276.933C219.882 276.721 219.672 276.537 219.438 276.388C219.276 276.273 219.109 276.167 218.936 276.07C218.774 275.977 218.578 275.877 218.365 275.776C217.744 275.461 217.055 275.297 216.357 275.298C215.983 275.297 215.611 275.345 215.25 275.441C214.858 275.542 214.483 275.697 214.135 275.902C213.811 276.055 213.521 276.272 213.284 276.539C213.126 276.712 213.038 276.935 213.037 277.168C213.042 277.385 213.12 277.594 213.258 277.763C213.433 277.973 213.643 278.152 213.88 278.291ZM219.302 270.746C219.471 270.84 219.61 270.98 219.702 271.148C219.702 271.257 219.659 271.375 219.455 271.492C219.272 271.605 219.057 271.655 218.842 271.635C218.596 271.597 218.357 271.52 218.136 271.408C217.808 271.256 217.495 271.077 217.199 270.872C217.029 270.782 216.89 270.645 216.799 270.478C216.757 270.36 216.799 270.243 217.046 270.126C217.232 270.012 217.45 269.962 217.667 269.983C217.912 270.022 218.148 270.101 218.365 270.218C218.69 270.359 219.003 270.525 219.302 270.712V270.746ZM217.684 277.302C217.853 277.396 217.994 277.532 218.093 277.696C218.093 277.813 218.093 277.931 217.838 278.048C217.655 278.162 217.44 278.212 217.225 278.191C216.981 278.153 216.746 278.076 216.527 277.964C216.202 277.808 215.889 277.628 215.591 277.428C215.42 277.336 215.279 277.2 215.182 277.034C215.137 276.916 215.222 276.799 215.437 276.682C215.62 276.568 215.836 276.517 216.05 276.539C216.294 276.577 216.529 276.653 216.748 276.765C217.073 276.919 217.386 277.096 217.684 277.294V277.302Z" fill="white"/>
<path d="M80.9058 137.314L94.7368 129.451V90.1235L80.9058 97.9872V137.314Z" fill="#37474F"/>
<path d="M80.906 137.314L67.075 129.451V90.1235L80.906 97.9872V137.314Z" fill="#455A64"/>
<path d="M94.7368 90.1235L80.9058 97.9872L67.0748 90.1235L80.9058 82.2598L94.7368 90.1235Z" fill="#455A64"/>
<path d="M112.024 119.617L125.855 111.753V33.1074L112.024 40.9711V119.617Z" fill="#37474F"/>
<path d="M112.024 119.617L98.1929 111.753V33.1074L112.024 40.9711V119.617Z" fill="#455A64"/>
<path d="M125.855 33.1073L112.024 40.971L98.1929 33.1073L112.024 25.2435L125.855 33.1073Z" fill="#455A64"/>
<path d="M143.142 101.919L156.973 94.0552V66.5322L143.142 74.3959V101.919Z" fill="#37474F"/>
<path d="M143.141 101.919L129.31 94.0552V66.5322L143.141 74.3959V101.919Z" fill="#455A64"/>
<path d="M156.973 66.5323L143.142 74.396L129.311 66.5323L143.142 58.6686L156.973 66.5323Z" fill="#455A64"/>
<path d="M49.7886 155.012L63.6196 147.14V72.4344L49.7971 80.2982L49.7886 155.012Z" fill="#37474F"/>
<path d="M49.7974 155.012L35.9663 147.14V72.4344L49.7974 80.2982V155.012Z" fill="#455A64"/>
<path d="M63.6196 72.4342L49.7971 80.298L35.9661 72.4342L49.7886 64.5621L63.6196 72.4342Z" fill="#455A64"/>
<g opacity="0.3">
<path opacity="0.3" d="M146.486 149.302L146.631 62.2146C146.661 61.7105 146.811 61.2203 147.068 60.7835C147.325 60.3467 147.683 59.9754 148.112 59.6996L252.428 0.637831C253.279 0.176739 253.9 0.553996 253.9 1.47618L253.73 88.5304C253.702 89.035 253.554 89.5259 253.296 89.963C253.039 90.4001 252.68 90.771 252.249 91.0454L147.925 150.149C147.133 150.61 146.486 150.233 146.486 149.302Z" fill="white"/>
</g>
<path d="M147.287 150.761C147.587 150.75 147.88 150.663 148.138 150.51L252.462 91.4061C252.96 91.0973 253.375 90.6746 253.671 90.1739C253.968 89.6733 254.137 89.1094 254.164 88.5305L254.326 1.47629C254.362 1.22099 254.319 0.961018 254.205 0.729432C254.09 0.497846 253.908 0.305105 253.682 0.175703C253.455 0.0463009 253.195 -0.0139179 252.934 0.00270746C252.673 0.0193328 252.423 0.112047 252.215 0.269067L147.891 59.3224C147.394 59.6322 146.98 60.0552 146.684 60.5556C146.387 61.0561 146.218 61.6193 146.189 62.1979L146.044 149.286C146.024 149.54 146.072 149.795 146.184 150.024C146.296 150.254 146.468 150.451 146.682 150.594C146.865 150.702 147.074 150.76 147.287 150.761ZM253.083 0.82238C253.139 0.807806 253.198 0.807806 253.254 0.82238C253.337 0.892871 253.401 0.98276 253.439 1.08382C253.478 1.18488 253.49 1.29389 253.475 1.40084L253.33 88.4886C253.306 88.9292 253.175 89.3577 252.949 89.7383C252.722 90.1189 252.407 90.4407 252.028 90.6767L147.704 149.78C147.448 149.923 147.227 149.965 147.091 149.881C146.955 149.797 146.87 149.596 146.87 149.302L147.014 62.2147C147.042 61.7854 147.17 61.3682 147.388 60.9959C147.607 60.6235 147.91 60.3061 148.274 60.0685L252.641 0.964898C252.774 0.881104 252.926 0.832054 253.083 0.82238Z" fill="#4C73EB"/>
<path d="M156.394 130.087C159.16 128.151 160.777 126.399 161.875 112.935L161.969 111.786C162.999 99.1355 163.671 90.7856 169.527 87.34C172.336 85.6633 174.583 87.34 176.958 89.1592C179.111 90.7772 181.324 92.4371 183.818 91.0371C188.201 88.522 188.925 83.5422 190.286 74.4545C190.457 73.3311 190.627 72.1491 190.823 70.9083C191.121 68.9717 191.376 67.1693 191.614 65.4758C192.959 55.9354 193.776 50.1675 198.73 47.2249C199.218 46.8844 199.779 46.6609 200.371 46.5721C200.962 46.4833 201.566 46.5317 202.134 46.7135C205.888 48.0046 208.824 55.8264 211.931 64.1177C212.169 64.7297 212.399 65.3752 212.646 66.0207C214.901 72.1323 217.455 79.0655 220.987 80.3481C221.487 80.5282 222.021 80.5946 222.55 80.5423C223.079 80.4901 223.59 80.3205 224.043 80.0463C227.558 78.0846 228.188 72.7191 228.792 67.5214C229.396 62.3236 229.984 57.1007 233.303 55.1306C233.585 54.9513 233.906 54.843 234.24 54.8152C234.574 54.7875 234.91 54.8411 235.218 54.9713C239.338 56.5474 242.989 68.5525 243.023 68.6699L243.874 68.4352C243.721 67.9238 240.07 55.9186 235.567 54.1832C235.137 54.0078 234.671 53.9368 234.207 53.9762C233.743 54.0156 233.296 54.1643 232.903 54.4096C229.235 56.5725 228.596 62.0805 227.975 67.404C227.354 72.7275 226.792 77.548 223.643 79.3002C223.299 79.5151 222.91 79.6488 222.506 79.691C222.101 79.7332 221.692 79.6826 221.311 79.5433C218.153 78.3948 215.557 71.3694 213.472 65.7189C213.225 65.065 212.995 64.4279 212.757 63.8075C209.437 54.9629 206.569 47.3255 202.441 45.9003C201.757 45.6819 201.03 45.6219 200.319 45.7252C199.607 45.8284 198.929 46.0921 198.338 46.4956C193.044 49.6478 192.202 55.5581 190.823 65.3501C190.584 67.0268 190.329 68.8376 190.031 70.7658C189.835 72.0149 189.665 73.197 189.495 74.312C188.193 83.1482 187.469 88.0107 183.443 90.291C181.443 91.4227 179.63 90.0562 177.528 88.4801C175.145 86.6861 172.421 84.6656 169.144 86.6022C162.922 90.2742 162.224 98.8002 161.177 111.702L161.084 112.851C159.96 126.583 158.275 127.757 155.977 129.392L156.394 130.087Z" fill="#4C73EB"/>
<g opacity="0.4">
<path opacity="0.4" d="M156.394 130.087C159.16 128.151 160.777 126.399 161.875 112.935L161.969 111.786C162.999 99.1355 163.671 90.7856 169.527 87.34C172.336 85.6633 174.583 87.34 176.958 89.1592C179.111 90.7772 181.324 92.4371 183.818 91.0371C188.201 88.522 188.925 83.5422 190.286 74.4545C190.457 73.3311 190.627 72.1491 190.823 70.9083C191.121 68.9717 191.376 67.1693 191.614 65.4758C192.959 55.9354 193.776 50.1675 198.73 47.2249C199.218 46.8844 199.779 46.6609 200.371 46.5721C200.962 46.4833 201.566 46.5317 202.134 46.7135C205.888 48.0046 208.824 55.8264 211.931 64.1177C212.169 64.7297 212.399 65.3752 212.646 66.0207C214.901 72.1323 217.455 79.0655 220.987 80.3481C221.487 80.5282 222.021 80.5946 222.55 80.5423C223.079 80.4901 223.59 80.3205 224.043 80.0463C227.558 78.0846 228.188 72.7191 228.792 67.5214C229.396 62.3236 229.984 57.1007 233.303 55.1306C233.585 54.9513 233.906 54.843 234.24 54.8152C234.574 54.7875 234.91 54.8411 235.218 54.9713C239.338 56.5474 242.989 68.5525 243.023 68.6699L243.874 68.4352C243.721 67.9238 240.07 55.9186 235.567 54.1832C235.137 54.0078 234.671 53.9368 234.207 53.9762C233.743 54.0156 233.296 54.1643 232.903 54.4096C229.235 56.5725 228.596 62.0805 227.975 67.404C227.354 72.7275 226.792 77.548 223.643 79.3002C223.299 79.5151 222.91 79.6488 222.506 79.691C222.101 79.7332 221.692 79.6826 221.311 79.5433C218.153 78.3948 215.557 71.3694 213.472 65.7189C213.225 65.065 212.995 64.4279 212.757 63.8075C209.437 54.9629 206.569 47.3255 202.441 45.9003C201.757 45.6819 201.03 45.6219 200.319 45.7252C199.607 45.8284 198.929 46.0921 198.338 46.4956C193.044 49.6478 192.202 55.5581 190.823 65.3501C190.584 67.0268 190.329 68.8376 190.031 70.7658C189.835 72.0149 189.665 73.197 189.495 74.312C188.193 83.1482 187.469 88.0107 183.443 90.291C181.443 91.4227 179.63 90.0562 177.528 88.4801C175.145 86.6861 172.421 84.6656 169.144 86.6022C162.922 90.2742 162.224 98.8002 161.177 111.702L161.084 112.851C159.96 126.583 158.275 127.757 155.977 129.392L156.394 130.087Z" fill="black"/>
</g>
<path d="M170.787 83.6345C170.154 84.0431 169.626 84.5916 169.247 85.2363C168.867 85.8811 168.645 86.6043 168.599 87.3484C168.599 88.7149 169.578 89.2682 170.778 88.5892C171.414 88.1836 171.944 87.6357 172.324 86.9903C172.704 86.345 172.924 85.6202 172.966 84.8753C172.966 83.5423 172.021 82.989 170.787 83.6345Z" fill="#4C73EB"/>
<g opacity="0.2">
<path opacity="0.2" d="M170.787 83.6345C170.154 84.0431 169.626 84.5916 169.247 85.2363C168.867 85.8811 168.645 86.6043 168.599 87.3484C168.599 88.7149 169.578 89.2682 170.778 88.5892C171.414 88.1836 171.944 87.6357 172.324 86.9903C172.704 86.345 172.924 85.6202 172.966 84.8753C172.966 83.5423 172.021 82.989 170.787 83.6345Z" fill="black"/>
</g>
<path d="M198.509 44.3915C197.875 44.7985 197.347 45.3469 196.969 45.9921C196.59 46.6373 196.371 47.3613 196.33 48.1054C196.33 49.4719 197.3 50.0252 198.5 49.3461C199.136 48.941 199.666 48.3933 200.046 47.7479C200.427 47.1024 200.646 46.3774 200.688 45.6323C200.688 44.2322 199.717 43.7124 198.509 44.3915Z" fill="#4C73EB"/>
<g opacity="0.5">
<path opacity="0.5" d="M198.509 44.3915C197.875 44.7985 197.347 45.3469 196.969 45.9921C196.59 46.6373 196.371 47.3613 196.33 48.1054C196.33 49.4719 197.3 50.0252 198.5 49.3461C199.136 48.941 199.666 48.3933 200.046 47.7479C200.427 47.1024 200.646 46.3774 200.688 45.6323C200.688 44.2322 199.717 43.7124 198.509 44.3915Z" fill="white"/>
</g>
<path d="M233.073 52.3138C232.437 52.7171 231.907 53.2632 231.527 53.9073C231.147 54.5515 230.927 55.2753 230.886 56.0193C230.886 57.3942 231.856 57.9475 233.065 57.2684C233.698 56.8609 234.225 56.3125 234.604 55.6673C234.982 55.0222 235.201 54.2985 235.244 53.5545C235.252 52.188 234.273 51.6263 233.073 52.3138Z" fill="#4C73EB"/>
<path opacity="0.65" d="M201.921 145.463V58.3749C201.95 57.8714 202.098 57.3815 202.353 56.9446C202.609 56.5078 202.965 56.1362 203.394 55.8599L293.793 4.45228C294.645 3.99119 295.266 4.36845 295.266 5.29063V92.3784C295.238 92.8821 295.091 93.3722 294.835 93.8092C294.579 94.2462 294.222 94.6176 293.793 94.8934L203.394 146.301C202.577 146.771 201.921 146.393 201.921 145.463Z" fill="white"/>
<path d="M202.73 146.921C203.03 146.91 203.323 146.823 203.581 146.67L294.006 95.2624C294.503 94.9502 294.916 94.5256 295.212 94.0239C295.509 93.5222 295.679 92.958 295.708 92.3784V5.29068C295.742 5.03606 295.698 4.77733 295.583 4.54717C295.467 4.31701 295.285 4.12572 295.059 3.99746C294.833 3.8692 294.574 3.80972 294.314 3.82651C294.054 3.84331 293.804 3.93564 293.597 4.09184L203.198 55.4994C202.701 55.8097 202.288 56.2328 201.991 56.7332C201.695 57.2335 201.525 57.7965 201.495 58.375V145.463C201.475 145.717 201.523 145.972 201.635 146.202C201.748 146.431 201.92 146.628 202.134 146.771C202.316 146.871 202.521 146.923 202.73 146.921ZM294.449 4.67869C294.504 4.66449 294.563 4.66449 294.619 4.67869C294.702 4.74918 294.766 4.83907 294.804 4.94013C294.843 5.04119 294.855 5.15019 294.84 5.25715V92.3784C294.813 92.809 294.686 93.2276 294.467 93.6015C294.249 93.9753 293.945 94.2941 293.58 94.533L203.181 145.941C203.094 146.007 202.992 146.052 202.883 146.069C202.775 146.087 202.663 146.077 202.559 146.041C202.423 145.966 202.347 145.756 202.347 145.463V58.375C202.373 57.9454 202.5 57.5277 202.719 57.1551C202.937 56.7826 203.241 56.4654 203.606 56.2288L294.006 4.82959C294.136 4.73951 294.29 4.68723 294.449 4.67869Z" fill="#4C73EB"/>
<path d="M217.471 125.669V68.3598C217.486 68.1077 217.561 67.8625 217.689 67.644C217.818 67.4256 217.997 67.24 218.212 67.1023L227.106 62.0722C227.515 61.8375 227.847 62.0219 227.847 62.4914V119.767C227.834 120.02 227.76 120.266 227.631 120.485C227.503 120.704 227.323 120.889 227.106 121.025L218.212 126.055C217.803 126.323 217.471 126.131 217.471 125.669Z" fill="#4C73EB"/>
<g opacity="0.3">
<path opacity="0.3" d="M217.471 125.669V68.3598C217.486 68.1077 217.561 67.8625 217.689 67.644C217.818 67.4256 217.997 67.24 218.212 67.1023L227.106 62.0722C227.515 61.8375 227.847 62.0219 227.847 62.4914V119.767C227.834 120.02 227.76 120.266 227.631 120.485C227.503 120.704 227.323 120.889 227.106 121.025L218.212 126.055C217.803 126.323 217.471 126.131 217.471 125.669Z" fill="black"/>
</g>
<path d="M234.758 115.836V86.0574C234.773 85.8052 234.848 85.56 234.976 85.3416C235.105 85.1231 235.284 84.9375 235.499 84.7999L244.402 79.7698C244.802 79.5434 245.134 79.7698 245.134 80.1889V109.975C245.119 110.227 245.045 110.471 244.918 110.689C244.791 110.907 244.614 111.093 244.402 111.233L235.499 116.263C235.09 116.489 234.758 116.33 234.758 115.836Z" fill="#4C73EB"/>
<g opacity="0.2">
<path opacity="0.2" d="M234.758 115.836V86.0574C234.773 85.8052 234.848 85.56 234.976 85.3416C235.105 85.1231 235.284 84.9375 235.499 84.7999L244.402 79.7698C244.802 79.5434 245.134 79.7698 245.134 80.1889V109.975C245.119 110.227 245.045 110.471 244.918 110.689C244.791 110.907 244.614 111.093 244.402 111.233L235.499 116.263C235.09 116.489 234.758 116.33 234.758 115.836Z" fill="white"/>
</g>
<path d="M252.028 106.01V60.4961C252.043 60.2439 252.117 59.9987 252.246 59.7803C252.375 59.5618 252.554 59.3762 252.769 59.2385L261.672 54.2084C262.072 53.9737 262.404 54.1581 262.404 54.6276V100.133C262.39 100.385 262.317 100.629 262.189 100.848C262.062 101.066 261.885 101.252 261.672 101.391L252.769 106.421C252.377 106.656 252.028 106.471 252.028 106.01Z" fill="#4C73EB"/>
<g opacity="0.2">
<path opacity="0.2" d="M252.028 106.01V60.4961C252.043 60.2439 252.117 59.9987 252.246 59.7803C252.375 59.5618 252.554 59.3762 252.769 59.2385L261.672 54.2084C262.072 53.9737 262.404 54.1581 262.404 54.6276V100.133C262.39 100.385 262.317 100.629 262.189 100.848C262.062 101.066 261.885 101.252 261.672 101.391L252.769 106.421C252.377 106.656 252.028 106.471 252.028 106.01Z" fill="black"/>
</g>
<path d="M269.34 96.2099V31.003C269.353 30.7515 269.426 30.5065 269.553 30.288C269.681 30.0695 269.858 29.8836 270.072 29.7455L278.975 24.7154C279.375 24.4807 279.707 24.7154 279.707 25.1346V90.3079C279.692 90.559 279.618 90.8032 279.491 91.0214C279.364 91.2396 279.187 91.4258 278.975 91.5654L270.072 96.5955C269.664 96.8302 269.34 96.6374 269.34 96.2099Z" fill="#4C73EB"/>
<path d="M85.5191 106.631C85.6382 106.002 88.7619 98.8422 90.0471 96.0254L96.5583 99.0267L94.0645 104.652L87.3235 109.791C86.6676 109.594 86.114 109.156 85.7779 108.567C85.4418 107.978 85.3491 107.285 85.5191 106.631Z" fill="#FFA8A7"/>
<path d="M98.4907 181.621H103.512V188.831H98.4907V181.621Z" fill="#FFA8A7"/>
<path d="M116.181 172.716L121.199 172.886L120.948 180.092L115.929 179.922L116.181 172.716Z" fill="#FFA8A7"/>
<path d="M114.926 78.3699C116.743 78.4115 118.52 78.9052 120.092 79.8052C121.663 80.7052 122.978 81.9822 123.914 83.5173C126.689 87.5833 131.574 94.5333 131.574 94.5333L122.424 97.392L114.926 78.3699Z" fill="#4C73EB"/>
<g opacity="0.7">
<path opacity="0.7" d="M114.926 78.3699C116.743 78.4115 118.52 78.9052 120.092 79.8052C121.663 80.7052 122.978 81.9822 123.914 83.5173C126.689 87.5833 131.574 94.5333 131.574 94.5333L122.424 97.392L114.926 78.3699Z" fill="white"/>
</g>
<path d="M98.8226 111.3C98.8226 116.028 98.2012 146.603 98.2012 146.603C98.0821 147.961 96.7884 150.468 97.0692 155.691C97.4523 162.792 98.0736 182.518 98.0736 182.518C98.0736 182.518 100.431 184.823 103.759 182.518C103.759 182.518 108.313 155.733 109.207 148.699C109.998 142.562 111.326 125.896 111.326 125.896L115.982 145.522C115.982 145.522 115.13 150.133 114.986 153.385C114.841 156.638 115.837 175.451 115.837 175.451C116.652 175.952 117.585 176.235 118.545 176.272C119.505 176.309 120.458 176.098 121.31 175.66C121.31 175.66 125.344 148.179 125.863 145.237C126.383 142.294 122.323 111.3 122.323 111.3H98.8226Z" fill="#4C73EB"/>
<path opacity="0.2" d="M98.8226 111.3C98.8226 116.028 98.2012 146.603 98.2012 146.603C98.0821 147.961 96.7884 150.468 97.0692 155.691C97.4523 162.792 98.0736 182.518 98.0736 182.518C98.0736 182.518 100.431 184.823 103.759 182.518C103.759 182.518 108.313 155.733 109.207 148.699C109.998 142.562 111.326 125.896 111.326 125.896L115.982 145.522C115.982 145.522 115.13 150.133 114.986 153.385C114.841 156.638 115.837 175.451 115.837 175.451C116.652 175.952 117.585 176.235 118.545 176.272C119.505 176.309 120.458 176.098 121.31 175.66C121.31 175.66 125.344 148.179 125.863 145.237C126.383 142.294 122.323 111.3 122.323 111.3H98.8226Z" fill="black"/>
<path d="M106.381 78.5207C101.879 79.5854 96.1675 81.3794 94.1588 85.4706C92.1501 89.5617 89.0519 96.1931 89.0519 96.1931L96.5079 100.536L98.823 96.6122V111.3C102.347 115.073 114.637 116.833 122.332 111.3V87.1221C122.332 83.2741 120.153 78.638 114.152 78.2943L106.381 78.5207Z" fill="#4C73EB"/>
<path opacity="0.7" d="M106.381 78.5207C101.879 79.5854 96.1675 81.3794 94.1588 85.4706C92.1501 89.5617 89.0519 96.1931 89.0519 96.1931L96.5079 100.536L98.823 96.6122V111.3C102.347 115.073 114.637 116.833 122.332 111.3V87.1221C122.332 83.2741 120.153 78.638 114.152 78.2943L106.381 78.5207Z" fill="white"/>
<path d="M104.687 58.7859C104.283 58.7401 103.873 58.7858 103.49 58.9195C103.106 59.0531 102.759 59.2712 102.474 59.5572C101.521 60.5129 101.716 62.2902 102.474 66.3646L105.419 66.7L104.687 58.7859Z" fill="#263238"/>
<path d="M121.803 57.6458C122.435 57.6535 123.061 57.5307 123.642 57.2853C124.544 56.7739 124.782 57.7799 124.289 58.6602C123.962 59.2881 123.477 59.8233 122.882 60.215C122.286 60.6068 121.598 60.8421 120.884 60.8986C120.884 60.7728 120.033 58.635 120.033 58.635L121.803 57.6458Z" fill="#263238"/>
<path d="M106.066 66.6999C105.632 66.9598 105.01 66.1299 104.474 65.5766C104.262 65.3386 103.992 65.1574 103.69 65.0502C103.388 64.9429 103.063 64.913 102.745 64.9633C102.428 65.0135 102.129 65.1423 101.876 65.3376C101.623 65.5328 101.425 65.7881 101.299 66.0796C100.406 67.9323 102.431 70.4055 103.623 71.2187C103.956 71.5021 104.371 71.6749 104.81 71.7125C105.248 71.7501 105.688 71.6507 106.066 71.4282L106.381 78.5207C106.906 79.6572 107.711 80.6475 108.721 81.4025C109.731 82.1575 110.915 82.6537 112.168 82.8466C116.424 83.4083 115.53 79.9794 114.143 78.2943V75.7122C115.199 75.9377 116.286 75.9943 117.36 75.8799C117.914 75.7374 119.224 74.2032 120.075 72.4175C121.029 70.4474 122.629 66.9515 121.199 61.0411C119.684 54.6948 112.764 54.502 108.628 57.0589C104.491 59.6159 106.066 66.6999 106.066 66.6999Z" fill="#FFA8A7"/>
<path d="M106.066 67.4209C105.853 67.4209 105.01 66.0628 104.474 65.5765C103.716 64.8975 104.687 58.7859 104.687 58.7859C104.687 58.7859 103.929 56.4721 105.419 54.9295C106.908 53.3869 109.785 53.6552 111.896 53.5798C114.486 53.5926 117.052 53.0848 119.437 52.0875C122.433 50.8048 122.654 50.6539 123.029 51.9534C123.403 53.2528 123.54 56.2122 121.752 58.1991L120.263 58.744C120.263 58.744 119.463 59.4398 116.671 59.7752C114.09 59.9682 111.497 59.9205 108.925 59.6326C108.117 59.5237 107.947 60.2949 107.513 62.4076C107.121 64.2687 106.806 67.4125 106.066 67.4209Z" fill="#263238"/>
<path d="M104.696 59.2637L102.057 57.8637C102.141 57.6892 102.26 57.5333 102.407 57.4055C102.554 57.2776 102.726 57.1806 102.912 57.1202C103.099 57.0599 103.295 57.0374 103.491 57.0543C103.686 57.0711 103.876 57.1269 104.049 57.2182C104.403 57.4117 104.668 57.7323 104.788 58.1133C104.909 58.4942 104.876 58.9063 104.696 59.2637Z" fill="#263238"/>
<path d="M114.143 75.7122C112.338 75.3772 110.569 74.8776 108.857 74.22C108.052 73.8093 107.392 73.1657 106.968 72.3756C107.173 73.1657 107.538 73.907 108.04 74.5553C109.045 75.8128 114.143 76.7434 114.143 76.7434V75.7122Z" fill="#F28F8F"/>
<path d="M113.19 65.7358C113.193 65.8392 113.176 65.9422 113.138 66.0387C113.1 66.1352 113.043 66.2232 112.97 66.2975C112.897 66.3718 112.809 66.4309 112.713 66.4712C112.616 66.5115 112.512 66.5323 112.407 66.5322C112.235 66.5457 112.062 66.5071 111.913 66.4216C111.763 66.3361 111.643 66.2078 111.57 66.0538C111.496 65.8997 111.472 65.7272 111.5 65.5592C111.528 65.3912 111.608 65.2356 111.728 65.1133C111.849 64.9909 112.004 64.9076 112.173 64.8743C112.343 64.841 112.519 64.8594 112.678 64.927C112.836 64.9946 112.97 65.1082 113.062 65.2527C113.153 65.3972 113.198 65.5657 113.19 65.7358Z" fill="#263238"/>
<path d="M112.364 62.8184L110.662 63.7322C110.544 63.5051 110.519 63.2421 110.591 62.9973C110.664 62.7525 110.83 62.5445 111.053 62.416C111.165 62.3528 111.289 62.3131 111.417 62.2992C111.545 62.2854 111.675 62.2977 111.798 62.3355C111.921 62.3733 112.035 62.4356 112.132 62.5187C112.229 62.6018 112.308 62.7039 112.364 62.8184Z" fill="#263238"/>
<path d="M113.13 70.9755L114.926 71.6378C114.886 71.7554 114.822 71.864 114.739 71.9573C114.656 72.0506 114.555 72.1267 114.442 72.1813C114.329 72.2359 114.206 72.2678 114.08 72.2752C113.954 72.2827 113.828 72.2655 113.709 72.2246C113.468 72.129 113.274 71.9461 113.167 71.7137C113.059 71.4813 113.046 71.2171 113.13 70.9755Z" fill="#F28F8F"/>
<path d="M120.186 63.4639L118.663 62.2986C118.735 62.1971 118.827 62.111 118.933 62.0456C119.04 61.9801 119.159 61.9367 119.283 61.9179C119.407 61.899 119.534 61.9053 119.655 61.9361C119.777 61.967 119.891 62.0219 119.991 62.0974C120.196 62.2565 120.331 62.4874 120.367 62.742C120.403 62.9966 120.339 63.2552 120.186 63.4639Z" fill="#263238"/>
<path d="M119.718 65.5179C119.718 65.6192 119.698 65.7194 119.658 65.813C119.619 65.9066 119.561 65.9916 119.489 66.0632C119.416 66.1349 119.33 66.1917 119.235 66.2304C119.14 66.2692 119.038 66.2891 118.935 66.2891C118.832 66.2891 118.73 66.2692 118.635 66.2304C118.54 66.1917 118.454 66.1349 118.381 66.0632C118.309 65.9916 118.251 65.9066 118.211 65.813C118.172 65.7194 118.152 65.6192 118.152 65.5179C118.148 65.4145 118.166 65.3115 118.204 65.215C118.242 65.1185 118.299 65.0305 118.372 64.9562C118.445 64.8819 118.533 64.8228 118.629 64.7825C118.726 64.7421 118.83 64.7214 118.935 64.7214C119.146 64.7258 119.346 64.812 119.493 64.9611C119.639 65.1102 119.72 65.3103 119.718 65.5179Z" fill="#263238"/>
<path d="M115.726 64.7802L115.982 69.433L118.441 68.603L115.726 64.7802Z" fill="#F28F8F"/>
<path d="M136.222 92.7811L116.152 97.9873L110.228 122.526L129.311 117.068L136.222 92.7811Z" fill="#4C73EB"/>
<path d="M127.472 109.02C127.826 109.641 128.36 110.143 129.007 110.461C129.653 110.78 130.382 110.9 131.098 110.805L131.387 109.791L127.472 109.02Z" fill="#4C73EB"/>
<path d="M122.987 109.791C122.901 110.445 121.531 111.652 119.225 112.407C116.603 113.245 112.577 112.818 112.577 112.818L112.935 111.594L122.987 109.791Z" fill="#4C73EB"/>
<path opacity="0.43" d="M130.315 96.3356L130.485 95.5811C130.57 95.1619 129.396 95.1451 127.847 95.5391L124.893 96.2937C123.344 96.6961 122.025 97.35 121.931 97.7692L121.761 98.5237L130.315 96.3356Z" fill="#455A64"/>
<path d="M131.745 93.4936C131.796 93.2337 131.319 93.1667 130.672 93.3427L129.463 93.6948C129.463 93.6948 129.812 92.0181 127.208 92.6301C126.513 92.7311 125.856 93.0072 125.302 93.4317C124.747 93.8562 124.313 94.4146 124.042 95.0529L122.791 95.4051C122.101 95.5979 121.48 95.9584 121.395 96.2434L121.25 96.7129L131.591 94.0302L131.745 93.4936Z" fill="#37474F"/>
<path d="M130.315 94.3068C129.371 94.5331 128.979 94.6589 128.834 95.296C128.69 95.9332 128.604 96.5703 128.604 96.5703L124.034 97.7608C124.034 97.7608 124.255 96.8302 124.323 96.4697C124.391 96.1092 124.238 95.8912 123.472 96.0757L123.413 95.7906L130.588 93.9966L130.315 94.3068Z" fill="#37474F"/>
<path d="M130.476 96.411L130.638 95.6565C130.732 95.2373 129.557 95.2206 128.008 95.6146L125.055 96.3691C123.506 96.7631 122.178 97.417 122.084 97.8362L121.922 98.5907L130.476 96.411Z" fill="#37474F"/>
<path d="M87.3239 109.791L94.0649 104.652C94.0649 104.652 108.194 107.268 109.785 107.394C111.377 107.519 112.637 105.968 113.241 104.426C113.845 102.883 115.071 103.076 115.071 103.076C115.071 103.076 114.603 105.038 114.45 105.658C114.297 106.279 117.982 106.79 120.101 106.086C122.221 105.382 125.293 106.404 123.395 109.255C121.497 112.105 117.786 112.424 115.216 112.432C114.14 112.422 113.066 112.349 111.998 112.214C111.147 112.113 110.296 112.03 109.505 111.971C104.245 111.602 89.7156 110.529 87.3239 109.791Z" fill="#FFA8A7"/>
<path d="M134.187 99.9573L133.294 103.084C133.123 103.688 130.791 104.761 129.31 105.18C127.829 105.599 126.221 106.019 126.919 108.089C127.566 109.959 129.991 110.386 131.225 110.336C132.057 110.198 132.833 109.836 133.469 109.29C134.104 108.744 134.574 108.035 134.826 107.243C135.677 104.853 135.217 102.296 135.558 100.896C135.898 99.4962 134.919 99.1274 134.187 99.9573Z" fill="#F28F8F"/>
<path d="M103.512 186.391V185.678C103.989 185.888 105.112 190.088 107.104 191.874C108.687 193.299 110.849 194.951 111.36 196.535C111.87 198.12 108.347 199.1 106.866 198.84C105.163 198.539 102.159 197.348 101.41 196.242C100.661 195.135 100.312 193.5 99.7077 192.687C99.1033 191.874 97.699 191.01 97.367 190.038C97.2682 189.161 97.367 188.274 97.6564 187.439C97.8862 186.559 98.1415 185.603 98.4394 185.678C98.4394 185.787 98.4394 186.223 98.4394 186.223C99.1694 186.78 100.07 187.076 100.993 187.062C101.733 187.087 103.521 186.944 103.512 186.391Z" fill="#37474F"/>
<path d="M120.952 178.553C121.216 178.553 121.429 178.921 121.999 179.533C122.861 180.39 123.862 181.099 124.961 181.629C126.842 182.56 130.494 183.985 132.153 184.723C133.192 185.184 133.141 186.4 132.068 187.112C130.996 187.825 128.417 188.319 125.319 187.632C123.617 187.263 121.429 185.729 120.042 185.804C118.654 185.88 116.05 185.871 115.02 185.176C113.99 184.48 114.407 182.987 114.697 181.705C114.986 180.422 115.463 178.175 115.931 178.268V178.712C116.535 179.609 119.616 179.978 120.944 179.315L120.952 178.553Z" fill="#37474F"/>
<path d="M338.581 175.543L335.44 179.844C336.872 180.495 338.434 180.821 340.01 180.799C342.819 180.908 343.594 179.961 343.696 179.776C344.173 178.779 343.432 176.968 343.228 175.409L338.581 175.543Z" fill="#37474F"/>
<path d="M343.696 171.217C343.696 171.217 343.219 175.124 343.185 175.962C343.151 176.8 339.312 177.077 338.58 175.543L338.47 170.764L343.696 171.217Z" fill="#F28F8F"/>
<path d="M343.696 94.248C346.317 98.2721 348.803 101.793 349.347 106.337C350.471 115.886 346.794 126.801 346.002 133.86C347.491 135.874 348.351 138.272 348.479 140.76C348.479 143.677 343.696 171.217 343.696 171.217C343.696 171.217 340.223 172.265 338.47 170.764L335.184 120.103L336.887 113.932L343.696 94.248Z" fill="#4C73EB"/>
<path opacity="0.5" d="M343.696 94.248C346.317 98.2721 348.803 101.793 349.347 106.337C350.471 115.886 346.794 126.801 346.002 133.86C347.491 135.874 348.351 138.272 348.479 140.76C348.479 143.677 343.696 171.217 343.696 171.217C343.696 171.217 340.223 172.265 338.47 170.764L335.184 120.103L336.887 113.932L343.696 94.248Z" fill="white"/>
<path d="M319.464 75.3767L302.177 83.5506L312.552 106.53L328.673 97.3666L319.464 75.3767Z" fill="#4C73EB"/>
<path d="M304.211 83.9699L313.165 103.554L325.575 96.5116L318.536 77.2379L304.211 83.9699Z" fill="#4C73EB"/>
<path d="M318.536 77.2379L304.212 83.9699L313.881 103.763L327.431 96.1427L318.536 77.2379Z" fill="white"/>
<path d="M315.421 80.0715L315.089 79.3673C314.901 78.9816 313.718 79.1409 312.442 79.7361L309.999 80.8763C308.722 81.4631 307.846 82.2679 308.024 82.6536L308.365 83.3578L315.421 80.0715Z" fill="#E0E0E0"/>
<path d="M349.56 83.6345C350.82 87.1723 353.314 92.7893 352.514 93.9211C351.714 95.0528 346.913 94.8097 344.241 94.7091C340.836 94.5834 338.01 94.4492 338.01 94.4492L338.58 88.5808H343.415L341.287 82.6453L349.56 83.6345Z" fill="#F28F8F"/>
<path d="M344.717 71.0592C346.479 73.9096 350.037 83.9698 350.037 83.9698C349.048 85.074 347.737 85.8501 346.283 86.1914C345.014 86.5752 343.664 86.6272 342.368 86.3423L338.436 76.7013L344.717 71.0592Z" fill="#4C73EB"/>
<path opacity="0.4" d="M344.717 71.0592C346.479 73.9096 350.037 83.9698 350.037 83.9698C349.048 85.074 347.737 85.8501 346.283 86.1914C345.014 86.5752 343.664 86.6272 342.368 86.3423L338.436 76.7013L344.717 71.0592Z" fill="black"/>
<path d="M327.124 72.8534C324.034 73.7672 322.153 73.9265 318.74 79.0991C315.327 84.2717 307.854 94.5331 307.114 95.7655C306.084 97.4422 305.641 99.5213 306.526 101.097C307.411 102.673 309.769 101.936 313.157 98.9931C316.544 96.0505 322.928 88.1617 322.928 88.1617C322.928 88.1617 329.584 80.7758 327.124 72.8534Z" fill="#FFA8A7"/>
<path d="M329.592 66.1465L330.426 73.415L337.712 74.245L336.657 64.5956L329.592 66.1465Z" fill="#FFA8A7"/>
<path d="M345.177 55.5247C344.572 48.8179 340.921 46.043 338.019 45.3807C332.256 44.0393 327.116 46.1016 324.783 50.0838C324.171 51.1317 323.141 55.0552 325.192 57.3691C327.243 59.6829 345.177 55.5247 345.177 55.5247Z" fill="#263238"/>
<path d="M324.213 57.8888C324.213 57.8888 322.698 60.4039 322.928 60.6889C323.331 60.9193 323.772 61.0782 324.23 61.1584L324.213 57.8888Z" fill="#F28F8F"/>
<path d="M328.81 49.7987C327.243 50.7125 324.554 52.3808 324.188 58.2492C323.805 64.277 324.971 66.1297 325.89 66.8675C326.477 67.3705 329.49 67.2028 330.997 66.6579C332.844 65.9704 336.955 64.1009 338.725 60.8984C340.768 57.1342 340.947 52.2634 338.24 50.5113C336.86 49.6106 335.269 49.0724 333.619 48.9477C331.968 48.823 330.313 49.1159 328.81 49.7987Z" fill="#FFA8A7"/>
<path d="M328.35 50.1006C328.35 50.1006 327.269 55.6421 329.141 58.9955C329.141 58.9955 329.992 56.8074 331.899 57.3188C333.806 57.8302 333.78 60.2949 332.376 61.6363C332.02 62.0179 331.562 62.2929 331.054 62.4293C330.547 62.5658 330.011 62.5582 329.507 62.4075C329.772 64.1335 330.589 65.7312 331.839 66.9682C333.824 67.4205 335.899 67.3111 337.823 66.6525C339.748 65.9939 341.444 64.813 342.717 63.2459C346.973 58.2661 345.858 49.8323 339.108 48.0215C332.359 46.2106 328.35 50.1006 328.35 50.1006Z" fill="#263238"/>
<path d="M335.618 177.781C335.618 177.781 331.805 177.538 329.175 177.211C326.545 176.884 324.46 178.15 325.081 179.223C325.703 180.296 327.15 181.177 329.405 181.923C331.337 182.568 333.661 183.029 335.669 183.599C337.678 184.169 339.074 184.907 340.24 184.513C341.542 184.069 342.104 183.557 341.993 182.619C341.709 181.283 341.357 179.962 340.938 178.661L335.618 177.781Z" fill="#37474F"/>
<path d="M339.832 173.623L341.202 179.55C341.202 179.55 341.33 180.271 338.198 180.732C335.065 181.193 330.146 179.123 329.303 178.695C328.461 178.267 328.367 177.437 331.448 177.605C334.529 177.773 335.619 177.781 335.619 177.781L334.589 175.149L339.832 173.623Z" fill="#FFA8A7"/>
<path d="M335.184 120.103L336.887 113.932C340.146 113.087 343.29 111.857 346.249 110.269C346.249 110.269 344.479 113.446 339.44 115.182L336.793 123.112L336.563 141.254L335.184 120.103Z" fill="#4C73EB"/>
<path d="M343.695 94.248C345.1 96.5032 348.453 100.368 347.747 104.074C346.896 108.575 344.419 111.728 336.912 113.932L329.864 139.083C329.864 139.083 333.533 142.436 334.656 145.681C335.78 148.925 339.831 173.648 339.831 173.648C339.831 173.648 338.58 175.66 334.622 175.174C334.622 175.174 320.825 144.155 319.847 142.135C318.679 140.1 318.266 137.729 318.68 135.428C319.115 132.167 323.787 96.5619 323.787 96.5619L343.695 94.248Z" fill="#4C73EB"/>
<path opacity="0.5" d="M343.695 94.248C345.1 96.5032 348.453 100.368 347.747 104.074C346.896 108.575 344.419 111.728 336.912 113.932L329.864 139.083C329.864 139.083 333.533 142.436 334.656 145.681C335.78 148.925 339.831 173.648 339.831 173.648C339.831 173.648 338.58 175.66 334.622 175.174C334.622 175.174 320.825 144.155 319.847 142.135C318.679 140.1 318.266 137.729 318.68 135.428C319.115 132.167 323.787 96.5619 323.787 96.5619L343.695 94.248Z" fill="white"/>
<path d="M344.972 71.579C344.428 70.1538 342.691 68.9634 341.125 69.3826C336.214 70.6988 328.579 72.4341 327.124 72.8533C327.124 72.8533 327.771 83.7519 322.119 87.0047C322.383 89.0754 323.822 96.5032 323.822 96.5032C323.822 96.5032 330.631 99.756 336.214 98.1799C341.798 96.6038 343.696 94.2732 343.696 94.2732L340.895 89.7796C341.491 88.3125 343.806 83.3578 345.296 78.7469C345.844 76.3724 345.732 73.8963 344.972 71.579Z" fill="#4C73EB"/>
<path opacity="0.2" d="M344.972 71.579C344.428 70.1538 342.691 68.9634 341.125 69.3826C336.214 70.6988 328.579 72.4341 327.124 72.8533C327.124 72.8533 327.771 83.7519 322.119 87.0047C322.383 89.0754 323.822 96.5032 323.822 96.5032C323.822 96.5032 330.631 99.756 336.214 98.1799C341.798 96.6038 343.696 94.2732 343.696 94.2732L340.895 89.7796C341.491 88.3125 343.806 83.3578 345.296 78.7469C345.844 76.3724 345.732 73.8963 344.972 71.579Z" fill="black"/>
<path opacity="0.25" d="M341.661 87.9856C339.334 89.3645 336.894 90.5507 334.367 91.5318C336.66 91.4882 338.905 90.877 340.895 89.7545L341.661 87.9856Z" fill="#4C73EB"/>
<path d="M340.214 46.873C340.214 46.873 342.546 42.9579 348.258 43.9723C353.969 44.9867 356.284 50.9557 356.199 54.7367C356.114 58.5176 354.828 61.1585 358.267 65.6352C358.945 66.5181 359.422 67.5339 359.667 68.614C359.913 69.6942 359.92 70.8136 359.688 71.8967C359.457 72.9797 358.992 74.0013 358.325 74.8923C357.659 75.7834 356.806 76.5233 355.824 77.0619C351.237 79.577 350.122 75.2008 351.185 71.4618C352.411 67.1778 347.857 66.4317 346.64 63.1873C345.423 59.9428 347.815 53.1271 346.283 50.8132C344.581 48.2982 342.283 48.6503 341.176 49.5054L340.214 46.873Z" fill="#263238"/>
<path d="M327.124 72.8534C325.598 73.1729 324.107 73.639 322.673 74.2451C320.801 75.1505 313.498 86.443 313.498 86.443C313.498 86.443 314.017 90.6935 319.992 92.3785L323.524 87.9856C323.524 87.9856 328.716 80.3482 327.124 72.8534Z" fill="#4C73EB"/>
<path opacity="0.1" d="M327.124 72.8534C325.598 73.1729 324.107 73.639 322.673 74.2451C320.801 75.1505 313.498 86.443 313.498 86.443C313.498 86.443 314.017 90.6935 319.992 92.3785L323.524 87.9856C323.524 87.9856 328.716 80.3482 327.124 72.8534Z" fill="black"/>
<path d="M322.485 89.3102C324.055 87.511 325.239 85.418 325.967 83.1567C325.967 83.1567 325.967 88.0359 322.707 90.5594L322.485 89.3102Z" fill="#4C73EB"/>
<path opacity="0.4" d="M322.485 89.3102C324.055 87.511 325.239 85.418 325.967 83.1567C325.967 83.1567 325.967 88.0359 322.707 90.5594L322.485 89.3102Z" fill="black"/>
<path d="M314.799 77.0368C314.689 76.7937 314.17 76.8105 313.642 77.0368L312.689 77.4979C312.689 77.4979 311.948 75.9805 309.735 76.8943C307.522 77.8081 308.203 79.5603 308.203 79.5603L307.19 80.0716C306.629 80.3483 306.254 80.7759 306.339 81.0274L306.509 81.4717L315.021 77.4476L314.799 77.0368Z" fill="#455A64"/>
<path d="M313.931 77.9925C313.131 78.3446 312.825 78.5123 313.08 79.1159C313.336 79.7195 313.702 80.2979 313.702 80.2979L309.94 82.0752C309.94 82.0752 309.54 81.2369 309.369 80.868C309.199 80.4991 308.893 80.3566 308.297 80.6417L308.042 80.3902L314 77.6655L313.931 77.9925Z" fill="#455A64"/>
<path d="M315.489 79.8618L315.148 79.1576C314.961 78.7636 313.778 78.9312 312.501 79.5265L310.058 80.6666C308.79 81.2535 307.905 82.0499 308.092 82.4439L308.433 83.1481L315.489 79.8618Z" fill="#455A64"/>
</svg>
